<mxfile host="Electron" modified="2024-08-29T10:52:09.953Z" agent="Mozilla/5.0 (X11; Linux x86_64) AppleWebKit/537.36 (KHTML, like Gecko) draw.io/24.6.4 Chrome/124.0.6367.207 Electron/30.0.6 Safari/537.36" etag="2jZ_82xj7KBCgceaKzZ9" version="24.6.4" type="device" pages="5">
  <diagram id="C5RBs43oDa-KdzZeNtuy" name="NoTypes">
    <mxGraphModel dx="2085" dy="1009" grid="1" gridSize="10" guides="1" tooltips="1" connect="1" arrows="1" fold="1" page="1" pageScale="1" pageWidth="827" pageHeight="1169" math="0" shadow="0">
      <root>
        <mxCell id="WIyWlLk6GJQsqaUBKTNV-0" />
        <mxCell id="WIyWlLk6GJQsqaUBKTNV-1" parent="WIyWlLk6GJQsqaUBKTNV-0" />
        <mxCell id="7j_whqs939myPZ013sxF-181" style="edgeStyle=orthogonalEdgeStyle;shape=connector;rounded=1;orthogonalLoop=1;jettySize=auto;elbow=vertical;html=1;shadow=0;strokeColor=default;strokeWidth=1;align=center;verticalAlign=middle;fontFamily=Helvetica;fontSize=11;fontColor=default;labelBackgroundColor=default;endArrow=open;endFill=0;endSize=6;startArrow=diamondThin;startFill=0;" edge="1" parent="WIyWlLk6GJQsqaUBKTNV-1" source="7j_whqs939myPZ013sxF-203" target="7j_whqs939myPZ013sxF-356">
          <mxGeometry relative="1" as="geometry">
            <Array as="points">
              <mxPoint x="490" y="671" />
            </Array>
            <mxPoint x="520" y="479.9999999999998" as="targetPoint" />
          </mxGeometry>
        </mxCell>
        <mxCell id="7j_whqs939myPZ013sxF-182" value="1" style="edgeLabel;html=1;align=center;verticalAlign=middle;resizable=0;points=[];fontFamily=Helvetica;fontSize=11;fontColor=default;labelBackgroundColor=default;" vertex="1" connectable="0" parent="7j_whqs939myPZ013sxF-181">
          <mxGeometry x="-0.9597" y="2" relative="1" as="geometry">
            <mxPoint x="6" y="-12" as="offset" />
          </mxGeometry>
        </mxCell>
        <mxCell id="7j_whqs939myPZ013sxF-183" value="&lt;span style=&quot;font-weight: normal;&quot;&gt;&amp;lt;&amp;lt;interface&amp;gt;&amp;gt;&lt;/span&gt;&lt;br&gt;Display" style="swimlane;fontStyle=3;align=center;verticalAlign=top;childLayout=stackLayout;horizontal=1;startSize=40;horizontalStack=0;resizeParent=1;resizeLast=0;collapsible=1;marginBottom=0;rounded=0;shadow=0;strokeWidth=1;html=1;" vertex="1" parent="WIyWlLk6GJQsqaUBKTNV-1">
          <mxGeometry x="665" y="60" width="270" height="456" as="geometry">
            <mxRectangle x="230" y="140" width="160" height="26" as="alternateBounds" />
          </mxGeometry>
        </mxCell>
        <mxCell id="7j_whqs939myPZ013sxF-184" value="displayStream(): void" style="text;align=left;verticalAlign=top;spacingLeft=4;spacingRight=4;overflow=hidden;rotatable=0;points=[[0,0.5],[1,0.5]];portConstraint=eastwest;fontStyle=2" vertex="1" parent="7j_whqs939myPZ013sxF-183">
          <mxGeometry y="40" width="270" height="26" as="geometry" />
        </mxCell>
        <mxCell id="7j_whqs939myPZ013sxF-185" value="displayMenu(): void" style="text;align=left;verticalAlign=top;spacingLeft=4;spacingRight=4;overflow=hidden;rotatable=0;points=[[0,0.5],[1,0.5]];portConstraint=eastwest;fontStyle=2" vertex="1" parent="7j_whqs939myPZ013sxF-183">
          <mxGeometry y="66" width="270" height="26" as="geometry" />
        </mxCell>
        <mxCell id="7j_whqs939myPZ013sxF-186" value="displayError(message): void" style="text;align=left;verticalAlign=top;spacingLeft=4;spacingRight=4;overflow=hidden;rotatable=0;points=[[0,0.5],[1,0.5]];portConstraint=eastwest;fontStyle=2" vertex="1" parent="7j_whqs939myPZ013sxF-183">
          <mxGeometry y="92" width="270" height="26" as="geometry" />
        </mxCell>
        <mxCell id="7j_whqs939myPZ013sxF-187" value="getSupportedInterfaces(): List&lt;VideoInterface&gt;" style="text;align=left;verticalAlign=top;spacingLeft=4;spacingRight=4;overflow=hidden;rotatable=0;points=[[0,0.5],[1,0.5]];portConstraint=eastwest;fontStyle=2" vertex="1" parent="7j_whqs939myPZ013sxF-183">
          <mxGeometry y="118" width="270" height="26" as="geometry" />
        </mxCell>
        <mxCell id="7j_whqs939myPZ013sxF-188" value="setBrightness(newBrightness): void" style="text;align=left;verticalAlign=top;spacingLeft=4;spacingRight=4;overflow=hidden;rotatable=0;points=[[0,0.5],[1,0.5]];portConstraint=eastwest;fontStyle=2" vertex="1" parent="7j_whqs939myPZ013sxF-183">
          <mxGeometry y="144" width="270" height="26" as="geometry" />
        </mxCell>
        <mxCell id="7j_whqs939myPZ013sxF-189" value="getBrightness(): double" style="text;align=left;verticalAlign=top;spacingLeft=4;spacingRight=4;overflow=hidden;rotatable=0;points=[[0,0.5],[1,0.5]];portConstraint=eastwest;fontStyle=2" vertex="1" parent="7j_whqs939myPZ013sxF-183">
          <mxGeometry y="170" width="270" height="26" as="geometry" />
        </mxCell>
        <mxCell id="7j_whqs939myPZ013sxF-190" value="setColorTemperature(newTemperature): void" style="text;align=left;verticalAlign=top;spacingLeft=4;spacingRight=4;overflow=hidden;rotatable=0;points=[[0,0.5],[1,0.5]];portConstraint=eastwest;fontStyle=2" vertex="1" parent="7j_whqs939myPZ013sxF-183">
          <mxGeometry y="196" width="270" height="26" as="geometry" />
        </mxCell>
        <mxCell id="7j_whqs939myPZ013sxF-191" value="getColorTemperature(): int" style="text;align=left;verticalAlign=top;spacingLeft=4;spacingRight=4;overflow=hidden;rotatable=0;points=[[0,0.5],[1,0.5]];portConstraint=eastwest;fontStyle=2" vertex="1" parent="7j_whqs939myPZ013sxF-183">
          <mxGeometry y="222" width="270" height="26" as="geometry" />
        </mxCell>
        <mxCell id="7j_whqs939myPZ013sxF-192" value="setResolution(resolution): void" style="text;align=left;verticalAlign=top;spacingLeft=4;spacingRight=4;overflow=hidden;rotatable=0;points=[[0,0.5],[1,0.5]];portConstraint=eastwest;fontStyle=2" vertex="1" parent="7j_whqs939myPZ013sxF-183">
          <mxGeometry y="248" width="270" height="26" as="geometry" />
        </mxCell>
        <mxCell id="7j_whqs939myPZ013sxF-193" value="getResolution(): String" style="text;align=left;verticalAlign=top;spacingLeft=4;spacingRight=4;overflow=hidden;rotatable=0;points=[[0,0.5],[1,0.5]];portConstraint=eastwest;fontStyle=2" vertex="1" parent="7j_whqs939myPZ013sxF-183">
          <mxGeometry y="274" width="270" height="26" as="geometry" />
        </mxCell>
        <mxCell id="7j_whqs939myPZ013sxF-194" value="connectInterface(videoInterface): boolean" style="text;align=left;verticalAlign=top;spacingLeft=4;spacingRight=4;overflow=hidden;rotatable=0;points=[[0,0.5],[1,0.5]];portConstraint=eastwest;fontStyle=2" vertex="1" parent="7j_whqs939myPZ013sxF-183">
          <mxGeometry y="300" width="270" height="26" as="geometry" />
        </mxCell>
        <mxCell id="7j_whqs939myPZ013sxF-195" value="disconnectInterface(videoInterface): boolean" style="text;align=left;verticalAlign=top;spacingLeft=4;spacingRight=4;overflow=hidden;rotatable=0;points=[[0,0.5],[1,0.5]];portConstraint=eastwest;fontStyle=2" vertex="1" parent="7j_whqs939myPZ013sxF-183">
          <mxGeometry y="326" width="270" height="26" as="geometry" />
        </mxCell>
        <mxCell id="7j_whqs939myPZ013sxF-196" value="getConnectedInterfaces(): List&lt;VideoInterface&gt;" style="text;align=left;verticalAlign=top;spacingLeft=4;spacingRight=4;overflow=hidden;rotatable=0;points=[[0,0.5],[1,0.5]];portConstraint=eastwest;fontStyle=2" vertex="1" parent="7j_whqs939myPZ013sxF-183">
          <mxGeometry y="352" width="270" height="26" as="geometry" />
        </mxCell>
        <mxCell id="7j_whqs939myPZ013sxF-197" value="selectInputInterface(videoInterface): void" style="text;align=left;verticalAlign=top;spacingLeft=4;spacingRight=4;overflow=hidden;rotatable=0;points=[[0,0.5],[1,0.5]];portConstraint=eastwest;fontStyle=2" vertex="1" parent="7j_whqs939myPZ013sxF-183">
          <mxGeometry y="378" width="270" height="26" as="geometry" />
        </mxCell>
        <mxCell id="7j_whqs939myPZ013sxF-198" value="getSelectedInterface(): VideoInterface" style="text;align=left;verticalAlign=top;spacingLeft=4;spacingRight=4;overflow=hidden;rotatable=0;points=[[0,0.5],[1,0.5]];portConstraint=eastwest;fontStyle=2" vertex="1" parent="7j_whqs939myPZ013sxF-183">
          <mxGeometry y="404" width="270" height="26" as="geometry" />
        </mxCell>
        <mxCell id="7j_whqs939myPZ013sxF-199" value="malfunctionTest(checker): String" style="text;align=left;verticalAlign=top;spacingLeft=4;spacingRight=4;overflow=hidden;rotatable=0;points=[[0,0.5],[1,0.5]];portConstraint=eastwest;fontStyle=2" vertex="1" parent="7j_whqs939myPZ013sxF-183">
          <mxGeometry y="430" width="270" height="26" as="geometry" />
        </mxCell>
        <mxCell id="7j_whqs939myPZ013sxF-200" value="StandardDisplay" style="swimlane;fontStyle=1;align=center;verticalAlign=top;childLayout=stackLayout;horizontal=1;startSize=26;horizontalStack=0;resizeParent=1;resizeLast=0;collapsible=1;marginBottom=0;rounded=0;shadow=0;strokeWidth=1;" vertex="1" parent="WIyWlLk6GJQsqaUBKTNV-1">
          <mxGeometry x="510" y="580" width="280" height="684" as="geometry">
            <mxRectangle x="130" y="380" width="160" height="26" as="alternateBounds" />
          </mxGeometry>
        </mxCell>
        <mxCell id="7j_whqs939myPZ013sxF-201" value="- maxNits: maxNits" style="text;align=left;verticalAlign=top;spacingLeft=4;spacingRight=4;overflow=hidden;rotatable=0;points=[[0,0.5],[1,0.5]];portConstraint=eastwest;" vertex="1" parent="7j_whqs939myPZ013sxF-200">
          <mxGeometry y="26" width="280" height="26" as="geometry" />
        </mxCell>
        <mxCell id="7j_whqs939myPZ013sxF-202" value="- supportedResolutions: List&lt;String&gt;" style="text;align=left;verticalAlign=top;spacingLeft=4;spacingRight=4;overflow=hidden;rotatable=0;points=[[0,0.5],[1,0.5]];portConstraint=eastwest;" vertex="1" parent="7j_whqs939myPZ013sxF-200">
          <mxGeometry y="52" width="280" height="26" as="geometry" />
        </mxCell>
        <mxCell id="7j_whqs939myPZ013sxF-203" value="- channel: StreamSender" style="text;align=left;verticalAlign=top;spacingLeft=4;spacingRight=4;overflow=hidden;rotatable=0;points=[[0,0.5],[1,0.5]];portConstraint=eastwest;" vertex="1" parent="7j_whqs939myPZ013sxF-200">
          <mxGeometry y="78" width="280" height="26" as="geometry" />
        </mxCell>
        <mxCell id="7j_whqs939myPZ013sxF-204" value="- supportedInterfaces: List&lt;VideoInterface&gt;" style="text;align=left;verticalAlign=top;spacingLeft=4;spacingRight=4;overflow=hidden;rotatable=0;points=[[0,0.5],[1,0.5]];portConstraint=eastwest;" vertex="1" parent="7j_whqs939myPZ013sxF-200">
          <mxGeometry y="104" width="280" height="26" as="geometry" />
        </mxCell>
        <mxCell id="7j_whqs939myPZ013sxF-205" value="~ currentNits: int" style="text;align=left;verticalAlign=top;spacingLeft=4;spacingRight=4;overflow=hidden;rotatable=0;points=[[0,0.5],[1,0.5]];portConstraint=eastwest;" vertex="1" parent="7j_whqs939myPZ013sxF-200">
          <mxGeometry y="130" width="280" height="26" as="geometry" />
        </mxCell>
        <mxCell id="7j_whqs939myPZ013sxF-206" value="~ colorTemperature: int" style="text;align=left;verticalAlign=top;spacingLeft=4;spacingRight=4;overflow=hidden;rotatable=0;points=[[0,0.5],[1,0.5]];portConstraint=eastwest;" vertex="1" parent="7j_whqs939myPZ013sxF-200">
          <mxGeometry y="156" width="280" height="26" as="geometry" />
        </mxCell>
        <mxCell id="7j_whqs939myPZ013sxF-207" value="~ resolution: String" style="text;align=left;verticalAlign=top;spacingLeft=4;spacingRight=4;overflow=hidden;rotatable=0;points=[[0,0.5],[1,0.5]];portConstraint=eastwest;" vertex="1" parent="7j_whqs939myPZ013sxF-200">
          <mxGeometry y="182" width="280" height="26" as="geometry" />
        </mxCell>
        <mxCell id="7j_whqs939myPZ013sxF-208" value="~ selectedInterface: Optional&lt;VideoInterface&gt;" style="text;align=left;verticalAlign=top;spacingLeft=4;spacingRight=4;overflow=hidden;rotatable=0;points=[[0,0.5],[1,0.5]];portConstraint=eastwest;" vertex="1" parent="7j_whqs939myPZ013sxF-200">
          <mxGeometry y="208" width="280" height="26" as="geometry" />
        </mxCell>
        <mxCell id="7j_whqs939myPZ013sxF-209" value="~ connectedInterfaces: List&lt;VideoInterface&gt;" style="text;align=left;verticalAlign=top;spacingLeft=4;spacingRight=4;overflow=hidden;rotatable=0;points=[[0,0.5],[1,0.5]];portConstraint=eastwest;" vertex="1" parent="7j_whqs939myPZ013sxF-200">
          <mxGeometry y="234" width="280" height="26" as="geometry" />
        </mxCell>
        <mxCell id="7j_whqs939myPZ013sxF-210" value="" style="line;html=1;strokeWidth=1;align=left;verticalAlign=middle;spacingTop=-1;spacingLeft=3;spacingRight=3;rotatable=0;labelPosition=right;points=[];portConstraint=eastwest;fontStyle=0" vertex="1" parent="7j_whqs939myPZ013sxF-200">
          <mxGeometry y="260" width="280" height="8" as="geometry" />
        </mxCell>
        <mxCell id="X_avZxBRYu3tZ5DNoZOd-43" value="+ displayStream(): void" style="text;align=left;verticalAlign=top;spacingLeft=4;spacingRight=4;overflow=hidden;rotatable=0;points=[[0,0.5],[1,0.5]];portConstraint=eastwest;fontStyle=0" vertex="1" parent="7j_whqs939myPZ013sxF-200">
          <mxGeometry y="268" width="280" height="26" as="geometry" />
        </mxCell>
        <mxCell id="X_avZxBRYu3tZ5DNoZOd-44" value="+ displayMenu(): void" style="text;align=left;verticalAlign=top;spacingLeft=4;spacingRight=4;overflow=hidden;rotatable=0;points=[[0,0.5],[1,0.5]];portConstraint=eastwest;fontStyle=0" vertex="1" parent="7j_whqs939myPZ013sxF-200">
          <mxGeometry y="294" width="280" height="26" as="geometry" />
        </mxCell>
        <mxCell id="X_avZxBRYu3tZ5DNoZOd-45" value="+ displayError(message): void" style="text;align=left;verticalAlign=top;spacingLeft=4;spacingRight=4;overflow=hidden;rotatable=0;points=[[0,0.5],[1,0.5]];portConstraint=eastwest;fontStyle=0" vertex="1" parent="7j_whqs939myPZ013sxF-200">
          <mxGeometry y="320" width="280" height="26" as="geometry" />
        </mxCell>
        <mxCell id="X_avZxBRYu3tZ5DNoZOd-46" value="+ getSupportedInterfaces(): List&lt;VideoInterface&gt;" style="text;align=left;verticalAlign=top;spacingLeft=4;spacingRight=4;overflow=hidden;rotatable=0;points=[[0,0.5],[1,0.5]];portConstraint=eastwest;fontStyle=0" vertex="1" parent="7j_whqs939myPZ013sxF-200">
          <mxGeometry y="346" width="280" height="26" as="geometry" />
        </mxCell>
        <mxCell id="X_avZxBRYu3tZ5DNoZOd-58" value="+ setBrightness(newBrightness): void" style="text;align=left;verticalAlign=top;spacingLeft=4;spacingRight=4;overflow=hidden;rotatable=0;points=[[0,0.5],[1,0.5]];portConstraint=eastwest;fontStyle=0" vertex="1" parent="7j_whqs939myPZ013sxF-200">
          <mxGeometry y="372" width="280" height="26" as="geometry" />
        </mxCell>
        <mxCell id="X_avZxBRYu3tZ5DNoZOd-56" value="+ getBrightness(): double" style="text;align=left;verticalAlign=top;spacingLeft=4;spacingRight=4;overflow=hidden;rotatable=0;points=[[0,0.5],[1,0.5]];portConstraint=eastwest;fontStyle=0" vertex="1" parent="7j_whqs939myPZ013sxF-200">
          <mxGeometry y="398" width="280" height="26" as="geometry" />
        </mxCell>
        <mxCell id="X_avZxBRYu3tZ5DNoZOd-57" value="+ setColorTemperature(newTemperature): void" style="text;align=left;verticalAlign=top;spacingLeft=4;spacingRight=4;overflow=hidden;rotatable=0;points=[[0,0.5],[1,0.5]];portConstraint=eastwest;fontStyle=0" vertex="1" parent="7j_whqs939myPZ013sxF-200">
          <mxGeometry y="424" width="280" height="26" as="geometry" />
        </mxCell>
        <mxCell id="X_avZxBRYu3tZ5DNoZOd-55" value="+ getColorTemperature(): int" style="text;align=left;verticalAlign=top;spacingLeft=4;spacingRight=4;overflow=hidden;rotatable=0;points=[[0,0.5],[1,0.5]];portConstraint=eastwest;fontStyle=0" vertex="1" parent="7j_whqs939myPZ013sxF-200">
          <mxGeometry y="450" width="280" height="26" as="geometry" />
        </mxCell>
        <mxCell id="X_avZxBRYu3tZ5DNoZOd-54" value="+ setResolution(resolution): void" style="text;align=left;verticalAlign=top;spacingLeft=4;spacingRight=4;overflow=hidden;rotatable=0;points=[[0,0.5],[1,0.5]];portConstraint=eastwest;fontStyle=0" vertex="1" parent="7j_whqs939myPZ013sxF-200">
          <mxGeometry y="476" width="280" height="26" as="geometry" />
        </mxCell>
        <mxCell id="X_avZxBRYu3tZ5DNoZOd-53" value="+ getResolution(): String" style="text;align=left;verticalAlign=top;spacingLeft=4;spacingRight=4;overflow=hidden;rotatable=0;points=[[0,0.5],[1,0.5]];portConstraint=eastwest;fontStyle=0" vertex="1" parent="7j_whqs939myPZ013sxF-200">
          <mxGeometry y="502" width="280" height="26" as="geometry" />
        </mxCell>
        <mxCell id="X_avZxBRYu3tZ5DNoZOd-52" value="+ connectInterface(videoInterface): boolean" style="text;align=left;verticalAlign=top;spacingLeft=4;spacingRight=4;overflow=hidden;rotatable=0;points=[[0,0.5],[1,0.5]];portConstraint=eastwest;fontStyle=0" vertex="1" parent="7j_whqs939myPZ013sxF-200">
          <mxGeometry y="528" width="280" height="26" as="geometry" />
        </mxCell>
        <mxCell id="X_avZxBRYu3tZ5DNoZOd-51" value="+ disconnectInterface(videoInterface): boolean" style="text;align=left;verticalAlign=top;spacingLeft=4;spacingRight=4;overflow=hidden;rotatable=0;points=[[0,0.5],[1,0.5]];portConstraint=eastwest;fontStyle=0" vertex="1" parent="7j_whqs939myPZ013sxF-200">
          <mxGeometry y="554" width="280" height="26" as="geometry" />
        </mxCell>
        <mxCell id="X_avZxBRYu3tZ5DNoZOd-50" value="+ getConnectedInterfaces(): List&lt;VideoInterface&gt;" style="text;align=left;verticalAlign=top;spacingLeft=4;spacingRight=4;overflow=hidden;rotatable=0;points=[[0,0.5],[1,0.5]];portConstraint=eastwest;fontStyle=0" vertex="1" parent="7j_whqs939myPZ013sxF-200">
          <mxGeometry y="580" width="280" height="26" as="geometry" />
        </mxCell>
        <mxCell id="X_avZxBRYu3tZ5DNoZOd-49" value="+ selectInputInterface(videoInterface): void" style="text;align=left;verticalAlign=top;spacingLeft=4;spacingRight=4;overflow=hidden;rotatable=0;points=[[0,0.5],[1,0.5]];portConstraint=eastwest;fontStyle=0" vertex="1" parent="7j_whqs939myPZ013sxF-200">
          <mxGeometry y="606" width="280" height="26" as="geometry" />
        </mxCell>
        <mxCell id="X_avZxBRYu3tZ5DNoZOd-48" value="+ getSelectedInterface(): VideoInterface" style="text;align=left;verticalAlign=top;spacingLeft=4;spacingRight=4;overflow=hidden;rotatable=0;points=[[0,0.5],[1,0.5]];portConstraint=eastwest;fontStyle=0" vertex="1" parent="7j_whqs939myPZ013sxF-200">
          <mxGeometry y="632" width="280" height="26" as="geometry" />
        </mxCell>
        <mxCell id="X_avZxBRYu3tZ5DNoZOd-47" value="+ malfunctionTest(checker): String" style="text;align=left;verticalAlign=top;spacingLeft=4;spacingRight=4;overflow=hidden;rotatable=0;points=[[0,0.5],[1,0.5]];portConstraint=eastwest;fontStyle=0" vertex="1" parent="7j_whqs939myPZ013sxF-200">
          <mxGeometry y="658" width="280" height="26" as="geometry" />
        </mxCell>
        <mxCell id="7j_whqs939myPZ013sxF-225" value="" style="endArrow=block;endSize=10;endFill=0;shadow=0;strokeWidth=1;rounded=1;edgeStyle=orthogonalEdgeStyle;elbow=vertical;" edge="1" parent="WIyWlLk6GJQsqaUBKTNV-1" source="7j_whqs939myPZ013sxF-200" target="7j_whqs939myPZ013sxF-183">
          <mxGeometry width="160" relative="1" as="geometry">
            <mxPoint x="710" y="193" as="sourcePoint" />
            <mxPoint x="710" y="193" as="targetPoint" />
          </mxGeometry>
        </mxCell>
        <mxCell id="7j_whqs939myPZ013sxF-226" value="DisplayWithSensorDecorator" style="swimlane;fontStyle=3;align=center;verticalAlign=top;childLayout=stackLayout;horizontal=1;startSize=26;horizontalStack=0;resizeParent=1;resizeLast=0;collapsible=1;marginBottom=0;rounded=0;shadow=0;strokeWidth=1;" vertex="1" parent="WIyWlLk6GJQsqaUBKTNV-1">
          <mxGeometry x="810" y="580" width="280" height="561" as="geometry">
            <mxRectangle x="340" y="380" width="170" height="26" as="alternateBounds" />
          </mxGeometry>
        </mxCell>
        <mxCell id="7j_whqs939myPZ013sxF-227" value="~ component: Display" style="text;align=left;verticalAlign=top;spacingLeft=4;spacingRight=4;overflow=hidden;rotatable=0;points=[[0,0.5],[1,0.5]];portConstraint=eastwest;" vertex="1" parent="7j_whqs939myPZ013sxF-226">
          <mxGeometry y="26" width="280" height="26" as="geometry" />
        </mxCell>
        <mxCell id="7j_whqs939myPZ013sxF-228" value="- sensor: Sensor&lt;T&gt;" style="text;align=left;verticalAlign=top;spacingLeft=4;spacingRight=4;overflow=hidden;rotatable=0;points=[[0,0.5],[1,0.5]];portConstraint=eastwest;" vertex="1" parent="7j_whqs939myPZ013sxF-226">
          <mxGeometry y="52" width="280" height="26" as="geometry" />
        </mxCell>
        <mxCell id="7j_whqs939myPZ013sxF-229" value="" style="line;html=1;strokeWidth=1;align=left;verticalAlign=middle;spacingTop=-1;spacingLeft=3;spacingRight=3;rotatable=0;labelPosition=right;points=[];portConstraint=eastwest;" vertex="1" parent="7j_whqs939myPZ013sxF-226">
          <mxGeometry y="78" width="280" height="8" as="geometry" />
        </mxCell>
        <mxCell id="7j_whqs939myPZ013sxF-230" value="+ displayStream(): void" style="text;align=left;verticalAlign=top;spacingLeft=4;spacingRight=4;overflow=hidden;rotatable=0;points=[[0,0.5],[1,0.5]];portConstraint=eastwest;fontStyle=0" vertex="1" parent="7j_whqs939myPZ013sxF-226">
          <mxGeometry y="86" width="280" height="26" as="geometry" />
        </mxCell>
        <mxCell id="7j_whqs939myPZ013sxF-231" value="+ displayMenu(): void" style="text;align=left;verticalAlign=top;spacingLeft=4;spacingRight=4;overflow=hidden;rotatable=0;points=[[0,0.5],[1,0.5]];portConstraint=eastwest;fontStyle=0" vertex="1" parent="7j_whqs939myPZ013sxF-226">
          <mxGeometry y="112" width="280" height="26" as="geometry" />
        </mxCell>
        <mxCell id="7j_whqs939myPZ013sxF-232" value="+ displayError(message): void" style="text;align=left;verticalAlign=top;spacingLeft=4;spacingRight=4;overflow=hidden;rotatable=0;points=[[0,0.5],[1,0.5]];portConstraint=eastwest;fontStyle=0" vertex="1" parent="7j_whqs939myPZ013sxF-226">
          <mxGeometry y="138" width="280" height="26" as="geometry" />
        </mxCell>
        <mxCell id="X_avZxBRYu3tZ5DNoZOd-13" value="+ getSupportedInterfaces(): List&lt;VideoInterface&gt;" style="text;align=left;verticalAlign=top;spacingLeft=4;spacingRight=4;overflow=hidden;rotatable=0;points=[[0,0.5],[1,0.5]];portConstraint=eastwest;fontStyle=0" vertex="1" parent="7j_whqs939myPZ013sxF-226">
          <mxGeometry y="164" width="280" height="26" as="geometry" />
        </mxCell>
        <mxCell id="X_avZxBRYu3tZ5DNoZOd-25" value="+ malfunctionTest(checker): String" style="text;align=left;verticalAlign=top;spacingLeft=4;spacingRight=4;overflow=hidden;rotatable=0;points=[[0,0.5],[1,0.5]];portConstraint=eastwest;fontStyle=0" vertex="1" parent="7j_whqs939myPZ013sxF-226">
          <mxGeometry y="190" width="280" height="26" as="geometry" />
        </mxCell>
        <mxCell id="X_avZxBRYu3tZ5DNoZOd-24" value="+ getSelectedInterface(): VideoInterface" style="text;align=left;verticalAlign=top;spacingLeft=4;spacingRight=4;overflow=hidden;rotatable=0;points=[[0,0.5],[1,0.5]];portConstraint=eastwest;fontStyle=0" vertex="1" parent="7j_whqs939myPZ013sxF-226">
          <mxGeometry y="216" width="280" height="26" as="geometry" />
        </mxCell>
        <mxCell id="X_avZxBRYu3tZ5DNoZOd-23" value="+ selectInputInterface(videoInterface): void" style="text;align=left;verticalAlign=top;spacingLeft=4;spacingRight=4;overflow=hidden;rotatable=0;points=[[0,0.5],[1,0.5]];portConstraint=eastwest;fontStyle=0" vertex="1" parent="7j_whqs939myPZ013sxF-226">
          <mxGeometry y="242" width="280" height="26" as="geometry" />
        </mxCell>
        <mxCell id="X_avZxBRYu3tZ5DNoZOd-22" value="+ getConnectedInterfaces(): List&lt;VideoInterface&gt;" style="text;align=left;verticalAlign=top;spacingLeft=4;spacingRight=4;overflow=hidden;rotatable=0;points=[[0,0.5],[1,0.5]];portConstraint=eastwest;fontStyle=0" vertex="1" parent="7j_whqs939myPZ013sxF-226">
          <mxGeometry y="268" width="280" height="26" as="geometry" />
        </mxCell>
        <mxCell id="X_avZxBRYu3tZ5DNoZOd-21" value="+ disconnectInterface(videoInterface): boolean" style="text;align=left;verticalAlign=top;spacingLeft=4;spacingRight=4;overflow=hidden;rotatable=0;points=[[0,0.5],[1,0.5]];portConstraint=eastwest;fontStyle=0" vertex="1" parent="7j_whqs939myPZ013sxF-226">
          <mxGeometry y="294" width="280" height="26" as="geometry" />
        </mxCell>
        <mxCell id="X_avZxBRYu3tZ5DNoZOd-20" value="+ connectInterface(videoInterface): boolean" style="text;align=left;verticalAlign=top;spacingLeft=4;spacingRight=4;overflow=hidden;rotatable=0;points=[[0,0.5],[1,0.5]];portConstraint=eastwest;fontStyle=0" vertex="1" parent="7j_whqs939myPZ013sxF-226">
          <mxGeometry y="320" width="280" height="26" as="geometry" />
        </mxCell>
        <mxCell id="X_avZxBRYu3tZ5DNoZOd-19" value="+ getResolution(): String" style="text;align=left;verticalAlign=top;spacingLeft=4;spacingRight=4;overflow=hidden;rotatable=0;points=[[0,0.5],[1,0.5]];portConstraint=eastwest;fontStyle=0" vertex="1" parent="7j_whqs939myPZ013sxF-226">
          <mxGeometry y="346" width="280" height="26" as="geometry" />
        </mxCell>
        <mxCell id="X_avZxBRYu3tZ5DNoZOd-18" value="+ setResolution(resolution): void" style="text;align=left;verticalAlign=top;spacingLeft=4;spacingRight=4;overflow=hidden;rotatable=0;points=[[0,0.5],[1,0.5]];portConstraint=eastwest;fontStyle=0" vertex="1" parent="7j_whqs939myPZ013sxF-226">
          <mxGeometry y="372" width="280" height="26" as="geometry" />
        </mxCell>
        <mxCell id="X_avZxBRYu3tZ5DNoZOd-17" value="+ getColorTemperature(): int" style="text;align=left;verticalAlign=top;spacingLeft=4;spacingRight=4;overflow=hidden;rotatable=0;points=[[0,0.5],[1,0.5]];portConstraint=eastwest;fontStyle=0" vertex="1" parent="7j_whqs939myPZ013sxF-226">
          <mxGeometry y="398" width="280" height="26" as="geometry" />
        </mxCell>
        <mxCell id="X_avZxBRYu3tZ5DNoZOd-15" value="+ getBrightness(): double" style="text;align=left;verticalAlign=top;spacingLeft=4;spacingRight=4;overflow=hidden;rotatable=0;points=[[0,0.5],[1,0.5]];portConstraint=eastwest;fontStyle=0" vertex="1" parent="7j_whqs939myPZ013sxF-226">
          <mxGeometry y="424" width="280" height="26" as="geometry" />
        </mxCell>
        <mxCell id="X_avZxBRYu3tZ5DNoZOd-16" value="+ setColorTemperature(newTemperature): void" style="text;align=left;verticalAlign=top;spacingLeft=4;spacingRight=4;overflow=hidden;rotatable=0;points=[[0,0.5],[1,0.5]];portConstraint=eastwest;fontStyle=0" vertex="1" parent="7j_whqs939myPZ013sxF-226">
          <mxGeometry y="450" width="280" height="26" as="geometry" />
        </mxCell>
        <mxCell id="X_avZxBRYu3tZ5DNoZOd-14" value="+ setBrightness(newBrightness): void" style="text;align=left;verticalAlign=top;spacingLeft=4;spacingRight=4;overflow=hidden;rotatable=0;points=[[0,0.5],[1,0.5]];portConstraint=eastwest;fontStyle=0" vertex="1" parent="7j_whqs939myPZ013sxF-226">
          <mxGeometry y="476" width="280" height="26" as="geometry" />
        </mxCell>
        <mxCell id="7j_whqs939myPZ013sxF-244" value="+ setBestConfiguration(): void" style="text;align=left;verticalAlign=top;spacingLeft=4;spacingRight=4;overflow=hidden;rotatable=0;points=[[0,0.5],[1,0.5]];portConstraint=eastwest;fontStyle=0" vertex="1" parent="7j_whqs939myPZ013sxF-226">
          <mxGeometry y="502" width="280" height="29" as="geometry" />
        </mxCell>
        <mxCell id="7j_whqs939myPZ013sxF-245" value="# setValue(measure): void" style="text;align=left;verticalAlign=top;spacingLeft=4;spacingRight=4;overflow=hidden;rotatable=0;points=[[0,0.5],[1,0.5]];portConstraint=eastwest;fontStyle=0" vertex="1" parent="7j_whqs939myPZ013sxF-226">
          <mxGeometry y="531" width="280" height="30" as="geometry" />
        </mxCell>
        <mxCell id="7j_whqs939myPZ013sxF-246" value="" style="endArrow=block;endSize=10;endFill=0;shadow=0;strokeWidth=1;rounded=1;edgeStyle=orthogonalEdgeStyle;elbow=vertical;" edge="1" parent="WIyWlLk6GJQsqaUBKTNV-1" source="7j_whqs939myPZ013sxF-226" target="7j_whqs939myPZ013sxF-183">
          <mxGeometry width="160" relative="1" as="geometry">
            <mxPoint x="720" y="363" as="sourcePoint" />
            <mxPoint x="820" y="261" as="targetPoint" />
          </mxGeometry>
        </mxCell>
        <mxCell id="7j_whqs939myPZ013sxF-247" value="" style="endArrow=open;shadow=0;strokeWidth=1;rounded=1;endFill=1;edgeStyle=orthogonalEdgeStyle;elbow=vertical;" edge="1" parent="WIyWlLk6GJQsqaUBKTNV-1" source="7j_whqs939myPZ013sxF-199" target="7j_whqs939myPZ013sxF-285">
          <mxGeometry x="0.5" y="41" relative="1" as="geometry">
            <mxPoint x="890" y="182" as="sourcePoint" />
            <mxPoint x="1018" y="217.79999999999995" as="targetPoint" />
            <mxPoint x="-40" y="32" as="offset" />
            <Array as="points">
              <mxPoint x="950" y="503" />
              <mxPoint x="950" y="310" />
            </Array>
          </mxGeometry>
        </mxCell>
        <mxCell id="7j_whqs939myPZ013sxF-248" style="edgeStyle=orthogonalEdgeStyle;shape=connector;rounded=1;orthogonalLoop=1;jettySize=auto;elbow=vertical;html=1;shadow=0;strokeColor=default;strokeWidth=1;align=center;verticalAlign=middle;fontFamily=Helvetica;fontSize=11;fontColor=default;labelBackgroundColor=default;endArrow=block;endFill=0;endSize=10;" edge="1" parent="WIyWlLk6GJQsqaUBKTNV-1" source="7j_whqs939myPZ013sxF-249" target="7j_whqs939myPZ013sxF-226">
          <mxGeometry relative="1" as="geometry">
            <Array as="points">
              <mxPoint x="950" y="1210" />
              <mxPoint x="950" y="1210" />
            </Array>
          </mxGeometry>
        </mxCell>
        <mxCell id="7j_whqs939myPZ013sxF-249" value="DisplayWithBrightnessSensorDecorator" style="swimlane;fontStyle=1;align=center;verticalAlign=top;childLayout=stackLayout;horizontal=1;startSize=26;horizontalStack=0;resizeParent=1;resizeLast=0;collapsible=1;marginBottom=0;rounded=0;shadow=0;strokeWidth=1;" vertex="1" parent="WIyWlLk6GJQsqaUBKTNV-1">
          <mxGeometry x="800" y="1270" width="300" height="150" as="geometry">
            <mxRectangle x="340" y="380" width="170" height="26" as="alternateBounds" />
          </mxGeometry>
        </mxCell>
        <mxCell id="7j_whqs939myPZ013sxF-250" value="- DEFAULT_SATURATION_LUX: Double = 10000.0 lx" style="text;align=left;verticalAlign=top;spacingLeft=4;spacingRight=4;overflow=hidden;rotatable=0;points=[[0,0.5],[1,0.5]];portConstraint=eastwest;fontStyle=4" vertex="1" parent="7j_whqs939myPZ013sxF-249">
          <mxGeometry y="26" width="300" height="26" as="geometry" />
        </mxCell>
        <mxCell id="7j_whqs939myPZ013sxF-251" value="- saturationLuxAmount: Double" style="text;align=left;verticalAlign=top;spacingLeft=4;spacingRight=4;overflow=hidden;rotatable=0;points=[[0,0.5],[1,0.5]];portConstraint=eastwest;" vertex="1" parent="7j_whqs939myPZ013sxF-249">
          <mxGeometry y="52" width="300" height="26" as="geometry" />
        </mxCell>
        <mxCell id="7j_whqs939myPZ013sxF-252" value="" style="line;html=1;strokeWidth=1;align=left;verticalAlign=middle;spacingTop=-1;spacingLeft=3;spacingRight=3;rotatable=0;labelPosition=right;points=[];portConstraint=eastwest;" vertex="1" parent="7j_whqs939myPZ013sxF-249">
          <mxGeometry y="78" width="300" height="8" as="geometry" />
        </mxCell>
        <mxCell id="7j_whqs939myPZ013sxF-253" value="# setValue(measure): void" style="text;align=left;verticalAlign=top;spacingLeft=4;spacingRight=4;overflow=hidden;rotatable=0;points=[[0,0.5],[1,0.5]];portConstraint=eastwest;fontStyle=0" vertex="1" parent="7j_whqs939myPZ013sxF-249">
          <mxGeometry y="86" width="300" height="29" as="geometry" />
        </mxCell>
        <mxCell id="7j_whqs939myPZ013sxF-254" value="- calculateBrightness(measure): double" style="text;align=left;verticalAlign=top;spacingLeft=4;spacingRight=4;overflow=hidden;rotatable=0;points=[[0,0.5],[1,0.5]];portConstraint=eastwest;fontStyle=0" vertex="1" parent="7j_whqs939myPZ013sxF-249">
          <mxGeometry y="115" width="300" height="29" as="geometry" />
        </mxCell>
        <mxCell id="7j_whqs939myPZ013sxF-255" style="edgeStyle=orthogonalEdgeStyle;shape=connector;rounded=1;orthogonalLoop=1;jettySize=auto;elbow=vertical;html=1;shadow=0;strokeColor=default;strokeWidth=1;align=center;verticalAlign=middle;fontFamily=Helvetica;fontSize=11;fontColor=default;labelBackgroundColor=default;endArrow=block;endFill=0;endSize=10;" edge="1" parent="WIyWlLk6GJQsqaUBKTNV-1" source="7j_whqs939myPZ013sxF-256" target="7j_whqs939myPZ013sxF-245">
          <mxGeometry relative="1" as="geometry">
            <Array as="points">
              <mxPoint x="1250" y="1230" />
              <mxPoint x="950" y="1230" />
            </Array>
          </mxGeometry>
        </mxCell>
        <mxCell id="7j_whqs939myPZ013sxF-256" value="DisplayWithClockDecorator" style="swimlane;fontStyle=1;align=center;verticalAlign=top;childLayout=stackLayout;horizontal=1;startSize=26;horizontalStack=0;resizeParent=1;resizeLast=0;collapsible=1;marginBottom=0;rounded=0;shadow=0;strokeWidth=1;" vertex="1" parent="WIyWlLk6GJQsqaUBKTNV-1">
          <mxGeometry x="1160" y="1280" width="180" height="122" as="geometry">
            <mxRectangle x="340" y="380" width="170" height="26" as="alternateBounds" />
          </mxGeometry>
        </mxCell>
        <mxCell id="7j_whqs939myPZ013sxF-257" value="- DAY_COLOR: int = 5" style="text;align=left;verticalAlign=top;spacingLeft=4;spacingRight=4;overflow=hidden;rotatable=0;points=[[0,0.5],[1,0.5]];portConstraint=eastwest;fontStyle=4" vertex="1" parent="7j_whqs939myPZ013sxF-256">
          <mxGeometry y="26" width="180" height="29" as="geometry" />
        </mxCell>
        <mxCell id="7j_whqs939myPZ013sxF-258" value="- NIGHT_COLOR: int = 5" style="text;align=left;verticalAlign=top;spacingLeft=4;spacingRight=4;overflow=hidden;rotatable=0;points=[[0,0.5],[1,0.5]];portConstraint=eastwest;fontStyle=4" vertex="1" parent="7j_whqs939myPZ013sxF-256">
          <mxGeometry y="55" width="180" height="29" as="geometry" />
        </mxCell>
        <mxCell id="7j_whqs939myPZ013sxF-259" value="" style="line;html=1;strokeWidth=1;align=left;verticalAlign=middle;spacingTop=-1;spacingLeft=3;spacingRight=3;rotatable=0;labelPosition=right;points=[];portConstraint=eastwest;" vertex="1" parent="7j_whqs939myPZ013sxF-256">
          <mxGeometry y="84" width="180" height="8" as="geometry" />
        </mxCell>
        <mxCell id="7j_whqs939myPZ013sxF-260" value="# setValue(measure): void" style="text;align=left;verticalAlign=top;spacingLeft=4;spacingRight=4;overflow=hidden;rotatable=0;points=[[0,0.5],[1,0.5]];portConstraint=eastwest;fontStyle=0" vertex="1" parent="7j_whqs939myPZ013sxF-256">
          <mxGeometry y="92" width="180" height="29" as="geometry" />
        </mxCell>
        <mxCell id="7j_whqs939myPZ013sxF-261" value=" " style="text;align=left;verticalAlign=top;spacingLeft=4;spacingRight=4;overflow=hidden;rotatable=0;points=[[0,0.5],[1,0.5]];portConstraint=eastwest;fontStyle=0" vertex="1" parent="7j_whqs939myPZ013sxF-256">
          <mxGeometry y="121" width="180" height="1" as="geometry" />
        </mxCell>
        <mxCell id="7j_whqs939myPZ013sxF-262" value="&lt;span style=&quot;font-weight: normal;&quot;&gt;&amp;lt;&amp;lt;interface&amp;gt;&amp;gt;&lt;/span&gt;&lt;br&gt;Sensor" style="swimlane;fontStyle=3;align=center;verticalAlign=top;childLayout=stackLayout;horizontal=1;startSize=40;horizontalStack=0;resizeParent=1;resizeLast=0;collapsible=1;marginBottom=0;rounded=0;shadow=0;strokeWidth=1;html=1;" vertex="1" parent="WIyWlLk6GJQsqaUBKTNV-1">
          <mxGeometry x="1110" y="680" width="180" height="70" as="geometry">
            <mxRectangle x="230" y="140" width="160" height="26" as="alternateBounds" />
          </mxGeometry>
        </mxCell>
        <mxCell id="7j_whqs939myPZ013sxF-263" value="getMeasure(): T" style="text;align=left;verticalAlign=top;spacingLeft=4;spacingRight=4;overflow=hidden;rotatable=0;points=[[0,0.5],[1,0.5]];portConstraint=eastwest;fontStyle=2" vertex="1" parent="7j_whqs939myPZ013sxF-262">
          <mxGeometry y="40" width="180" height="26" as="geometry" />
        </mxCell>
        <mxCell id="7j_whqs939myPZ013sxF-264" style="edgeStyle=orthogonalEdgeStyle;shape=connector;rounded=1;orthogonalLoop=1;jettySize=auto;elbow=vertical;html=1;shadow=0;strokeColor=default;strokeWidth=1;align=center;verticalAlign=middle;fontFamily=Helvetica;fontSize=11;fontColor=default;labelBackgroundColor=default;startArrow=diamondThin;startFill=0;endArrow=open;endFill=0;endSize=6;curved=0;" edge="1" parent="WIyWlLk6GJQsqaUBKTNV-1" source="7j_whqs939myPZ013sxF-228" target="7j_whqs939myPZ013sxF-262">
          <mxGeometry relative="1" as="geometry">
            <Array as="points" />
          </mxGeometry>
        </mxCell>
        <mxCell id="7j_whqs939myPZ013sxF-265" value="1" style="edgeLabel;html=1;align=center;verticalAlign=middle;resizable=0;points=[];fontFamily=Helvetica;fontSize=11;fontColor=default;labelBackgroundColor=default;" vertex="1" connectable="0" parent="7j_whqs939myPZ013sxF-264">
          <mxGeometry x="-0.9665" relative="1" as="geometry">
            <mxPoint x="3" y="-10" as="offset" />
          </mxGeometry>
        </mxCell>
        <mxCell id="7j_whqs939myPZ013sxF-266" value="VideoInterface" style="swimlane;fontStyle=1;align=center;verticalAlign=top;childLayout=stackLayout;horizontal=1;startSize=26;horizontalStack=0;resizeParent=1;resizeLast=0;collapsible=1;marginBottom=0;rounded=0;shadow=0;strokeWidth=1;" vertex="1" parent="WIyWlLk6GJQsqaUBKTNV-1">
          <mxGeometry x="300" y="940" width="180" height="270" as="geometry">
            <mxRectangle x="130" y="380" width="160" height="26" as="alternateBounds" />
          </mxGeometry>
        </mxCell>
        <mxCell id="7j_whqs939myPZ013sxF-267" value="- name: String" style="text;align=left;verticalAlign=top;spacingLeft=4;spacingRight=4;overflow=hidden;rotatable=0;points=[[0,0.5],[1,0.5]];portConstraint=eastwest;" vertex="1" parent="7j_whqs939myPZ013sxF-266">
          <mxGeometry y="26" width="180" height="26" as="geometry" />
        </mxCell>
        <mxCell id="7j_whqs939myPZ013sxF-268" value="- version: String" style="text;align=left;verticalAlign=top;spacingLeft=4;spacingRight=4;overflow=hidden;rotatable=0;points=[[0,0.5],[1,0.5]];portConstraint=eastwest;" vertex="1" parent="7j_whqs939myPZ013sxF-266">
          <mxGeometry y="52" width="180" height="26" as="geometry" />
        </mxCell>
        <mxCell id="7j_whqs939myPZ013sxF-269" value="- channel: StreamReciver" style="text;align=left;verticalAlign=top;spacingLeft=4;spacingRight=4;overflow=hidden;rotatable=0;points=[[0,0.5],[1,0.5]];portConstraint=eastwest;" vertex="1" parent="7j_whqs939myPZ013sxF-266">
          <mxGeometry y="78" width="180" height="26" as="geometry" />
        </mxCell>
        <mxCell id="7j_whqs939myPZ013sxF-270" value="" style="line;html=1;strokeWidth=1;align=left;verticalAlign=middle;spacingTop=-1;spacingLeft=3;spacingRight=3;rotatable=0;labelPosition=right;points=[];portConstraint=eastwest;fontStyle=0" vertex="1" parent="7j_whqs939myPZ013sxF-266">
          <mxGeometry y="104" width="180" height="8" as="geometry" />
        </mxCell>
        <mxCell id="7j_whqs939myPZ013sxF-271" value="+ getName(): String" style="text;align=left;verticalAlign=top;spacingLeft=4;spacingRight=4;overflow=hidden;rotatable=0;points=[[0,0.5],[1,0.5]];portConstraint=eastwest;fontStyle=0" vertex="1" parent="7j_whqs939myPZ013sxF-266">
          <mxGeometry y="112" width="180" height="26" as="geometry" />
        </mxCell>
        <mxCell id="7j_whqs939myPZ013sxF-272" value="+ getVersion(): String" style="text;align=left;verticalAlign=top;spacingLeft=4;spacingRight=4;overflow=hidden;rotatable=0;points=[[0,0.5],[1,0.5]];portConstraint=eastwest;fontStyle=0" vertex="1" parent="7j_whqs939myPZ013sxF-266">
          <mxGeometry y="138" width="180" height="26" as="geometry" />
        </mxCell>
        <mxCell id="7j_whqs939myPZ013sxF-273" value="+ equals(other): boolean" style="text;align=left;verticalAlign=top;spacingLeft=4;spacingRight=4;overflow=hidden;rotatable=0;points=[[0,0.5],[1,0.5]];portConstraint=eastwest;fontStyle=0" vertex="1" parent="7j_whqs939myPZ013sxF-266">
          <mxGeometry y="164" width="180" height="26" as="geometry" />
        </mxCell>
        <mxCell id="7j_whqs939myPZ013sxF-274" value="+ hashCode(): int" style="text;align=left;verticalAlign=top;spacingLeft=4;spacingRight=4;overflow=hidden;rotatable=0;points=[[0,0.5],[1,0.5]];portConstraint=eastwest;fontStyle=0" vertex="1" parent="7j_whqs939myPZ013sxF-266">
          <mxGeometry y="190" width="180" height="26" as="geometry" />
        </mxCell>
        <mxCell id="7j_whqs939myPZ013sxF-275" value="+ toString(): String" style="text;align=left;verticalAlign=top;spacingLeft=4;spacingRight=4;overflow=hidden;rotatable=0;points=[[0,0.5],[1,0.5]];portConstraint=eastwest;fontStyle=0" vertex="1" parent="7j_whqs939myPZ013sxF-266">
          <mxGeometry y="216" width="180" height="26" as="geometry" />
        </mxCell>
        <mxCell id="7j_whqs939myPZ013sxF-276" value="+ getStream(): VideoStream" style="text;align=left;verticalAlign=top;spacingLeft=4;spacingRight=4;overflow=hidden;rotatable=0;points=[[0,0.5],[1,0.5]];portConstraint=eastwest;fontStyle=0" vertex="1" parent="7j_whqs939myPZ013sxF-266">
          <mxGeometry y="242" width="180" height="26" as="geometry" />
        </mxCell>
        <mxCell id="7j_whqs939myPZ013sxF-277" style="edgeStyle=orthogonalEdgeStyle;shape=connector;rounded=1;orthogonalLoop=1;jettySize=auto;elbow=vertical;html=1;shadow=0;strokeColor=default;strokeWidth=1;align=center;verticalAlign=middle;fontFamily=Helvetica;fontSize=11;fontColor=default;labelBackgroundColor=default;startArrow=diamondThin;startFill=0;endArrow=open;endFill=0;endSize=6;curved=0;" edge="1" parent="WIyWlLk6GJQsqaUBKTNV-1" source="7j_whqs939myPZ013sxF-204" target="7j_whqs939myPZ013sxF-266">
          <mxGeometry relative="1" as="geometry">
            <Array as="points">
              <mxPoint x="470" y="700" />
              <mxPoint x="470" y="800" />
              <mxPoint x="360" y="800" />
            </Array>
          </mxGeometry>
        </mxCell>
        <mxCell id="7j_whqs939myPZ013sxF-278" value="0..*" style="edgeLabel;html=1;align=center;verticalAlign=middle;resizable=0;points=[];fontFamily=Helvetica;fontSize=11;fontColor=default;labelBackgroundColor=default;" vertex="1" connectable="0" parent="7j_whqs939myPZ013sxF-277">
          <mxGeometry x="-0.96" relative="1" as="geometry">
            <mxPoint x="-7" y="-11" as="offset" />
          </mxGeometry>
        </mxCell>
        <mxCell id="7j_whqs939myPZ013sxF-279" style="edgeStyle=orthogonalEdgeStyle;shape=connector;rounded=1;orthogonalLoop=1;jettySize=auto;elbow=vertical;html=1;shadow=0;strokeColor=default;strokeWidth=1;align=center;verticalAlign=middle;fontFamily=Helvetica;fontSize=11;fontColor=default;labelBackgroundColor=default;startArrow=diamondThin;startFill=0;endArrow=open;endFill=0;endSize=6;curved=0;" edge="1" parent="WIyWlLk6GJQsqaUBKTNV-1" source="7j_whqs939myPZ013sxF-209" target="7j_whqs939myPZ013sxF-266">
          <mxGeometry relative="1" as="geometry">
            <Array as="points">
              <mxPoint x="490" y="827" />
              <mxPoint x="490" y="880" />
              <mxPoint x="420" y="880" />
            </Array>
          </mxGeometry>
        </mxCell>
        <mxCell id="7j_whqs939myPZ013sxF-280" value="0..*" style="edgeLabel;html=1;align=center;verticalAlign=middle;resizable=0;points=[];fontFamily=Helvetica;fontSize=11;fontColor=default;labelBackgroundColor=default;" vertex="1" connectable="0" parent="7j_whqs939myPZ013sxF-279">
          <mxGeometry x="-0.9305" y="-1" relative="1" as="geometry">
            <mxPoint x="-3" y="-10" as="offset" />
          </mxGeometry>
        </mxCell>
        <mxCell id="7j_whqs939myPZ013sxF-281" style="edgeStyle=orthogonalEdgeStyle;shape=connector;curved=0;rounded=1;orthogonalLoop=1;jettySize=auto;html=1;shadow=0;strokeColor=default;strokeWidth=1;align=center;verticalAlign=middle;fontFamily=Helvetica;fontSize=11;fontColor=default;labelBackgroundColor=default;elbow=vertical;startArrow=diamondThin;startFill=0;endArrow=open;endFill=0;endSize=6;jumpStyle=arc;jumpSize=12;" edge="1" parent="WIyWlLk6GJQsqaUBKTNV-1" source="7j_whqs939myPZ013sxF-227" target="7j_whqs939myPZ013sxF-183">
          <mxGeometry relative="1" as="geometry">
            <Array as="points">
              <mxPoint x="1570" y="619" />
              <mxPoint x="1570" y="80" />
            </Array>
          </mxGeometry>
        </mxCell>
        <mxCell id="7j_whqs939myPZ013sxF-282" value="1" style="edgeLabel;html=1;align=center;verticalAlign=middle;resizable=0;points=[];fontFamily=Helvetica;fontSize=11;fontColor=default;labelBackgroundColor=default;" vertex="1" connectable="0" parent="7j_whqs939myPZ013sxF-281">
          <mxGeometry x="-0.985" y="1" relative="1" as="geometry">
            <mxPoint x="-7" y="-10" as="offset" />
          </mxGeometry>
        </mxCell>
        <mxCell id="7j_whqs939myPZ013sxF-283" style="edgeStyle=orthogonalEdgeStyle;shape=connector;curved=0;rounded=1;orthogonalLoop=1;jettySize=auto;html=1;shadow=0;strokeColor=default;strokeWidth=1;align=center;verticalAlign=middle;fontFamily=Helvetica;fontSize=11;fontColor=default;labelBackgroundColor=default;elbow=vertical;startArrow=diamondThin;startFill=0;endArrow=open;endFill=0;endSize=6;" edge="1" parent="WIyWlLk6GJQsqaUBKTNV-1" source="7j_whqs939myPZ013sxF-208" target="7j_whqs939myPZ013sxF-266">
          <mxGeometry relative="1" as="geometry">
            <Array as="points">
              <mxPoint x="480" y="801" />
              <mxPoint x="480" y="840" />
              <mxPoint x="390" y="840" />
            </Array>
          </mxGeometry>
        </mxCell>
        <mxCell id="7j_whqs939myPZ013sxF-284" value="0..1" style="edgeLabel;html=1;align=center;verticalAlign=middle;resizable=0;points=[];fontFamily=Helvetica;fontSize=11;fontColor=default;labelBackgroundColor=default;" vertex="1" connectable="0" parent="7j_whqs939myPZ013sxF-283">
          <mxGeometry x="-0.9556" relative="1" as="geometry">
            <mxPoint x="-7" y="-10" as="offset" />
          </mxGeometry>
        </mxCell>
        <mxCell id="7j_whqs939myPZ013sxF-285" value="MalfunctionChecker" style="swimlane;fontStyle=3;align=center;verticalAlign=top;childLayout=stackLayout;horizontal=1;startSize=30;horizontalStack=0;resizeParent=1;resizeLast=0;collapsible=1;marginBottom=0;rounded=0;shadow=0;strokeWidth=1;html=1;" vertex="1" parent="WIyWlLk6GJQsqaUBKTNV-1">
          <mxGeometry x="1150" y="292" width="200" height="90" as="geometry">
            <mxRectangle x="230" y="140" width="160" height="26" as="alternateBounds" />
          </mxGeometry>
        </mxCell>
        <mxCell id="7j_whqs939myPZ013sxF-286" value="- nextChecker: MalfunctionChecker" style="text;align=left;verticalAlign=top;spacingLeft=4;spacingRight=4;overflow=hidden;rotatable=0;points=[[0,0.5],[1,0.5]];portConstraint=eastwest;fontStyle=0" vertex="1" parent="7j_whqs939myPZ013sxF-285">
          <mxGeometry y="30" width="200" height="26" as="geometry" />
        </mxCell>
        <mxCell id="7j_whqs939myPZ013sxF-287" value="" style="line;html=1;strokeWidth=1;align=left;verticalAlign=middle;spacingTop=-1;spacingLeft=3;spacingRight=3;rotatable=0;labelPosition=right;points=[];portConstraint=eastwest;" vertex="1" parent="7j_whqs939myPZ013sxF-285">
          <mxGeometry y="56" width="200" height="8" as="geometry" />
        </mxCell>
        <mxCell id="7j_whqs939myPZ013sxF-288" value="+ checkMulfunction(display): String" style="text;align=left;verticalAlign=top;spacingLeft=4;spacingRight=4;overflow=hidden;rotatable=0;points=[[0,0.5],[1,0.5]];portConstraint=eastwest;fontStyle=2" vertex="1" parent="7j_whqs939myPZ013sxF-285">
          <mxGeometry y="64" width="200" height="26" as="geometry" />
        </mxCell>
        <mxCell id="7j_whqs939myPZ013sxF-289" style="edgeStyle=elbowEdgeStyle;shape=connector;curved=0;rounded=1;orthogonalLoop=1;jettySize=auto;elbow=vertical;html=1;shadow=0;strokeColor=default;strokeWidth=1;align=center;verticalAlign=middle;fontFamily=Helvetica;fontSize=11;fontColor=default;labelBackgroundColor=default;endArrow=block;endFill=0;endSize=10;" edge="1" parent="WIyWlLk6GJQsqaUBKTNV-1" source="7j_whqs939myPZ013sxF-290" target="7j_whqs939myPZ013sxF-285">
          <mxGeometry relative="1" as="geometry" />
        </mxCell>
        <mxCell id="7j_whqs939myPZ013sxF-290" value="&lt;span style=&quot;padding: 0px 0px 0px 2px;&quot;&gt;&lt;span style=&quot;white-space-collapse: preserve; background-color: rgb(255, 255, 255); font-style: normal;&quot;&gt;&lt;font style=&quot;font-size: 12px;&quot; face=&quot;Helvetica&quot;&gt;UnexpectedlyChangedResolutionChecker&lt;/font&gt;&lt;/span&gt;&lt;/span&gt;" style="swimlane;fontStyle=3;align=center;verticalAlign=top;childLayout=stackLayout;horizontal=1;startSize=30;horizontalStack=0;resizeParent=1;resizeLast=0;collapsible=1;marginBottom=0;rounded=0;shadow=0;strokeWidth=1;html=1;" vertex="1" parent="WIyWlLk6GJQsqaUBKTNV-1">
          <mxGeometry x="980" y="452" width="260" height="64" as="geometry">
            <mxRectangle x="230" y="140" width="160" height="26" as="alternateBounds" />
          </mxGeometry>
        </mxCell>
        <mxCell id="7j_whqs939myPZ013sxF-291" value="" style="line;html=1;strokeWidth=1;align=left;verticalAlign=middle;spacingTop=-1;spacingLeft=3;spacingRight=3;rotatable=0;labelPosition=right;points=[];portConstraint=eastwest;" vertex="1" parent="7j_whqs939myPZ013sxF-290">
          <mxGeometry y="30" width="260" height="8" as="geometry" />
        </mxCell>
        <mxCell id="7j_whqs939myPZ013sxF-292" value="+ checkMulfunction(display): String" style="text;align=left;verticalAlign=top;spacingLeft=4;spacingRight=4;overflow=hidden;rotatable=0;points=[[0,0.5],[1,0.5]];portConstraint=eastwest;fontStyle=0" vertex="1" parent="7j_whqs939myPZ013sxF-290">
          <mxGeometry y="38" width="260" height="26" as="geometry" />
        </mxCell>
        <mxCell id="7j_whqs939myPZ013sxF-293" style="edgeStyle=elbowEdgeStyle;shape=connector;curved=0;rounded=1;orthogonalLoop=1;jettySize=auto;elbow=vertical;html=1;shadow=0;strokeColor=default;strokeWidth=1;align=center;verticalAlign=middle;fontFamily=Helvetica;fontSize=11;fontColor=default;labelBackgroundColor=default;endArrow=block;endFill=0;endSize=10;" edge="1" parent="WIyWlLk6GJQsqaUBKTNV-1" source="7j_whqs939myPZ013sxF-294" target="7j_whqs939myPZ013sxF-285">
          <mxGeometry relative="1" as="geometry" />
        </mxCell>
        <mxCell id="7j_whqs939myPZ013sxF-294" value="&lt;span style=&quot;padding: 0px 0px 0px 2px;&quot;&gt;&lt;span style=&quot;white-space-collapse: preserve; background-color: rgb(255, 255, 255); font-style: normal;&quot;&gt;&lt;font style=&quot;font-size: 12px;&quot;&gt;UnexpectedlyDisconnectedInterfaceChecker&lt;/font&gt;&lt;/span&gt;&lt;/span&gt;" style="swimlane;fontStyle=3;align=center;verticalAlign=top;childLayout=stackLayout;horizontal=1;startSize=30;horizontalStack=0;resizeParent=1;resizeLast=0;collapsible=1;marginBottom=0;rounded=0;shadow=0;strokeWidth=1;html=1;" vertex="1" parent="WIyWlLk6GJQsqaUBKTNV-1">
          <mxGeometry x="1270" y="452" width="270" height="64" as="geometry">
            <mxRectangle x="230" y="140" width="160" height="26" as="alternateBounds" />
          </mxGeometry>
        </mxCell>
        <mxCell id="7j_whqs939myPZ013sxF-295" value="" style="line;html=1;strokeWidth=1;align=left;verticalAlign=middle;spacingTop=-1;spacingLeft=3;spacingRight=3;rotatable=0;labelPosition=right;points=[];portConstraint=eastwest;" vertex="1" parent="7j_whqs939myPZ013sxF-294">
          <mxGeometry y="30" width="270" height="8" as="geometry" />
        </mxCell>
        <mxCell id="7j_whqs939myPZ013sxF-296" value="+ checkMulfunction(display): String" style="text;align=left;verticalAlign=top;spacingLeft=4;spacingRight=4;overflow=hidden;rotatable=0;points=[[0,0.5],[1,0.5]];portConstraint=eastwest;fontStyle=0" vertex="1" parent="7j_whqs939myPZ013sxF-294">
          <mxGeometry y="38" width="270" height="26" as="geometry" />
        </mxCell>
        <mxCell id="7j_whqs939myPZ013sxF-297" value="VideoStream" style="swimlane;fontStyle=1;align=center;verticalAlign=top;childLayout=stackLayout;horizontal=1;startSize=26;horizontalStack=0;resizeParent=1;resizeLast=0;collapsible=1;marginBottom=0;rounded=0;shadow=0;strokeWidth=1;" vertex="1" parent="WIyWlLk6GJQsqaUBKTNV-1">
          <mxGeometry x="120" y="60" width="180" height="90" as="geometry">
            <mxRectangle x="130" y="380" width="160" height="26" as="alternateBounds" />
          </mxGeometry>
        </mxCell>
        <mxCell id="7j_whqs939myPZ013sxF-298" value="- frames: Iterator&lt;VideoFrame&gt;" style="text;align=left;verticalAlign=top;spacingLeft=4;spacingRight=4;overflow=hidden;rotatable=0;points=[[0,0.5],[1,0.5]];portConstraint=eastwest;" vertex="1" parent="7j_whqs939myPZ013sxF-297">
          <mxGeometry y="26" width="180" height="26" as="geometry" />
        </mxCell>
        <mxCell id="7j_whqs939myPZ013sxF-299" value="" style="line;html=1;strokeWidth=1;align=left;verticalAlign=middle;spacingTop=-1;spacingLeft=3;spacingRight=3;rotatable=0;labelPosition=right;points=[];portConstraint=eastwest;fontStyle=0" vertex="1" parent="7j_whqs939myPZ013sxF-297">
          <mxGeometry y="52" width="180" height="8" as="geometry" />
        </mxCell>
        <mxCell id="7j_whqs939myPZ013sxF-300" value="+ nextFrame(): VideoFrame" style="text;align=left;verticalAlign=top;spacingLeft=4;spacingRight=4;overflow=hidden;rotatable=0;points=[[0,0.5],[1,0.5]];portConstraint=eastwest;fontStyle=0" vertex="1" parent="7j_whqs939myPZ013sxF-297">
          <mxGeometry y="60" width="180" height="26" as="geometry" />
        </mxCell>
        <mxCell id="7j_whqs939myPZ013sxF-301" value="VideoFrame" style="swimlane;fontStyle=3;align=center;verticalAlign=top;childLayout=stackLayout;horizontal=1;startSize=30;horizontalStack=0;resizeParent=1;resizeLast=0;collapsible=1;marginBottom=0;rounded=0;shadow=0;strokeWidth=1;html=1;" vertex="1" parent="WIyWlLk6GJQsqaUBKTNV-1">
          <mxGeometry x="90" y="243" width="240" height="220" as="geometry">
            <mxRectangle x="230" y="140" width="160" height="26" as="alternateBounds" />
          </mxGeometry>
        </mxCell>
        <mxCell id="7j_whqs939myPZ013sxF-302" value="- bottomLeft: Position" style="text;align=left;verticalAlign=top;spacingLeft=4;spacingRight=4;overflow=hidden;rotatable=0;points=[[0,0.5],[1,0.5]];portConstraint=eastwest;fontStyle=0" vertex="1" parent="7j_whqs939myPZ013sxF-301">
          <mxGeometry y="30" width="240" height="26" as="geometry" />
        </mxCell>
        <mxCell id="7j_whqs939myPZ013sxF-303" value="- topRight: Position" style="text;align=left;verticalAlign=top;spacingLeft=4;spacingRight=4;overflow=hidden;rotatable=0;points=[[0,0.5],[1,0.5]];portConstraint=eastwest;fontStyle=0" vertex="1" parent="7j_whqs939myPZ013sxF-301">
          <mxGeometry y="56" width="240" height="26" as="geometry" />
        </mxCell>
        <mxCell id="7j_whqs939myPZ013sxF-304" value="" style="line;html=1;strokeWidth=1;align=left;verticalAlign=middle;spacingTop=-1;spacingLeft=3;spacingRight=3;rotatable=0;labelPosition=right;points=[];portConstraint=eastwest;" vertex="1" parent="7j_whqs939myPZ013sxF-301">
          <mxGeometry y="82" width="240" height="8" as="geometry" />
        </mxCell>
        <mxCell id="7j_whqs939myPZ013sxF-305" value="+ getBottomLeftPosition(): Position" style="text;align=left;verticalAlign=top;spacingLeft=4;spacingRight=4;overflow=hidden;rotatable=0;points=[[0,0.5],[1,0.5]];portConstraint=eastwest;fontStyle=0" vertex="1" parent="7j_whqs939myPZ013sxF-301">
          <mxGeometry y="90" width="240" height="26" as="geometry" />
        </mxCell>
        <mxCell id="7j_whqs939myPZ013sxF-306" value="+ getTopRightPosition(): Position" style="text;align=left;verticalAlign=top;spacingLeft=4;spacingRight=4;overflow=hidden;rotatable=0;points=[[0,0.5],[1,0.5]];portConstraint=eastwest;fontStyle=0" vertex="1" parent="7j_whqs939myPZ013sxF-301">
          <mxGeometry y="116" width="240" height="26" as="geometry" />
        </mxCell>
        <mxCell id="7j_whqs939myPZ013sxF-307" value="+ setBottomLeftPosition(position): void" style="text;align=left;verticalAlign=top;spacingLeft=4;spacingRight=4;overflow=hidden;rotatable=0;points=[[0,0.5],[1,0.5]];portConstraint=eastwest;fontStyle=0" vertex="1" parent="7j_whqs939myPZ013sxF-301">
          <mxGeometry y="142" width="240" height="26" as="geometry" />
        </mxCell>
        <mxCell id="7j_whqs939myPZ013sxF-308" value="+ setTopRightPosition(position): void" style="text;align=left;verticalAlign=top;spacingLeft=4;spacingRight=4;overflow=hidden;rotatable=0;points=[[0,0.5],[1,0.5]];portConstraint=eastwest;fontStyle=0" vertex="1" parent="7j_whqs939myPZ013sxF-301">
          <mxGeometry y="168" width="240" height="26" as="geometry" />
        </mxCell>
        <mxCell id="7j_whqs939myPZ013sxF-309" value="+ getData(): byte[]" style="text;align=left;verticalAlign=top;spacingLeft=4;spacingRight=4;overflow=hidden;rotatable=0;points=[[0,0.5],[1,0.5]];portConstraint=eastwest;fontStyle=2" vertex="1" parent="7j_whqs939myPZ013sxF-301">
          <mxGeometry y="194" width="240" height="26" as="geometry" />
        </mxCell>
        <mxCell id="7j_whqs939myPZ013sxF-310" style="edgeStyle=orthogonalEdgeStyle;shape=connector;curved=0;rounded=1;orthogonalLoop=1;jettySize=auto;html=1;shadow=0;strokeColor=default;strokeWidth=1;align=center;verticalAlign=middle;fontFamily=Helvetica;fontSize=11;fontColor=default;labelBackgroundColor=default;elbow=vertical;startArrow=none;startFill=0;endArrow=open;endFill=0;endSize=6;" edge="1" parent="WIyWlLk6GJQsqaUBKTNV-1" source="7j_whqs939myPZ013sxF-300" target="7j_whqs939myPZ013sxF-301">
          <mxGeometry relative="1" as="geometry">
            <Array as="points">
              <mxPoint x="70" y="133" />
              <mxPoint x="70" y="260" />
            </Array>
          </mxGeometry>
        </mxCell>
        <mxCell id="7j_whqs939myPZ013sxF-311" style="edgeStyle=orthogonalEdgeStyle;shape=connector;rounded=1;orthogonalLoop=1;jettySize=auto;html=1;shadow=0;strokeColor=default;strokeWidth=1;align=center;verticalAlign=middle;fontFamily=Helvetica;fontSize=11;fontColor=default;labelBackgroundColor=default;elbow=vertical;endArrow=block;endFill=0;endSize=10;" edge="1" parent="WIyWlLk6GJQsqaUBKTNV-1" source="7j_whqs939myPZ013sxF-312" target="7j_whqs939myPZ013sxF-301">
          <mxGeometry relative="1" as="geometry" />
        </mxCell>
        <mxCell id="7j_whqs939myPZ013sxF-312" value="&lt;span style=&quot;font-style: normal;&quot;&gt;SimpleFrame&lt;/span&gt;" style="swimlane;fontStyle=3;align=center;verticalAlign=top;childLayout=stackLayout;horizontal=1;startSize=30;horizontalStack=0;resizeParent=1;resizeLast=0;collapsible=1;marginBottom=0;rounded=0;shadow=0;strokeWidth=1;html=1;" vertex="1" parent="WIyWlLk6GJQsqaUBKTNV-1">
          <mxGeometry x="-20" y="530" width="190" height="92" as="geometry">
            <mxRectangle x="230" y="140" width="160" height="26" as="alternateBounds" />
          </mxGeometry>
        </mxCell>
        <mxCell id="7j_whqs939myPZ013sxF-313" value="- data: byte[]" style="text;align=left;verticalAlign=top;spacingLeft=4;spacingRight=4;overflow=hidden;rotatable=0;points=[[0,0.5],[1,0.5]];portConstraint=eastwest;fontStyle=0" vertex="1" parent="7j_whqs939myPZ013sxF-312">
          <mxGeometry y="30" width="190" height="26" as="geometry" />
        </mxCell>
        <mxCell id="7j_whqs939myPZ013sxF-314" value="" style="line;html=1;strokeWidth=1;align=left;verticalAlign=middle;spacingTop=-1;spacingLeft=3;spacingRight=3;rotatable=0;labelPosition=right;points=[];portConstraint=eastwest;" vertex="1" parent="7j_whqs939myPZ013sxF-312">
          <mxGeometry y="56" width="190" height="8" as="geometry" />
        </mxCell>
        <mxCell id="7j_whqs939myPZ013sxF-315" value="+ getData(): byte[]" style="text;align=left;verticalAlign=top;spacingLeft=4;spacingRight=4;overflow=hidden;rotatable=0;points=[[0,0.5],[1,0.5]];portConstraint=eastwest;fontStyle=0" vertex="1" parent="7j_whqs939myPZ013sxF-312">
          <mxGeometry y="64" width="190" height="26" as="geometry" />
        </mxCell>
        <mxCell id="7j_whqs939myPZ013sxF-316" style="edgeStyle=orthogonalEdgeStyle;shape=connector;rounded=1;orthogonalLoop=1;jettySize=auto;html=1;shadow=0;strokeColor=default;strokeWidth=1;align=center;verticalAlign=middle;fontFamily=Helvetica;fontSize=11;fontColor=default;labelBackgroundColor=default;elbow=vertical;endArrow=block;endFill=0;endSize=10;" edge="1" parent="WIyWlLk6GJQsqaUBKTNV-1" source="7j_whqs939myPZ013sxF-317" target="7j_whqs939myPZ013sxF-301">
          <mxGeometry relative="1" as="geometry" />
        </mxCell>
        <mxCell id="7j_whqs939myPZ013sxF-317" value="&lt;span style=&quot;font-style: normal;&quot;&gt;ComposedFrame&lt;/span&gt;" style="swimlane;fontStyle=3;align=center;verticalAlign=top;childLayout=stackLayout;horizontal=1;startSize=30;horizontalStack=0;resizeParent=1;resizeLast=0;collapsible=1;marginBottom=0;rounded=0;shadow=0;strokeWidth=1;html=1;" vertex="1" parent="WIyWlLk6GJQsqaUBKTNV-1">
          <mxGeometry x="240" y="530" width="210" height="246" as="geometry">
            <mxRectangle x="230" y="140" width="160" height="26" as="alternateBounds" />
          </mxGeometry>
        </mxCell>
        <mxCell id="7j_whqs939myPZ013sxF-318" value="~ children: Collection&lt;VideoFrame&gt;" style="text;align=left;verticalAlign=top;spacingLeft=4;spacingRight=4;overflow=hidden;rotatable=0;points=[[0,0.5],[1,0.5]];portConstraint=eastwest;fontStyle=0" vertex="1" parent="7j_whqs939myPZ013sxF-317">
          <mxGeometry y="30" width="210" height="26" as="geometry" />
        </mxCell>
        <mxCell id="7j_whqs939myPZ013sxF-319" value="- compositor: FrameCompositor" style="text;align=left;verticalAlign=top;spacingLeft=4;spacingRight=4;overflow=hidden;rotatable=0;points=[[0,0.5],[1,0.5]];portConstraint=eastwest;fontStyle=0" vertex="1" parent="7j_whqs939myPZ013sxF-317">
          <mxGeometry y="56" width="210" height="26" as="geometry" />
        </mxCell>
        <mxCell id="7j_whqs939myPZ013sxF-320" value="- MAX_POSITION: Position" style="text;align=left;verticalAlign=top;spacingLeft=4;spacingRight=4;overflow=hidden;rotatable=0;points=[[0,0.5],[1,0.5]];portConstraint=eastwest;fontStyle=4" vertex="1" parent="7j_whqs939myPZ013sxF-317">
          <mxGeometry y="82" width="210" height="26" as="geometry" />
        </mxCell>
        <mxCell id="7j_whqs939myPZ013sxF-321" value="- MIN_POSITION: Position" style="text;align=left;verticalAlign=top;spacingLeft=4;spacingRight=4;overflow=hidden;rotatable=0;points=[[0,0.5],[1,0.5]];portConstraint=eastwest;fontStyle=4" vertex="1" parent="7j_whqs939myPZ013sxF-317">
          <mxGeometry y="108" width="210" height="26" as="geometry" />
        </mxCell>
        <mxCell id="7j_whqs939myPZ013sxF-322" value="" style="line;html=1;strokeWidth=1;align=left;verticalAlign=middle;spacingTop=-1;spacingLeft=3;spacingRight=3;rotatable=0;labelPosition=right;points=[];portConstraint=eastwest;" vertex="1" parent="7j_whqs939myPZ013sxF-317">
          <mxGeometry y="134" width="210" height="8" as="geometry" />
        </mxCell>
        <mxCell id="7j_whqs939myPZ013sxF-323" value="+ getData(): byte[]" style="text;align=left;verticalAlign=top;spacingLeft=4;spacingRight=4;overflow=hidden;rotatable=0;points=[[0,0.5],[1,0.5]];portConstraint=eastwest;fontStyle=0" vertex="1" parent="7j_whqs939myPZ013sxF-317">
          <mxGeometry y="142" width="210" height="26" as="geometry" />
        </mxCell>
        <mxCell id="7j_whqs939myPZ013sxF-324" value="+ add(child): boolean" style="text;align=left;verticalAlign=top;spacingLeft=4;spacingRight=4;overflow=hidden;rotatable=0;points=[[0,0.5],[1,0.5]];portConstraint=eastwest;fontStyle=0" vertex="1" parent="7j_whqs939myPZ013sxF-317">
          <mxGeometry y="168" width="210" height="26" as="geometry" />
        </mxCell>
        <mxCell id="7j_whqs939myPZ013sxF-325" value="+ remove(child): boolean" style="text;align=left;verticalAlign=top;spacingLeft=4;spacingRight=4;overflow=hidden;rotatable=0;points=[[0,0.5],[1,0.5]];portConstraint=eastwest;fontStyle=0" vertex="1" parent="7j_whqs939myPZ013sxF-317">
          <mxGeometry y="194" width="210" height="26" as="geometry" />
        </mxCell>
        <mxCell id="7j_whqs939myPZ013sxF-326" value="~ calculationRelevantPositions(): void" style="text;align=left;verticalAlign=top;spacingLeft=4;spacingRight=4;overflow=hidden;rotatable=0;points=[[0,0.5],[1,0.5]];portConstraint=eastwest;fontStyle=0" vertex="1" parent="7j_whqs939myPZ013sxF-317">
          <mxGeometry y="220" width="210" height="26" as="geometry" />
        </mxCell>
        <mxCell id="7j_whqs939myPZ013sxF-327" style="edgeStyle=orthogonalEdgeStyle;shape=connector;curved=0;rounded=1;orthogonalLoop=1;jettySize=auto;html=1;shadow=0;strokeColor=default;strokeWidth=1;align=center;verticalAlign=middle;fontFamily=Helvetica;fontSize=11;fontColor=default;labelBackgroundColor=default;elbow=vertical;startArrow=diamondThin;startFill=0;endArrow=open;endFill=0;endSize=6;" edge="1" parent="WIyWlLk6GJQsqaUBKTNV-1" source="7j_whqs939myPZ013sxF-318" target="7j_whqs939myPZ013sxF-301">
          <mxGeometry relative="1" as="geometry">
            <Array as="points">
              <mxPoint x="470" y="573" />
              <mxPoint x="470" y="260" />
            </Array>
          </mxGeometry>
        </mxCell>
        <mxCell id="7j_whqs939myPZ013sxF-328" value="0..*" style="edgeLabel;html=1;align=center;verticalAlign=middle;resizable=0;points=[];fontFamily=Helvetica;fontSize=11;fontColor=default;labelBackgroundColor=default;" vertex="1" connectable="0" parent="7j_whqs939myPZ013sxF-327">
          <mxGeometry x="-0.9781" y="1" relative="1" as="geometry">
            <mxPoint x="6" y="14" as="offset" />
          </mxGeometry>
        </mxCell>
        <mxCell id="7j_whqs939myPZ013sxF-329" value="&lt;span style=&quot;font-weight: normal;&quot;&gt;&amp;lt;&amp;lt;interface&amp;gt;&amp;gt;&lt;/span&gt;&lt;br&gt;FrameCompositor" style="swimlane;fontStyle=3;align=center;verticalAlign=top;childLayout=stackLayout;horizontal=1;startSize=40;horizontalStack=0;resizeParent=1;resizeLast=0;collapsible=1;marginBottom=0;rounded=0;shadow=0;strokeWidth=1;html=1;" vertex="1" parent="WIyWlLk6GJQsqaUBKTNV-1">
          <mxGeometry x="-15" y="660" width="180" height="70" as="geometry">
            <mxRectangle x="230" y="140" width="160" height="26" as="alternateBounds" />
          </mxGeometry>
        </mxCell>
        <mxCell id="7j_whqs939myPZ013sxF-330" value="composeData(frames): byte[]" style="text;align=left;verticalAlign=top;spacingLeft=4;spacingRight=4;overflow=hidden;rotatable=0;points=[[0,0.5],[1,0.5]];portConstraint=eastwest;fontStyle=2" vertex="1" parent="7j_whqs939myPZ013sxF-329">
          <mxGeometry y="40" width="180" height="26" as="geometry" />
        </mxCell>
        <mxCell id="7j_whqs939myPZ013sxF-331" style="edgeStyle=orthogonalEdgeStyle;shape=connector;curved=0;rounded=1;orthogonalLoop=1;jettySize=auto;html=1;shadow=0;strokeColor=default;strokeWidth=1;align=center;verticalAlign=middle;fontFamily=Helvetica;fontSize=11;fontColor=default;labelBackgroundColor=default;elbow=vertical;startArrow=diamondThin;startFill=0;endArrow=open;endFill=0;endSize=6;" edge="1" parent="WIyWlLk6GJQsqaUBKTNV-1" source="7j_whqs939myPZ013sxF-319" target="7j_whqs939myPZ013sxF-329">
          <mxGeometry relative="1" as="geometry">
            <Array as="points">
              <mxPoint x="180" y="599" />
              <mxPoint x="180" y="700" />
            </Array>
          </mxGeometry>
        </mxCell>
        <mxCell id="7j_whqs939myPZ013sxF-332" value="1" style="edgeLabel;html=1;align=center;verticalAlign=middle;resizable=0;points=[];fontFamily=Helvetica;fontSize=11;fontColor=default;labelBackgroundColor=default;" vertex="1" connectable="0" parent="7j_whqs939myPZ013sxF-331">
          <mxGeometry x="-0.9191" y="1" relative="1" as="geometry">
            <mxPoint x="-1" y="-11" as="offset" />
          </mxGeometry>
        </mxCell>
        <mxCell id="7j_whqs939myPZ013sxF-333" value="&lt;span style=&quot;font-style: normal;&quot;&gt;Position&lt;/span&gt;" style="swimlane;fontStyle=3;align=center;verticalAlign=top;childLayout=stackLayout;horizontal=1;startSize=30;horizontalStack=0;resizeParent=1;resizeLast=0;collapsible=1;marginBottom=0;rounded=0;shadow=0;strokeWidth=1;html=1;" vertex="1" parent="WIyWlLk6GJQsqaUBKTNV-1">
          <mxGeometry x="-20" y="820" width="230" height="454" as="geometry">
            <mxRectangle x="230" y="140" width="160" height="26" as="alternateBounds" />
          </mxGeometry>
        </mxCell>
        <mxCell id="7j_whqs939myPZ013sxF-334" value="- x: int" style="text;align=left;verticalAlign=top;spacingLeft=4;spacingRight=4;overflow=hidden;rotatable=0;points=[[0,0.5],[1,0.5]];portConstraint=eastwest;fontStyle=0" vertex="1" parent="7j_whqs939myPZ013sxF-333">
          <mxGeometry y="30" width="230" height="26" as="geometry" />
        </mxCell>
        <mxCell id="7j_whqs939myPZ013sxF-335" value="- y: int" style="text;align=left;verticalAlign=top;spacingLeft=4;spacingRight=4;overflow=hidden;rotatable=0;points=[[0,0.5],[1,0.5]];portConstraint=eastwest;fontStyle=0" vertex="1" parent="7j_whqs939myPZ013sxF-333">
          <mxGeometry y="56" width="230" height="26" as="geometry" />
        </mxCell>
        <mxCell id="7j_whqs939myPZ013sxF-336" value="" style="line;html=1;strokeWidth=1;align=left;verticalAlign=middle;spacingTop=-1;spacingLeft=3;spacingRight=3;rotatable=0;labelPosition=right;points=[];portConstraint=eastwest;" vertex="1" parent="7j_whqs939myPZ013sxF-333">
          <mxGeometry y="82" width="230" height="8" as="geometry" />
        </mxCell>
        <mxCell id="7j_whqs939myPZ013sxF-337" value="+ isCongruentWith(other): boolean" style="text;align=left;verticalAlign=top;spacingLeft=4;spacingRight=4;overflow=hidden;rotatable=0;points=[[0,0.5],[1,0.5]];portConstraint=eastwest;fontStyle=0" vertex="1" parent="7j_whqs939myPZ013sxF-333">
          <mxGeometry y="90" width="230" height="26" as="geometry" />
        </mxCell>
        <mxCell id="7j_whqs939myPZ013sxF-338" value="+ isBelow(other): boolean" style="text;align=left;verticalAlign=top;spacingLeft=4;spacingRight=4;overflow=hidden;rotatable=0;points=[[0,0.5],[1,0.5]];portConstraint=eastwest;fontStyle=0" vertex="1" parent="7j_whqs939myPZ013sxF-333">
          <mxGeometry y="116" width="230" height="26" as="geometry" />
        </mxCell>
        <mxCell id="7j_whqs939myPZ013sxF-339" value="+ isAbove(other): boolean" style="text;align=left;verticalAlign=top;spacingLeft=4;spacingRight=4;overflow=hidden;rotatable=0;points=[[0,0.5],[1,0.5]];portConstraint=eastwest;fontStyle=0" vertex="1" parent="7j_whqs939myPZ013sxF-333">
          <mxGeometry y="142" width="230" height="26" as="geometry" />
        </mxCell>
        <mxCell id="7j_whqs939myPZ013sxF-340" value="+ isToTheRightOf(other): boolean" style="text;align=left;verticalAlign=top;spacingLeft=4;spacingRight=4;overflow=hidden;rotatable=0;points=[[0,0.5],[1,0.5]];portConstraint=eastwest;fontStyle=0" vertex="1" parent="7j_whqs939myPZ013sxF-333">
          <mxGeometry y="168" width="230" height="26" as="geometry" />
        </mxCell>
        <mxCell id="7j_whqs939myPZ013sxF-341" value="+ isToTheLeftOf(other): boolean" style="text;align=left;verticalAlign=top;spacingLeft=4;spacingRight=4;overflow=hidden;rotatable=0;points=[[0,0.5],[1,0.5]];portConstraint=eastwest;fontStyle=0" vertex="1" parent="7j_whqs939myPZ013sxF-333">
          <mxGeometry y="194" width="230" height="26" as="geometry" />
        </mxCell>
        <mxCell id="7j_whqs939myPZ013sxF-342" value="+ isAtTopRightOf(other): boolean" style="text;align=left;verticalAlign=top;spacingLeft=4;spacingRight=4;overflow=hidden;rotatable=0;points=[[0,0.5],[1,0.5]];portConstraint=eastwest;fontStyle=0" vertex="1" parent="7j_whqs939myPZ013sxF-333">
          <mxGeometry y="220" width="230" height="26" as="geometry" />
        </mxCell>
        <mxCell id="7j_whqs939myPZ013sxF-343" value="+ isAtTopLeftOf(other): boolean" style="text;align=left;verticalAlign=top;spacingLeft=4;spacingRight=4;overflow=hidden;rotatable=0;points=[[0,0.5],[1,0.5]];portConstraint=eastwest;fontStyle=0" vertex="1" parent="7j_whqs939myPZ013sxF-333">
          <mxGeometry y="246" width="230" height="26" as="geometry" />
        </mxCell>
        <mxCell id="7j_whqs939myPZ013sxF-344" value="+ isAtBottomLeftOf(other): boolean" style="text;align=left;verticalAlign=top;spacingLeft=4;spacingRight=4;overflow=hidden;rotatable=0;points=[[0,0.5],[1,0.5]];portConstraint=eastwest;fontStyle=0" vertex="1" parent="7j_whqs939myPZ013sxF-333">
          <mxGeometry y="272" width="230" height="26" as="geometry" />
        </mxCell>
        <mxCell id="7j_whqs939myPZ013sxF-345" value="+ isAtBottomRightOf(other): boolean" style="text;align=left;verticalAlign=top;spacingLeft=4;spacingRight=4;overflow=hidden;rotatable=0;points=[[0,0.5],[1,0.5]];portConstraint=eastwest;fontStyle=0" vertex="1" parent="7j_whqs939myPZ013sxF-333">
          <mxGeometry y="298" width="230" height="26" as="geometry" />
        </mxCell>
        <mxCell id="7j_whqs939myPZ013sxF-346" value="+ isNotNull(other): boolean" style="text;align=left;verticalAlign=top;spacingLeft=4;spacingRight=4;overflow=hidden;rotatable=0;points=[[0,0.5],[1,0.5]];portConstraint=eastwest;fontStyle=0" vertex="1" parent="7j_whqs939myPZ013sxF-333">
          <mxGeometry y="324" width="230" height="26" as="geometry" />
        </mxCell>
        <mxCell id="7j_whqs939myPZ013sxF-347" value="+ bottomLeftIntersection(other): Position" style="text;align=left;verticalAlign=top;spacingLeft=4;spacingRight=4;overflow=hidden;rotatable=0;points=[[0,0.5],[1,0.5]];portConstraint=eastwest;fontStyle=0" vertex="1" parent="7j_whqs939myPZ013sxF-333">
          <mxGeometry y="350" width="230" height="26" as="geometry" />
        </mxCell>
        <mxCell id="7j_whqs939myPZ013sxF-348" value="+ topRightIntersection(other): Position" style="text;align=left;verticalAlign=top;spacingLeft=4;spacingRight=4;overflow=hidden;rotatable=0;points=[[0,0.5],[1,0.5]];portConstraint=eastwest;fontStyle=0" vertex="1" parent="7j_whqs939myPZ013sxF-333">
          <mxGeometry y="376" width="230" height="26" as="geometry" />
        </mxCell>
        <mxCell id="7j_whqs939myPZ013sxF-349" value="+ getX(): int" style="text;align=left;verticalAlign=top;spacingLeft=4;spacingRight=4;overflow=hidden;rotatable=0;points=[[0,0.5],[1,0.5]];portConstraint=eastwest;fontStyle=0" vertex="1" parent="7j_whqs939myPZ013sxF-333">
          <mxGeometry y="402" width="230" height="26" as="geometry" />
        </mxCell>
        <mxCell id="7j_whqs939myPZ013sxF-350" value="+ getY(): int" style="text;align=left;verticalAlign=top;spacingLeft=4;spacingRight=4;overflow=hidden;rotatable=0;points=[[0,0.5],[1,0.5]];portConstraint=eastwest;fontStyle=0" vertex="1" parent="7j_whqs939myPZ013sxF-333">
          <mxGeometry y="428" width="230" height="26" as="geometry" />
        </mxCell>
        <mxCell id="7j_whqs939myPZ013sxF-351" style="edgeStyle=orthogonalEdgeStyle;shape=connector;curved=0;rounded=1;orthogonalLoop=1;jettySize=auto;html=1;shadow=0;strokeColor=default;strokeWidth=1;align=center;verticalAlign=middle;fontFamily=Helvetica;fontSize=11;fontColor=default;labelBackgroundColor=default;elbow=vertical;startArrow=diamondThin;startFill=0;endArrow=open;endFill=0;endSize=6;" edge="1" parent="WIyWlLk6GJQsqaUBKTNV-1" source="7j_whqs939myPZ013sxF-320" target="7j_whqs939myPZ013sxF-333">
          <mxGeometry relative="1" as="geometry">
            <Array as="points">
              <mxPoint x="200" y="625" />
              <mxPoint x="200" y="770" />
              <mxPoint x="80" y="770" />
            </Array>
          </mxGeometry>
        </mxCell>
        <mxCell id="7j_whqs939myPZ013sxF-352" value="1" style="edgeLabel;html=1;align=center;verticalAlign=middle;resizable=0;points=[];fontFamily=Helvetica;fontSize=11;fontColor=default;labelBackgroundColor=default;" vertex="1" connectable="0" parent="7j_whqs939myPZ013sxF-351">
          <mxGeometry x="-0.9745" relative="1" as="geometry">
            <mxPoint x="-3" y="-10" as="offset" />
          </mxGeometry>
        </mxCell>
        <mxCell id="7j_whqs939myPZ013sxF-353" style="edgeStyle=orthogonalEdgeStyle;shape=connector;curved=0;rounded=1;orthogonalLoop=1;jettySize=auto;html=1;shadow=0;strokeColor=default;strokeWidth=1;align=center;verticalAlign=middle;fontFamily=Helvetica;fontSize=11;fontColor=default;labelBackgroundColor=default;elbow=vertical;startArrow=diamondThin;startFill=0;endArrow=open;endFill=0;endSize=6;" edge="1" parent="WIyWlLk6GJQsqaUBKTNV-1" source="7j_whqs939myPZ013sxF-321" target="7j_whqs939myPZ013sxF-333">
          <mxGeometry relative="1" as="geometry">
            <Array as="points">
              <mxPoint x="220" y="651" />
              <mxPoint x="220" y="800" />
              <mxPoint x="120" y="800" />
            </Array>
          </mxGeometry>
        </mxCell>
        <mxCell id="7j_whqs939myPZ013sxF-354" value="1" style="edgeLabel;html=1;align=center;verticalAlign=middle;resizable=0;points=[];fontFamily=Helvetica;fontSize=11;fontColor=default;labelBackgroundColor=default;" vertex="1" connectable="0" parent="7j_whqs939myPZ013sxF-353">
          <mxGeometry x="-0.9618" y="1" relative="1" as="geometry">
            <mxPoint x="-3" y="-10" as="offset" />
          </mxGeometry>
        </mxCell>
        <mxCell id="7j_whqs939myPZ013sxF-355" style="edgeStyle=orthogonalEdgeStyle;rounded=1;orthogonalLoop=1;jettySize=auto;html=1;shadow=0;strokeColor=default;strokeWidth=1;align=center;verticalAlign=middle;fontFamily=Helvetica;fontSize=11;fontColor=default;labelBackgroundColor=default;elbow=vertical;startArrow=none;startFill=0;endArrow=open;endFill=0;endSize=6;curved=0;" edge="1" parent="WIyWlLk6GJQsqaUBKTNV-1" source="7j_whqs939myPZ013sxF-356" target="7j_whqs939myPZ013sxF-297">
          <mxGeometry relative="1" as="geometry" />
        </mxCell>
        <mxCell id="7j_whqs939myPZ013sxF-356" value="&lt;span style=&quot;font-weight: normal;&quot;&gt;&amp;lt;&amp;lt;interface&amp;gt;&amp;gt;&lt;/span&gt;&lt;br&gt;StreamSender" style="swimlane;fontStyle=3;align=center;verticalAlign=top;childLayout=stackLayout;horizontal=1;startSize=40;horizontalStack=0;resizeParent=1;resizeLast=0;collapsible=1;marginBottom=0;rounded=0;shadow=0;strokeWidth=1;html=1;" vertex="1" parent="WIyWlLk6GJQsqaUBKTNV-1">
          <mxGeometry x="440" y="55" width="180" height="100" as="geometry">
            <mxRectangle x="230" y="140" width="160" height="26" as="alternateBounds" />
          </mxGeometry>
        </mxCell>
        <mxCell id="7j_whqs939myPZ013sxF-357" value="sendRequest(message): void" style="text;align=left;verticalAlign=top;spacingLeft=4;spacingRight=4;overflow=hidden;rotatable=0;points=[[0,0.5],[1,0.5]];portConstraint=eastwest;fontStyle=2" vertex="1" parent="7j_whqs939myPZ013sxF-356">
          <mxGeometry y="40" width="180" height="26" as="geometry" />
        </mxCell>
        <mxCell id="7j_whqs939myPZ013sxF-358" value="sendStream(stream): void" style="text;align=left;verticalAlign=top;spacingLeft=4;spacingRight=4;overflow=hidden;rotatable=0;points=[[0,0.5],[1,0.5]];portConstraint=eastwest;fontStyle=2" vertex="1" parent="7j_whqs939myPZ013sxF-356">
          <mxGeometry y="66" width="180" height="26" as="geometry" />
        </mxCell>
        <mxCell id="7j_whqs939myPZ013sxF-359" value="&lt;span style=&quot;font-weight: normal;&quot;&gt;&amp;lt;&amp;lt;interface&amp;gt;&amp;gt;&lt;/span&gt;&lt;br&gt;StreamReciver&lt;span style=&quot;color: rgba(0, 0, 0, 0); font-family: monospace; font-size: 0px; font-style: normal; font-weight: 400; text-align: start;&quot;&gt;%3CmxGraphModel%3E%3Croot%3E%3CmxCell%20id%3D%220%22%2F%3E%3CmxCell%20id%3D%221%22%20parent%3D%220%22%2F%3E%3CmxCell%20id%3D%222%22%20value%3D%22%26lt%3Bspan%20style%3D%26quot%3Bfont-weight%3A%20normal%3B%26quot%3B%26gt%3B%26amp%3Blt%3B%26amp%3Blt%3Binterface%26amp%3Bgt%3B%26amp%3Bgt%3B%26lt%3B%2Fspan%26gt%3B%26lt%3Bbr%26gt%3BStreamChannel%22%20style%3D%22swimlane%3BfontStyle%3D3%3Balign%3Dcenter%3BverticalAlign%3Dtop%3BchildLayout%3DstackLayout%3Bhorizontal%3D1%3BstartSize%3D40%3BhorizontalStack%3D0%3BresizeParent%3D1%3BresizeLast%3D0%3Bcollapsible%3D1%3BmarginBottom%3D0%3Brounded%3D0%3Bshadow%3D0%3BstrokeWidth%3D1%3Bhtml%3D1%3B%22%20vertex%3D%221%22%20parent%3D%221%22%3E%3CmxGeometry%20x%3D%22410%22%20y%3D%2250%22%20width%3D%22180%22%20height%3D%22120%22%20as%3D%22geometry%22%3E%3CmxRectangle%20x%3D%22230%22%20y%3D%22140%22%20width%3D%22160%22%20height%3D%2226%22%20as%3D%22alternateBounds%22%2F%3E%3C%2FmxGeometry%3E%3C%2FmxCell%3E%3CmxCell%20id%3D%223%22%20value%3D%22sendRequest(message)%22%20style%3D%22text%3Balign%3Dleft%3BverticalAlign%3Dtop%3BspacingLeft%3D4%3BspacingRight%3D4%3Boverflow%3Dhidden%3Brotatable%3D0%3Bpoints%3D%5B%5B0%2C0.5%5D%2C%5B1%2C0.5%5D%5D%3BportConstraint%3Deastwest%3BfontStyle%3D2%22%20vertex%3D%221%22%20parent%3D%222%22%3E%3CmxGeometry%20y%3D%2240%22%20width%3D%22180%22%20height%3D%2226%22%20as%3D%22geometry%22%2F%3E%3C%2FmxCell%3E%3CmxCell%20id%3D%224%22%20value%3D%22sendStream(stream)%22%20style%3D%22text%3Balign%3Dleft%3BverticalAlign%3Dtop%3BspacingLeft%3D4%3BspacingRight%3D4%3Boverflow%3Dhidden%3Brotatable%3D0%3Bpoints%3D%5B%5B0%2C0.5%5D%2C%5B1%2C0.5%5D%5D%3BportConstraint%3Deastwest%3BfontStyle%3D2%22%20vertex%3D%221%22%20parent%3D%222%22%3E%3CmxGeometry%20y%3D%2266%22%20width%3D%22180%22%20height%3D%2226%22%20as%3D%22geometry%22%2F%3E%3C%2FmxCell%3E%3CmxCell%20id%3D%225%22%20value%3D%22streamRecive()%22%20style%3D%22text%3Balign%3Dleft%3BverticalAlign%3Dtop%3BspacingLeft%3D4%3BspacingRight%3D4%3Boverflow%3Dhidden%3Brotatable%3D0%3Bpoints%3D%5B%5B0%2C0.5%5D%2C%5B1%2C0.5%5D%5D%3BportConstraint%3Deastwest%3BfontStyle%3D2%22%20vertex%3D%221%22%20parent%3D%222%22%3E%3CmxGeometry%20y%3D%2292%22%20width%3D%22180%22%20height%3D%2226%22%20as%3D%22geometry%22%2F%3E%3C%2FmxCell%3E%3C%2Froot%3E%3C%2FmxGraphModel%3ERe&lt;/span&gt;" style="swimlane;fontStyle=3;align=center;verticalAlign=top;childLayout=stackLayout;horizontal=1;startSize=40;horizontalStack=0;resizeParent=1;resizeLast=0;collapsible=1;marginBottom=0;rounded=0;shadow=0;strokeWidth=1;html=1;" vertex="1" parent="WIyWlLk6GJQsqaUBKTNV-1">
          <mxGeometry x="300" y="1240" width="180" height="70" as="geometry">
            <mxRectangle x="230" y="140" width="160" height="26" as="alternateBounds" />
          </mxGeometry>
        </mxCell>
        <mxCell id="7j_whqs939myPZ013sxF-360" value="streamRecive(): VideoStream" style="text;align=left;verticalAlign=top;spacingLeft=4;spacingRight=4;overflow=hidden;rotatable=0;points=[[0,0.5],[1,0.5]];portConstraint=eastwest;fontStyle=2" vertex="1" parent="7j_whqs939myPZ013sxF-359">
          <mxGeometry y="40" width="180" height="26" as="geometry" />
        </mxCell>
        <mxCell id="7j_whqs939myPZ013sxF-361" style="edgeStyle=orthogonalEdgeStyle;rounded=1;orthogonalLoop=1;jettySize=auto;html=1;shadow=0;strokeColor=default;strokeWidth=1;align=center;verticalAlign=middle;fontFamily=Helvetica;fontSize=11;fontColor=default;labelBackgroundColor=default;elbow=vertical;startArrow=diamondThin;startFill=0;endArrow=open;endFill=0;endSize=6;curved=0;" edge="1" parent="WIyWlLk6GJQsqaUBKTNV-1" source="7j_whqs939myPZ013sxF-269" target="7j_whqs939myPZ013sxF-359">
          <mxGeometry relative="1" as="geometry">
            <Array as="points">
              <mxPoint x="280" y="1031" />
              <mxPoint x="280" y="1275" />
            </Array>
          </mxGeometry>
        </mxCell>
      </root>
    </mxGraphModel>
  </diagram>
  <diagram id="2XZpTqSin5Z306zNYWl_" name="Display hierarchy">
    <mxGraphModel dx="662" dy="673" grid="1" gridSize="10" guides="1" tooltips="1" connect="1" arrows="1" fold="1" page="1" pageScale="1" pageWidth="1100" pageHeight="850" math="0" shadow="0">
      <root>
        <mxCell id="0" />
        <mxCell id="1" parent="0" />
        <mxCell id="UNtcW-C-AdgjCr-_jJRZ-1" value="&lt;span style=&quot;font-weight: normal;&quot;&gt;&amp;lt;&amp;lt;interface&amp;gt;&amp;gt;&lt;/span&gt;&lt;br&gt;Display" style="swimlane;fontStyle=3;align=center;verticalAlign=top;childLayout=stackLayout;horizontal=1;startSize=44;horizontalStack=0;resizeParent=1;resizeLast=0;collapsible=1;marginBottom=0;rounded=0;shadow=0;strokeWidth=1;html=1;" vertex="1" parent="1">
          <mxGeometry x="740" y="466" width="120" height="44" as="geometry">
            <mxRectangle x="230" y="140" width="160" height="26" as="alternateBounds" />
          </mxGeometry>
        </mxCell>
        <mxCell id="89AWgZiECjTKESF_du-j-5" style="edgeStyle=orthogonalEdgeStyle;rounded=1;orthogonalLoop=1;jettySize=auto;html=1;shadow=0;strokeColor=default;strokeWidth=1;align=center;verticalAlign=middle;fontFamily=Helvetica;fontSize=11;fontColor=default;labelBackgroundColor=default;elbow=vertical;jumpStyle=arc;jumpSize=12;startArrow=diamondThin;startFill=0;endArrow=open;endFill=0;endSize=6;curved=0;" edge="1" parent="1" source="UNtcW-C-AdgjCr-_jJRZ-18" target="vKu0Gsn9FZAsK99ZuzCh-1">
          <mxGeometry relative="1" as="geometry" />
        </mxCell>
        <mxCell id="89AWgZiECjTKESF_du-j-6" value="1" style="edgeLabel;html=1;align=center;verticalAlign=middle;resizable=0;points=[];" vertex="1" connectable="0" parent="89AWgZiECjTKESF_du-j-5">
          <mxGeometry x="-0.866" relative="1" as="geometry">
            <mxPoint x="-1" y="-10" as="offset" />
          </mxGeometry>
        </mxCell>
        <mxCell id="89AWgZiECjTKESF_du-j-7" value="1" style="edgeLabel;html=1;align=center;verticalAlign=middle;resizable=0;points=[];" vertex="1" connectable="0" parent="89AWgZiECjTKESF_du-j-5">
          <mxGeometry x="-0.7402" relative="1" as="geometry">
            <mxPoint x="7" y="2" as="offset" />
          </mxGeometry>
        </mxCell>
        <mxCell id="UNtcW-C-AdgjCr-_jJRZ-18" value="StandardDisplay" style="swimlane;fontStyle=1;align=center;verticalAlign=top;childLayout=stackLayout;horizontal=1;startSize=30;horizontalStack=0;resizeParent=1;resizeLast=0;collapsible=1;marginBottom=0;rounded=0;shadow=0;strokeWidth=1;" vertex="1" parent="1">
          <mxGeometry x="655" y="570" width="130" height="30" as="geometry">
            <mxRectangle x="130" y="380" width="160" height="26" as="alternateBounds" />
          </mxGeometry>
        </mxCell>
        <mxCell id="UNtcW-C-AdgjCr-_jJRZ-43" value="" style="endArrow=block;endSize=10;endFill=0;shadow=0;strokeWidth=1;rounded=1;edgeStyle=orthogonalEdgeStyle;elbow=vertical;" edge="1" parent="1" source="UNtcW-C-AdgjCr-_jJRZ-18" target="UNtcW-C-AdgjCr-_jJRZ-1">
          <mxGeometry width="160" relative="1" as="geometry">
            <mxPoint x="700" y="183" as="sourcePoint" />
            <mxPoint x="700" y="183" as="targetPoint" />
            <Array as="points">
              <mxPoint x="725" y="540" />
              <mxPoint x="800" y="540" />
            </Array>
          </mxGeometry>
        </mxCell>
        <mxCell id="UNtcW-C-AdgjCr-_jJRZ-44" value="DisplayWithSensorDecorator" style="swimlane;fontStyle=3;align=center;verticalAlign=top;childLayout=stackLayout;horizontal=1;startSize=26;horizontalStack=0;resizeParent=1;resizeLast=0;collapsible=1;marginBottom=0;rounded=0;shadow=0;strokeWidth=1;" vertex="1" parent="1">
          <mxGeometry x="815" y="570" width="190" height="120" as="geometry">
            <mxRectangle x="340" y="380" width="170" height="26" as="alternateBounds" />
          </mxGeometry>
        </mxCell>
        <mxCell id="UNtcW-C-AdgjCr-_jJRZ-45" value="~ component" style="text;align=left;verticalAlign=top;spacingLeft=4;spacingRight=4;overflow=hidden;rotatable=0;points=[[0,0.5],[1,0.5]];portConstraint=eastwest;" vertex="1" parent="UNtcW-C-AdgjCr-_jJRZ-44">
          <mxGeometry y="26" width="190" height="26" as="geometry" />
        </mxCell>
        <mxCell id="UNtcW-C-AdgjCr-_jJRZ-46" value="- sensor" style="text;align=left;verticalAlign=top;spacingLeft=4;spacingRight=4;overflow=hidden;rotatable=0;points=[[0,0.5],[1,0.5]];portConstraint=eastwest;" vertex="1" parent="UNtcW-C-AdgjCr-_jJRZ-44">
          <mxGeometry y="52" width="190" height="26" as="geometry" />
        </mxCell>
        <mxCell id="2aANvSLaWLH9bppBHr31-11" value="" style="line;html=1;strokeWidth=1;align=left;verticalAlign=middle;spacingTop=-1;spacingLeft=3;spacingRight=3;rotatable=0;labelPosition=right;points=[];portConstraint=eastwest;" vertex="1" parent="UNtcW-C-AdgjCr-_jJRZ-44">
          <mxGeometry y="78" width="190" height="8" as="geometry" />
        </mxCell>
        <mxCell id="2aANvSLaWLH9bppBHr31-12" value="# setValue(measure)" style="text;align=left;verticalAlign=top;spacingLeft=4;spacingRight=4;overflow=hidden;rotatable=0;points=[[0,0.5],[1,0.5]];portConstraint=eastwest;fontStyle=2" vertex="1" parent="UNtcW-C-AdgjCr-_jJRZ-44">
          <mxGeometry y="86" width="190" height="29" as="geometry" />
        </mxCell>
        <mxCell id="UNtcW-C-AdgjCr-_jJRZ-64" value="" style="endArrow=block;endSize=10;endFill=0;shadow=0;strokeWidth=1;rounded=1;edgeStyle=orthogonalEdgeStyle;elbow=vertical;" edge="1" parent="1" source="UNtcW-C-AdgjCr-_jJRZ-44" target="UNtcW-C-AdgjCr-_jJRZ-1">
          <mxGeometry width="160" relative="1" as="geometry">
            <mxPoint x="710" y="353" as="sourcePoint" />
            <mxPoint x="810" y="251" as="targetPoint" />
            <Array as="points">
              <mxPoint x="910" y="540" />
              <mxPoint x="800" y="540" />
            </Array>
          </mxGeometry>
        </mxCell>
        <mxCell id="UNtcW-C-AdgjCr-_jJRZ-65" style="edgeStyle=orthogonalEdgeStyle;shape=connector;rounded=1;orthogonalLoop=1;jettySize=auto;elbow=vertical;html=1;shadow=0;strokeColor=default;strokeWidth=1;align=center;verticalAlign=middle;fontFamily=Helvetica;fontSize=11;fontColor=default;labelBackgroundColor=default;endArrow=block;endFill=0;endSize=10;" edge="1" parent="1" source="UNtcW-C-AdgjCr-_jJRZ-66" target="UNtcW-C-AdgjCr-_jJRZ-44">
          <mxGeometry relative="1" as="geometry">
            <mxPoint x="905.0476190476188" y="722" as="targetPoint" />
          </mxGeometry>
        </mxCell>
        <mxCell id="UNtcW-C-AdgjCr-_jJRZ-66" value="DisplayWithBrightnessSensorDecorator" style="swimlane;fontStyle=1;align=center;verticalAlign=top;childLayout=stackLayout;horizontal=1;startSize=26;horizontalStack=0;resizeParent=1;resizeLast=0;collapsible=1;marginBottom=0;rounded=0;shadow=0;strokeWidth=1;" vertex="1" parent="1">
          <mxGeometry x="650" y="740" width="240" height="67" as="geometry">
            <mxRectangle x="340" y="380" width="170" height="26" as="alternateBounds" />
          </mxGeometry>
        </mxCell>
        <mxCell id="UNtcW-C-AdgjCr-_jJRZ-69" value="" style="line;html=1;strokeWidth=1;align=left;verticalAlign=middle;spacingTop=-1;spacingLeft=3;spacingRight=3;rotatable=0;labelPosition=right;points=[];portConstraint=eastwest;" vertex="1" parent="UNtcW-C-AdgjCr-_jJRZ-66">
          <mxGeometry y="26" width="240" height="8" as="geometry" />
        </mxCell>
        <mxCell id="UNtcW-C-AdgjCr-_jJRZ-70" value="# setValue(measure)" style="text;align=left;verticalAlign=top;spacingLeft=4;spacingRight=4;overflow=hidden;rotatable=0;points=[[0,0.5],[1,0.5]];portConstraint=eastwest;fontStyle=0" vertex="1" parent="UNtcW-C-AdgjCr-_jJRZ-66">
          <mxGeometry y="34" width="240" height="29" as="geometry" />
        </mxCell>
        <mxCell id="UNtcW-C-AdgjCr-_jJRZ-72" style="edgeStyle=orthogonalEdgeStyle;shape=connector;rounded=1;orthogonalLoop=1;jettySize=auto;elbow=vertical;html=1;shadow=0;strokeColor=default;strokeWidth=1;align=center;verticalAlign=middle;fontFamily=Helvetica;fontSize=11;fontColor=default;labelBackgroundColor=default;endArrow=block;endFill=0;endSize=10;" edge="1" parent="1" source="UNtcW-C-AdgjCr-_jJRZ-73" target="UNtcW-C-AdgjCr-_jJRZ-44">
          <mxGeometry relative="1" as="geometry">
            <mxPoint x="905.0476190476188" y="722" as="targetPoint" />
          </mxGeometry>
        </mxCell>
        <mxCell id="UNtcW-C-AdgjCr-_jJRZ-73" value="DisplayWithClockDecorator" style="swimlane;fontStyle=1;align=center;verticalAlign=top;childLayout=stackLayout;horizontal=1;startSize=26;horizontalStack=0;resizeParent=1;resizeLast=0;collapsible=1;marginBottom=0;rounded=0;shadow=0;strokeWidth=1;" vertex="1" parent="1">
          <mxGeometry x="930" y="740" width="180" height="63" as="geometry">
            <mxRectangle x="340" y="380" width="170" height="26" as="alternateBounds" />
          </mxGeometry>
        </mxCell>
        <mxCell id="UNtcW-C-AdgjCr-_jJRZ-76" value="" style="line;html=1;strokeWidth=1;align=left;verticalAlign=middle;spacingTop=-1;spacingLeft=3;spacingRight=3;rotatable=0;labelPosition=right;points=[];portConstraint=eastwest;" vertex="1" parent="UNtcW-C-AdgjCr-_jJRZ-73">
          <mxGeometry y="26" width="180" height="8" as="geometry" />
        </mxCell>
        <mxCell id="UNtcW-C-AdgjCr-_jJRZ-77" value="# setValue(measure)" style="text;align=left;verticalAlign=top;spacingLeft=4;spacingRight=4;overflow=hidden;rotatable=0;points=[[0,0.5],[1,0.5]];portConstraint=eastwest;fontStyle=0" vertex="1" parent="UNtcW-C-AdgjCr-_jJRZ-73">
          <mxGeometry y="34" width="180" height="29" as="geometry" />
        </mxCell>
        <mxCell id="2aANvSLaWLH9bppBHr31-1" style="edgeStyle=orthogonalEdgeStyle;shape=connector;curved=0;rounded=1;orthogonalLoop=1;jettySize=auto;html=1;shadow=0;strokeColor=default;strokeWidth=1;align=center;verticalAlign=middle;fontFamily=Helvetica;fontSize=11;fontColor=default;labelBackgroundColor=default;elbow=vertical;startArrow=diamondThin;startFill=0;endArrow=open;endFill=0;endSize=6;jumpStyle=arc;jumpSize=12;" edge="1" parent="1" source="UNtcW-C-AdgjCr-_jJRZ-45" target="UNtcW-C-AdgjCr-_jJRZ-1">
          <mxGeometry relative="1" as="geometry">
            <Array as="points">
              <mxPoint x="1040" y="609" />
              <mxPoint x="1040" y="490" />
            </Array>
            <mxPoint x="1050" y="609" as="sourcePoint" />
            <mxPoint x="910" y="70" as="targetPoint" />
          </mxGeometry>
        </mxCell>
        <mxCell id="2aANvSLaWLH9bppBHr31-2" value="1" style="edgeLabel;html=1;align=center;verticalAlign=middle;resizable=0;points=[];fontFamily=Helvetica;fontSize=11;fontColor=default;labelBackgroundColor=default;" vertex="1" connectable="0" parent="2aANvSLaWLH9bppBHr31-1">
          <mxGeometry x="-0.985" y="1" relative="1" as="geometry">
            <mxPoint x="3" y="-10" as="offset" />
          </mxGeometry>
        </mxCell>
        <mxCell id="vKu0Gsn9FZAsK99ZuzCh-1" value="&lt;span style=&quot;font-weight: normal;&quot;&gt;&amp;lt;&amp;lt;interface&amp;gt;&amp;gt;&lt;/span&gt;&lt;br&gt;StreamChannel" style="swimlane;fontStyle=3;align=center;verticalAlign=top;childLayout=stackLayout;horizontal=1;startSize=40;horizontalStack=0;resizeParent=1;resizeLast=0;collapsible=1;marginBottom=0;rounded=0;shadow=0;strokeWidth=1;html=1;" vertex="1" parent="1">
          <mxGeometry x="665" y="640" width="110" height="40" as="geometry">
            <mxRectangle x="230" y="140" width="160" height="26" as="alternateBounds" />
          </mxGeometry>
        </mxCell>
        <mxCell id="89AWgZiECjTKESF_du-j-1" value="&lt;span style=&quot;font-weight: normal;&quot;&gt;&amp;lt;&amp;lt;interface&amp;gt;&amp;gt;&lt;/span&gt;&lt;br&gt;Sensor" style="swimlane;fontStyle=3;align=center;verticalAlign=top;childLayout=stackLayout;horizontal=1;startSize=50;horizontalStack=0;resizeParent=1;resizeLast=0;collapsible=1;marginBottom=0;rounded=0;shadow=0;strokeWidth=1;html=1;" vertex="1" parent="1">
          <mxGeometry x="1030" y="660" width="100" height="40" as="geometry">
            <mxRectangle x="230" y="140" width="160" height="26" as="alternateBounds" />
          </mxGeometry>
        </mxCell>
        <mxCell id="89AWgZiECjTKESF_du-j-3" style="edgeStyle=orthogonalEdgeStyle;rounded=1;orthogonalLoop=1;jettySize=auto;html=1;shadow=0;strokeColor=default;strokeWidth=1;align=center;verticalAlign=middle;fontFamily=Helvetica;fontSize=11;fontColor=default;labelBackgroundColor=default;elbow=vertical;jumpStyle=arc;jumpSize=12;startArrow=diamondThin;startFill=0;endArrow=open;endFill=0;endSize=6;curved=0;" edge="1" parent="1" source="UNtcW-C-AdgjCr-_jJRZ-46" target="89AWgZiECjTKESF_du-j-1">
          <mxGeometry relative="1" as="geometry" />
        </mxCell>
        <mxCell id="89AWgZiECjTKESF_du-j-4" value="1" style="edgeLabel;html=1;align=center;verticalAlign=middle;resizable=0;points=[];" vertex="1" connectable="0" parent="89AWgZiECjTKESF_du-j-3">
          <mxGeometry x="-0.8971" y="-2" relative="1" as="geometry">
            <mxPoint y="9" as="offset" />
          </mxGeometry>
        </mxCell>
      </root>
    </mxGraphModel>
  </diagram>
  <diagram id="rIbkAlf545fyQC8p0kyZ" name="MulfunctionChecker">
    <mxGraphModel dx="794" dy="807" grid="1" gridSize="10" guides="1" tooltips="1" connect="1" arrows="1" fold="1" page="1" pageScale="1" pageWidth="1100" pageHeight="850" math="0" shadow="0">
      <root>
        <mxCell id="0" />
        <mxCell id="1" parent="0" />
        <mxCell id="ytwfoBpltMiL7q3BF-sH-1" value="MulfunctionChecker" style="swimlane;fontStyle=3;align=center;verticalAlign=top;childLayout=stackLayout;horizontal=1;startSize=30;horizontalStack=0;resizeParent=1;resizeLast=0;collapsible=1;marginBottom=0;rounded=0;shadow=0;strokeWidth=1;html=1;" vertex="1" parent="1">
          <mxGeometry x="580" y="270" width="180" height="90" as="geometry">
            <mxRectangle x="230" y="140" width="160" height="26" as="alternateBounds" />
          </mxGeometry>
        </mxCell>
        <mxCell id="ytwfoBpltMiL7q3BF-sH-2" value="- nextChecker" style="text;align=left;verticalAlign=top;spacingLeft=4;spacingRight=4;overflow=hidden;rotatable=0;points=[[0,0.5],[1,0.5]];portConstraint=eastwest;fontStyle=0" vertex="1" parent="ytwfoBpltMiL7q3BF-sH-1">
          <mxGeometry y="30" width="180" height="26" as="geometry" />
        </mxCell>
        <mxCell id="ytwfoBpltMiL7q3BF-sH-3" value="" style="line;html=1;strokeWidth=1;align=left;verticalAlign=middle;spacingTop=-1;spacingLeft=3;spacingRight=3;rotatable=0;labelPosition=right;points=[];portConstraint=eastwest;" vertex="1" parent="ytwfoBpltMiL7q3BF-sH-1">
          <mxGeometry y="56" width="180" height="8" as="geometry" />
        </mxCell>
        <mxCell id="ytwfoBpltMiL7q3BF-sH-4" value="+ checkMulfunction(display)" style="text;align=left;verticalAlign=top;spacingLeft=4;spacingRight=4;overflow=hidden;rotatable=0;points=[[0,0.5],[1,0.5]];portConstraint=eastwest;fontStyle=2" vertex="1" parent="ytwfoBpltMiL7q3BF-sH-1">
          <mxGeometry y="64" width="180" height="26" as="geometry" />
        </mxCell>
        <mxCell id="ytwfoBpltMiL7q3BF-sH-5" style="edgeStyle=elbowEdgeStyle;shape=connector;curved=0;rounded=1;orthogonalLoop=1;jettySize=auto;elbow=vertical;html=1;shadow=0;strokeColor=default;strokeWidth=1;align=center;verticalAlign=middle;fontFamily=Helvetica;fontSize=11;fontColor=default;labelBackgroundColor=default;endArrow=block;endFill=0;endSize=10;" edge="1" parent="1" source="ytwfoBpltMiL7q3BF-sH-6" target="ytwfoBpltMiL7q3BF-sH-1">
          <mxGeometry relative="1" as="geometry" />
        </mxCell>
        <mxCell id="ytwfoBpltMiL7q3BF-sH-6" value="&lt;span style=&quot;padding: 0px 0px 0px 2px;&quot;&gt;&lt;span style=&quot;white-space-collapse: preserve; background-color: rgb(255, 255, 255); font-style: normal;&quot;&gt;&lt;font style=&quot;font-size: 12px;&quot; face=&quot;Helvetica&quot;&gt;UnexpectedlyChangedResolutionChecker&lt;/font&gt;&lt;/span&gt;&lt;/span&gt;" style="swimlane;fontStyle=3;align=center;verticalAlign=top;childLayout=stackLayout;horizontal=1;startSize=30;horizontalStack=0;resizeParent=1;resizeLast=0;collapsible=1;marginBottom=0;rounded=0;shadow=0;strokeWidth=1;html=1;" vertex="1" parent="1">
          <mxGeometry x="400" y="430" width="260" height="64" as="geometry">
            <mxRectangle x="230" y="140" width="160" height="26" as="alternateBounds" />
          </mxGeometry>
        </mxCell>
        <mxCell id="ytwfoBpltMiL7q3BF-sH-7" value="" style="line;html=1;strokeWidth=1;align=left;verticalAlign=middle;spacingTop=-1;spacingLeft=3;spacingRight=3;rotatable=0;labelPosition=right;points=[];portConstraint=eastwest;" vertex="1" parent="ytwfoBpltMiL7q3BF-sH-6">
          <mxGeometry y="30" width="260" height="8" as="geometry" />
        </mxCell>
        <mxCell id="ytwfoBpltMiL7q3BF-sH-8" value="+ checkMulfunction(display)" style="text;align=left;verticalAlign=top;spacingLeft=4;spacingRight=4;overflow=hidden;rotatable=0;points=[[0,0.5],[1,0.5]];portConstraint=eastwest;fontStyle=0" vertex="1" parent="ytwfoBpltMiL7q3BF-sH-6">
          <mxGeometry y="38" width="260" height="26" as="geometry" />
        </mxCell>
        <mxCell id="ytwfoBpltMiL7q3BF-sH-9" style="edgeStyle=elbowEdgeStyle;shape=connector;curved=0;rounded=1;orthogonalLoop=1;jettySize=auto;elbow=vertical;html=1;shadow=0;strokeColor=default;strokeWidth=1;align=center;verticalAlign=middle;fontFamily=Helvetica;fontSize=11;fontColor=default;labelBackgroundColor=default;endArrow=block;endFill=0;endSize=10;" edge="1" parent="1" source="ytwfoBpltMiL7q3BF-sH-10" target="ytwfoBpltMiL7q3BF-sH-1">
          <mxGeometry relative="1" as="geometry" />
        </mxCell>
        <mxCell id="ytwfoBpltMiL7q3BF-sH-10" value="&lt;span style=&quot;padding: 0px 0px 0px 2px;&quot;&gt;&lt;span style=&quot;white-space-collapse: preserve; background-color: rgb(255, 255, 255); font-style: normal;&quot;&gt;&lt;font style=&quot;font-size: 12px;&quot;&gt;UnexpectedlyDisconnectedInterfaceChecker&lt;/font&gt;&lt;/span&gt;&lt;/span&gt;" style="swimlane;fontStyle=3;align=center;verticalAlign=top;childLayout=stackLayout;horizontal=1;startSize=30;horizontalStack=0;resizeParent=1;resizeLast=0;collapsible=1;marginBottom=0;rounded=0;shadow=0;strokeWidth=1;html=1;" vertex="1" parent="1">
          <mxGeometry x="690" y="430" width="270" height="64" as="geometry">
            <mxRectangle x="230" y="140" width="160" height="26" as="alternateBounds" />
          </mxGeometry>
        </mxCell>
        <mxCell id="ytwfoBpltMiL7q3BF-sH-11" value="" style="line;html=1;strokeWidth=1;align=left;verticalAlign=middle;spacingTop=-1;spacingLeft=3;spacingRight=3;rotatable=0;labelPosition=right;points=[];portConstraint=eastwest;" vertex="1" parent="ytwfoBpltMiL7q3BF-sH-10">
          <mxGeometry y="30" width="270" height="8" as="geometry" />
        </mxCell>
        <mxCell id="ytwfoBpltMiL7q3BF-sH-12" value="+ checkMulfunction(display)" style="text;align=left;verticalAlign=top;spacingLeft=4;spacingRight=4;overflow=hidden;rotatable=0;points=[[0,0.5],[1,0.5]];portConstraint=eastwest;fontStyle=0" vertex="1" parent="ytwfoBpltMiL7q3BF-sH-10">
          <mxGeometry y="38" width="270" height="26" as="geometry" />
        </mxCell>
      </root>
    </mxGraphModel>
  </diagram>
  <diagram id="GOIPqYE_EtDYsBZsIaMU" name="VideoStream">
    <mxGraphModel dx="2322" dy="1242" grid="1" gridSize="10" guides="1" tooltips="1" connect="1" arrows="1" fold="1" page="1" pageScale="1" pageWidth="1100" pageHeight="850" math="0" shadow="0">
      <root>
        <mxCell id="0" />
        <mxCell id="1" parent="0" />
        <mxCell id="WSaN-t5_F95zkuzNZNjL-1" value="VideoStream" style="swimlane;fontStyle=1;align=center;verticalAlign=top;childLayout=stackLayout;horizontal=1;startSize=26;horizontalStack=0;resizeParent=1;resizeLast=0;collapsible=1;marginBottom=0;rounded=0;shadow=0;strokeWidth=1;" vertex="1" parent="1">
          <mxGeometry x="-25" y="378.5" width="180" height="60" as="geometry">
            <mxRectangle x="130" y="380" width="160" height="26" as="alternateBounds" />
          </mxGeometry>
        </mxCell>
        <mxCell id="WSaN-t5_F95zkuzNZNjL-3" value="" style="line;html=1;strokeWidth=1;align=left;verticalAlign=middle;spacingTop=-1;spacingLeft=3;spacingRight=3;rotatable=0;labelPosition=right;points=[];portConstraint=eastwest;fontStyle=0" vertex="1" parent="WSaN-t5_F95zkuzNZNjL-1">
          <mxGeometry y="26" width="180" height="8" as="geometry" />
        </mxCell>
        <mxCell id="WSaN-t5_F95zkuzNZNjL-4" value="+ nextFrame()" style="text;align=left;verticalAlign=top;spacingLeft=4;spacingRight=4;overflow=hidden;rotatable=0;points=[[0,0.5],[1,0.5]];portConstraint=eastwest;fontStyle=0" vertex="1" parent="WSaN-t5_F95zkuzNZNjL-1">
          <mxGeometry y="34" width="180" height="26" as="geometry" />
        </mxCell>
        <mxCell id="WSaN-t5_F95zkuzNZNjL-5" value="VideoFrame" style="swimlane;fontStyle=3;align=center;verticalAlign=top;childLayout=stackLayout;horizontal=1;startSize=30;horizontalStack=0;resizeParent=1;resizeLast=0;collapsible=1;marginBottom=0;rounded=0;shadow=0;strokeWidth=1;html=1;" vertex="1" parent="1">
          <mxGeometry x="240" y="350" width="190" height="117" as="geometry">
            <mxRectangle x="230" y="140" width="160" height="26" as="alternateBounds" />
          </mxGeometry>
        </mxCell>
        <mxCell id="WSaN-t5_F95zkuzNZNjL-6" value="- bottomLeft" style="text;align=left;verticalAlign=top;spacingLeft=4;spacingRight=4;overflow=hidden;rotatable=0;points=[[0,0.5],[1,0.5]];portConstraint=eastwest;fontStyle=0" vertex="1" parent="WSaN-t5_F95zkuzNZNjL-5">
          <mxGeometry y="30" width="190" height="26" as="geometry" />
        </mxCell>
        <mxCell id="WSaN-t5_F95zkuzNZNjL-7" value="- topRight" style="text;align=left;verticalAlign=top;spacingLeft=4;spacingRight=4;overflow=hidden;rotatable=0;points=[[0,0.5],[1,0.5]];portConstraint=eastwest;fontStyle=0" vertex="1" parent="WSaN-t5_F95zkuzNZNjL-5">
          <mxGeometry y="56" width="190" height="26" as="geometry" />
        </mxCell>
        <mxCell id="WSaN-t5_F95zkuzNZNjL-8" value="" style="line;html=1;strokeWidth=1;align=left;verticalAlign=middle;spacingTop=-1;spacingLeft=3;spacingRight=3;rotatable=0;labelPosition=right;points=[];portConstraint=eastwest;" vertex="1" parent="WSaN-t5_F95zkuzNZNjL-5">
          <mxGeometry y="82" width="190" height="8" as="geometry" />
        </mxCell>
        <mxCell id="WSaN-t5_F95zkuzNZNjL-13" value="+ getData()" style="text;align=left;verticalAlign=top;spacingLeft=4;spacingRight=4;overflow=hidden;rotatable=0;points=[[0,0.5],[1,0.5]];portConstraint=eastwest;fontStyle=2" vertex="1" parent="WSaN-t5_F95zkuzNZNjL-5">
          <mxGeometry y="90" width="190" height="26" as="geometry" />
        </mxCell>
        <mxCell id="WSaN-t5_F95zkuzNZNjL-14" style="edgeStyle=orthogonalEdgeStyle;shape=connector;curved=0;rounded=1;orthogonalLoop=1;jettySize=auto;html=1;shadow=0;strokeColor=default;strokeWidth=1;align=center;verticalAlign=middle;fontFamily=Helvetica;fontSize=11;fontColor=default;labelBackgroundColor=default;elbow=vertical;startArrow=none;startFill=0;endArrow=open;endFill=0;endSize=6;" edge="1" parent="1" source="WSaN-t5_F95zkuzNZNjL-4" target="WSaN-t5_F95zkuzNZNjL-5">
          <mxGeometry relative="1" as="geometry">
            <Array as="points">
              <mxPoint x="190" y="420" />
              <mxPoint x="190" y="360" />
            </Array>
          </mxGeometry>
        </mxCell>
        <mxCell id="WSaN-t5_F95zkuzNZNjL-15" style="edgeStyle=orthogonalEdgeStyle;shape=connector;rounded=1;orthogonalLoop=1;jettySize=auto;html=1;shadow=0;strokeColor=default;strokeWidth=1;align=center;verticalAlign=middle;fontFamily=Helvetica;fontSize=11;fontColor=default;labelBackgroundColor=default;elbow=vertical;endArrow=block;endFill=0;endSize=10;" edge="1" parent="1" source="WSaN-t5_F95zkuzNZNjL-16" target="WSaN-t5_F95zkuzNZNjL-5">
          <mxGeometry relative="1" as="geometry">
            <Array as="points">
              <mxPoint x="65" y="500" />
              <mxPoint x="335" y="500" />
            </Array>
          </mxGeometry>
        </mxCell>
        <mxCell id="WSaN-t5_F95zkuzNZNjL-16" value="&lt;span style=&quot;font-style: normal;&quot;&gt;SimpleFrame&lt;/span&gt;" style="swimlane;fontStyle=3;align=center;verticalAlign=top;childLayout=stackLayout;horizontal=1;startSize=30;horizontalStack=0;resizeParent=1;resizeLast=0;collapsible=1;marginBottom=0;rounded=0;shadow=0;strokeWidth=1;html=1;" vertex="1" parent="1">
          <mxGeometry x="-30" y="520" width="190" height="70" as="geometry">
            <mxRectangle x="230" y="140" width="160" height="26" as="alternateBounds" />
          </mxGeometry>
        </mxCell>
        <mxCell id="WSaN-t5_F95zkuzNZNjL-18" value="" style="line;html=1;strokeWidth=1;align=left;verticalAlign=middle;spacingTop=-1;spacingLeft=3;spacingRight=3;rotatable=0;labelPosition=right;points=[];portConstraint=eastwest;" vertex="1" parent="WSaN-t5_F95zkuzNZNjL-16">
          <mxGeometry y="30" width="190" height="8" as="geometry" />
        </mxCell>
        <mxCell id="WSaN-t5_F95zkuzNZNjL-19" value="+ getData()" style="text;align=left;verticalAlign=top;spacingLeft=4;spacingRight=4;overflow=hidden;rotatable=0;points=[[0,0.5],[1,0.5]];portConstraint=eastwest;fontStyle=0" vertex="1" parent="WSaN-t5_F95zkuzNZNjL-16">
          <mxGeometry y="38" width="190" height="26" as="geometry" />
        </mxCell>
        <mxCell id="WSaN-t5_F95zkuzNZNjL-20" style="edgeStyle=orthogonalEdgeStyle;shape=connector;rounded=1;orthogonalLoop=1;jettySize=auto;html=1;shadow=0;strokeColor=default;strokeWidth=1;align=center;verticalAlign=middle;fontFamily=Helvetica;fontSize=11;fontColor=default;labelBackgroundColor=default;elbow=vertical;endArrow=block;endFill=0;endSize=10;" edge="1" parent="1" source="WSaN-t5_F95zkuzNZNjL-21" target="WSaN-t5_F95zkuzNZNjL-5">
          <mxGeometry relative="1" as="geometry" />
        </mxCell>
        <mxCell id="WSaN-t5_F95zkuzNZNjL-21" value="&lt;span style=&quot;font-style: normal;&quot;&gt;ComposedFrame&lt;/span&gt;" style="swimlane;fontStyle=3;align=center;verticalAlign=top;childLayout=stackLayout;horizontal=1;startSize=30;horizontalStack=0;resizeParent=1;resizeLast=0;collapsible=1;marginBottom=0;rounded=0;shadow=0;strokeWidth=1;html=1;" vertex="1" parent="1">
          <mxGeometry x="240" y="520" width="190" height="170" as="geometry">
            <mxRectangle x="230" y="140" width="160" height="26" as="alternateBounds" />
          </mxGeometry>
        </mxCell>
        <mxCell id="WSaN-t5_F95zkuzNZNjL-22" value="~ children" style="text;align=left;verticalAlign=top;spacingLeft=4;spacingRight=4;overflow=hidden;rotatable=0;points=[[0,0.5],[1,0.5]];portConstraint=eastwest;fontStyle=0" vertex="1" parent="WSaN-t5_F95zkuzNZNjL-21">
          <mxGeometry y="30" width="190" height="26" as="geometry" />
        </mxCell>
        <mxCell id="WSaN-t5_F95zkuzNZNjL-23" value="- compositor" style="text;align=left;verticalAlign=top;spacingLeft=4;spacingRight=4;overflow=hidden;rotatable=0;points=[[0,0.5],[1,0.5]];portConstraint=eastwest;fontStyle=0" vertex="1" parent="WSaN-t5_F95zkuzNZNjL-21">
          <mxGeometry y="56" width="190" height="26" as="geometry" />
        </mxCell>
        <mxCell id="WSaN-t5_F95zkuzNZNjL-26" value="" style="line;html=1;strokeWidth=1;align=left;verticalAlign=middle;spacingTop=-1;spacingLeft=3;spacingRight=3;rotatable=0;labelPosition=right;points=[];portConstraint=eastwest;" vertex="1" parent="WSaN-t5_F95zkuzNZNjL-21">
          <mxGeometry y="82" width="190" height="8" as="geometry" />
        </mxCell>
        <mxCell id="WSaN-t5_F95zkuzNZNjL-27" value="+ getData()" style="text;align=left;verticalAlign=top;spacingLeft=4;spacingRight=4;overflow=hidden;rotatable=0;points=[[0,0.5],[1,0.5]];portConstraint=eastwest;fontStyle=0" vertex="1" parent="WSaN-t5_F95zkuzNZNjL-21">
          <mxGeometry y="90" width="190" height="26" as="geometry" />
        </mxCell>
        <mxCell id="WSaN-t5_F95zkuzNZNjL-28" value="+ add(child)" style="text;align=left;verticalAlign=top;spacingLeft=4;spacingRight=4;overflow=hidden;rotatable=0;points=[[0,0.5],[1,0.5]];portConstraint=eastwest;fontStyle=0" vertex="1" parent="WSaN-t5_F95zkuzNZNjL-21">
          <mxGeometry y="116" width="190" height="26" as="geometry" />
        </mxCell>
        <mxCell id="WSaN-t5_F95zkuzNZNjL-29" value="+ remove(child)" style="text;align=left;verticalAlign=top;spacingLeft=4;spacingRight=4;overflow=hidden;rotatable=0;points=[[0,0.5],[1,0.5]];portConstraint=eastwest;fontStyle=0" vertex="1" parent="WSaN-t5_F95zkuzNZNjL-21">
          <mxGeometry y="142" width="190" height="26" as="geometry" />
        </mxCell>
        <mxCell id="WSaN-t5_F95zkuzNZNjL-31" style="edgeStyle=orthogonalEdgeStyle;shape=connector;curved=0;rounded=1;orthogonalLoop=1;jettySize=auto;html=1;shadow=0;strokeColor=default;strokeWidth=1;align=center;verticalAlign=middle;fontFamily=Helvetica;fontSize=11;fontColor=default;labelBackgroundColor=default;elbow=vertical;startArrow=diamondThin;startFill=0;endArrow=open;endFill=0;endSize=6;" edge="1" parent="1" source="WSaN-t5_F95zkuzNZNjL-22" target="WSaN-t5_F95zkuzNZNjL-5">
          <mxGeometry relative="1" as="geometry">
            <Array as="points">
              <mxPoint x="460" y="563" />
              <mxPoint x="460" y="370" />
            </Array>
          </mxGeometry>
        </mxCell>
        <mxCell id="WSaN-t5_F95zkuzNZNjL-32" value="0..*" style="edgeLabel;html=1;align=center;verticalAlign=middle;resizable=0;points=[];fontFamily=Helvetica;fontSize=11;fontColor=default;labelBackgroundColor=default;" vertex="1" connectable="0" parent="WSaN-t5_F95zkuzNZNjL-31">
          <mxGeometry x="-0.9781" y="1" relative="1" as="geometry">
            <mxPoint x="6" y="14" as="offset" />
          </mxGeometry>
        </mxCell>
        <mxCell id="WSaN-t5_F95zkuzNZNjL-33" value="&lt;span style=&quot;font-weight: normal;&quot;&gt;&amp;lt;&amp;lt;interface&amp;gt;&amp;gt;&lt;/span&gt;&lt;br&gt;FrameCompositor" style="swimlane;fontStyle=3;align=center;verticalAlign=top;childLayout=stackLayout;horizontal=1;startSize=40;horizontalStack=0;resizeParent=1;resizeLast=0;collapsible=1;marginBottom=0;rounded=0;shadow=0;strokeWidth=1;html=1;" vertex="1" parent="1">
          <mxGeometry x="-25" y="620" width="180" height="70" as="geometry">
            <mxRectangle x="230" y="140" width="160" height="26" as="alternateBounds" />
          </mxGeometry>
        </mxCell>
        <mxCell id="WSaN-t5_F95zkuzNZNjL-34" value="composeData(frames)" style="text;align=left;verticalAlign=top;spacingLeft=4;spacingRight=4;overflow=hidden;rotatable=0;points=[[0,0.5],[1,0.5]];portConstraint=eastwest;fontStyle=2" vertex="1" parent="WSaN-t5_F95zkuzNZNjL-33">
          <mxGeometry y="40" width="180" height="26" as="geometry" />
        </mxCell>
        <mxCell id="WSaN-t5_F95zkuzNZNjL-35" style="edgeStyle=orthogonalEdgeStyle;shape=connector;curved=0;rounded=1;orthogonalLoop=1;jettySize=auto;html=1;shadow=0;strokeColor=default;strokeWidth=1;align=center;verticalAlign=middle;fontFamily=Helvetica;fontSize=11;fontColor=default;labelBackgroundColor=default;elbow=vertical;startArrow=diamondThin;startFill=0;endArrow=open;endFill=0;endSize=6;" edge="1" parent="1" source="WSaN-t5_F95zkuzNZNjL-23" target="WSaN-t5_F95zkuzNZNjL-33">
          <mxGeometry relative="1" as="geometry">
            <Array as="points">
              <mxPoint x="180" y="589" />
              <mxPoint x="180" y="660" />
            </Array>
          </mxGeometry>
        </mxCell>
        <mxCell id="WSaN-t5_F95zkuzNZNjL-36" value="1" style="edgeLabel;html=1;align=center;verticalAlign=middle;resizable=0;points=[];fontFamily=Helvetica;fontSize=11;fontColor=default;labelBackgroundColor=default;" vertex="1" connectable="0" parent="WSaN-t5_F95zkuzNZNjL-35">
          <mxGeometry x="-0.9191" y="1" relative="1" as="geometry">
            <mxPoint x="-1" y="-11" as="offset" />
          </mxGeometry>
        </mxCell>
      </root>
    </mxGraphModel>
  </diagram>
  <diagram id="rp0kzDn7DLoOuzskIQTf" name="Types">
    <mxGraphModel dx="3112" dy="1614" grid="1" gridSize="10" guides="1" tooltips="1" connect="1" arrows="1" fold="1" page="1" pageScale="1" pageWidth="1100" pageHeight="850" math="0" shadow="0">
      <root>
        <mxCell id="0" />
        <mxCell id="1" parent="0" />
        <mxCell id="5dtcDU3LPRfZW-v1M7sW-1" style="edgeStyle=orthogonalEdgeStyle;shape=connector;rounded=1;orthogonalLoop=1;jettySize=auto;elbow=vertical;html=1;shadow=0;strokeColor=default;strokeWidth=1;align=center;verticalAlign=middle;fontFamily=Helvetica;fontSize=11;fontColor=default;labelBackgroundColor=default;endArrow=open;endFill=0;endSize=6;startArrow=diamondThin;startFill=0;" edge="1" parent="1" source="5dtcDU3LPRfZW-v1M7sW-23" target="5dtcDU3LPRfZW-v1M7sW-187">
          <mxGeometry relative="1" as="geometry">
            <Array as="points">
              <mxPoint x="510" y="660" />
            </Array>
            <mxPoint x="510" y="469.9999999999998" as="targetPoint" />
          </mxGeometry>
        </mxCell>
        <mxCell id="5dtcDU3LPRfZW-v1M7sW-2" value="1" style="edgeLabel;html=1;align=center;verticalAlign=middle;resizable=0;points=[];fontFamily=Helvetica;fontSize=11;fontColor=default;labelBackgroundColor=default;" vertex="1" connectable="0" parent="5dtcDU3LPRfZW-v1M7sW-1">
          <mxGeometry x="-0.9597" y="2" relative="1" as="geometry">
            <mxPoint x="6" y="-12" as="offset" />
          </mxGeometry>
        </mxCell>
        <mxCell id="5dtcDU3LPRfZW-v1M7sW-3" value="&lt;span style=&quot;font-weight: normal;&quot;&gt;&amp;lt;&amp;lt;interface&amp;gt;&amp;gt;&lt;/span&gt;&lt;br&gt;Display" style="swimlane;fontStyle=3;align=center;verticalAlign=top;childLayout=stackLayout;horizontal=1;startSize=40;horizontalStack=0;resizeParent=1;resizeLast=0;collapsible=1;marginBottom=0;rounded=0;shadow=0;strokeWidth=1;html=1;" vertex="1" parent="1">
          <mxGeometry x="690" y="50" width="220" height="456" as="geometry">
            <mxRectangle x="230" y="140" width="160" height="26" as="alternateBounds" />
          </mxGeometry>
        </mxCell>
        <mxCell id="5dtcDU3LPRfZW-v1M7sW-4" value="displayStream()" style="text;align=left;verticalAlign=top;spacingLeft=4;spacingRight=4;overflow=hidden;rotatable=0;points=[[0,0.5],[1,0.5]];portConstraint=eastwest;fontStyle=2" vertex="1" parent="5dtcDU3LPRfZW-v1M7sW-3">
          <mxGeometry y="40" width="220" height="26" as="geometry" />
        </mxCell>
        <mxCell id="5dtcDU3LPRfZW-v1M7sW-5" value="displayMenu()" style="text;align=left;verticalAlign=top;spacingLeft=4;spacingRight=4;overflow=hidden;rotatable=0;points=[[0,0.5],[1,0.5]];portConstraint=eastwest;fontStyle=2" vertex="1" parent="5dtcDU3LPRfZW-v1M7sW-3">
          <mxGeometry y="66" width="220" height="26" as="geometry" />
        </mxCell>
        <mxCell id="5dtcDU3LPRfZW-v1M7sW-6" value="displayError(message)" style="text;align=left;verticalAlign=top;spacingLeft=4;spacingRight=4;overflow=hidden;rotatable=0;points=[[0,0.5],[1,0.5]];portConstraint=eastwest;fontStyle=2" vertex="1" parent="5dtcDU3LPRfZW-v1M7sW-3">
          <mxGeometry y="92" width="220" height="26" as="geometry" />
        </mxCell>
        <mxCell id="5dtcDU3LPRfZW-v1M7sW-7" value="getSupportedInterfaces()" style="text;align=left;verticalAlign=top;spacingLeft=4;spacingRight=4;overflow=hidden;rotatable=0;points=[[0,0.5],[1,0.5]];portConstraint=eastwest;fontStyle=2" vertex="1" parent="5dtcDU3LPRfZW-v1M7sW-3">
          <mxGeometry y="118" width="220" height="26" as="geometry" />
        </mxCell>
        <mxCell id="5dtcDU3LPRfZW-v1M7sW-8" value="setBrightness(newBrightness)" style="text;align=left;verticalAlign=top;spacingLeft=4;spacingRight=4;overflow=hidden;rotatable=0;points=[[0,0.5],[1,0.5]];portConstraint=eastwest;fontStyle=2" vertex="1" parent="5dtcDU3LPRfZW-v1M7sW-3">
          <mxGeometry y="144" width="220" height="26" as="geometry" />
        </mxCell>
        <mxCell id="5dtcDU3LPRfZW-v1M7sW-9" value="getBrightness()" style="text;align=left;verticalAlign=top;spacingLeft=4;spacingRight=4;overflow=hidden;rotatable=0;points=[[0,0.5],[1,0.5]];portConstraint=eastwest;fontStyle=2" vertex="1" parent="5dtcDU3LPRfZW-v1M7sW-3">
          <mxGeometry y="170" width="220" height="26" as="geometry" />
        </mxCell>
        <mxCell id="5dtcDU3LPRfZW-v1M7sW-10" value="setColorTemperature(newTemperature)" style="text;align=left;verticalAlign=top;spacingLeft=4;spacingRight=4;overflow=hidden;rotatable=0;points=[[0,0.5],[1,0.5]];portConstraint=eastwest;fontStyle=2" vertex="1" parent="5dtcDU3LPRfZW-v1M7sW-3">
          <mxGeometry y="196" width="220" height="26" as="geometry" />
        </mxCell>
        <mxCell id="5dtcDU3LPRfZW-v1M7sW-11" value="getColorTemperature()" style="text;align=left;verticalAlign=top;spacingLeft=4;spacingRight=4;overflow=hidden;rotatable=0;points=[[0,0.5],[1,0.5]];portConstraint=eastwest;fontStyle=2" vertex="1" parent="5dtcDU3LPRfZW-v1M7sW-3">
          <mxGeometry y="222" width="220" height="26" as="geometry" />
        </mxCell>
        <mxCell id="5dtcDU3LPRfZW-v1M7sW-12" value="setResolution(resolution)" style="text;align=left;verticalAlign=top;spacingLeft=4;spacingRight=4;overflow=hidden;rotatable=0;points=[[0,0.5],[1,0.5]];portConstraint=eastwest;fontStyle=2" vertex="1" parent="5dtcDU3LPRfZW-v1M7sW-3">
          <mxGeometry y="248" width="220" height="26" as="geometry" />
        </mxCell>
        <mxCell id="5dtcDU3LPRfZW-v1M7sW-13" value="getResolution()" style="text;align=left;verticalAlign=top;spacingLeft=4;spacingRight=4;overflow=hidden;rotatable=0;points=[[0,0.5],[1,0.5]];portConstraint=eastwest;fontStyle=2" vertex="1" parent="5dtcDU3LPRfZW-v1M7sW-3">
          <mxGeometry y="274" width="220" height="26" as="geometry" />
        </mxCell>
        <mxCell id="5dtcDU3LPRfZW-v1M7sW-14" value="connectInterface(videoInterface)" style="text;align=left;verticalAlign=top;spacingLeft=4;spacingRight=4;overflow=hidden;rotatable=0;points=[[0,0.5],[1,0.5]];portConstraint=eastwest;fontStyle=2" vertex="1" parent="5dtcDU3LPRfZW-v1M7sW-3">
          <mxGeometry y="300" width="220" height="26" as="geometry" />
        </mxCell>
        <mxCell id="5dtcDU3LPRfZW-v1M7sW-15" value="disconnectInterface(videoInterface)" style="text;align=left;verticalAlign=top;spacingLeft=4;spacingRight=4;overflow=hidden;rotatable=0;points=[[0,0.5],[1,0.5]];portConstraint=eastwest;fontStyle=2" vertex="1" parent="5dtcDU3LPRfZW-v1M7sW-3">
          <mxGeometry y="326" width="220" height="26" as="geometry" />
        </mxCell>
        <mxCell id="5dtcDU3LPRfZW-v1M7sW-16" value="getConnectedInterfaces()" style="text;align=left;verticalAlign=top;spacingLeft=4;spacingRight=4;overflow=hidden;rotatable=0;points=[[0,0.5],[1,0.5]];portConstraint=eastwest;fontStyle=2" vertex="1" parent="5dtcDU3LPRfZW-v1M7sW-3">
          <mxGeometry y="352" width="220" height="26" as="geometry" />
        </mxCell>
        <mxCell id="5dtcDU3LPRfZW-v1M7sW-17" value="selectInputInterface(videoInterface)" style="text;align=left;verticalAlign=top;spacingLeft=4;spacingRight=4;overflow=hidden;rotatable=0;points=[[0,0.5],[1,0.5]];portConstraint=eastwest;fontStyle=2" vertex="1" parent="5dtcDU3LPRfZW-v1M7sW-3">
          <mxGeometry y="378" width="220" height="26" as="geometry" />
        </mxCell>
        <mxCell id="5dtcDU3LPRfZW-v1M7sW-18" value="getSelectedInterface()" style="text;align=left;verticalAlign=top;spacingLeft=4;spacingRight=4;overflow=hidden;rotatable=0;points=[[0,0.5],[1,0.5]];portConstraint=eastwest;fontStyle=2" vertex="1" parent="5dtcDU3LPRfZW-v1M7sW-3">
          <mxGeometry y="404" width="220" height="26" as="geometry" />
        </mxCell>
        <mxCell id="5dtcDU3LPRfZW-v1M7sW-19" value="malfunctionTest(checker)" style="text;align=left;verticalAlign=top;spacingLeft=4;spacingRight=4;overflow=hidden;rotatable=0;points=[[0,0.5],[1,0.5]];portConstraint=eastwest;fontStyle=2" vertex="1" parent="5dtcDU3LPRfZW-v1M7sW-3">
          <mxGeometry y="430" width="220" height="26" as="geometry" />
        </mxCell>
        <mxCell id="5dtcDU3LPRfZW-v1M7sW-20" value="StandardDisplay" style="swimlane;fontStyle=1;align=center;verticalAlign=top;childLayout=stackLayout;horizontal=1;startSize=26;horizontalStack=0;resizeParent=1;resizeLast=0;collapsible=1;marginBottom=0;rounded=0;shadow=0;strokeWidth=1;" vertex="1" parent="1">
          <mxGeometry x="540" y="570" width="230" height="632" as="geometry">
            <mxRectangle x="130" y="380" width="160" height="26" as="alternateBounds" />
          </mxGeometry>
        </mxCell>
        <mxCell id="5dtcDU3LPRfZW-v1M7sW-21" value="- maxNits" style="text;align=left;verticalAlign=top;spacingLeft=4;spacingRight=4;overflow=hidden;rotatable=0;points=[[0,0.5],[1,0.5]];portConstraint=eastwest;" vertex="1" parent="5dtcDU3LPRfZW-v1M7sW-20">
          <mxGeometry y="26" width="230" height="26" as="geometry" />
        </mxCell>
        <mxCell id="5dtcDU3LPRfZW-v1M7sW-22" value="- supportedResolutions" style="text;align=left;verticalAlign=top;spacingLeft=4;spacingRight=4;overflow=hidden;rotatable=0;points=[[0,0.5],[1,0.5]];portConstraint=eastwest;" vertex="1" parent="5dtcDU3LPRfZW-v1M7sW-20">
          <mxGeometry y="52" width="230" height="26" as="geometry" />
        </mxCell>
        <mxCell id="5dtcDU3LPRfZW-v1M7sW-23" value="- channel" style="text;align=left;verticalAlign=top;spacingLeft=4;spacingRight=4;overflow=hidden;rotatable=0;points=[[0,0.5],[1,0.5]];portConstraint=eastwest;" vertex="1" parent="5dtcDU3LPRfZW-v1M7sW-20">
          <mxGeometry y="78" width="230" height="26" as="geometry" />
        </mxCell>
        <mxCell id="5dtcDU3LPRfZW-v1M7sW-24" value="- supportedInterfaces" style="text;align=left;verticalAlign=top;spacingLeft=4;spacingRight=4;overflow=hidden;rotatable=0;points=[[0,0.5],[1,0.5]];portConstraint=eastwest;" vertex="1" parent="5dtcDU3LPRfZW-v1M7sW-20">
          <mxGeometry y="104" width="230" height="26" as="geometry" />
        </mxCell>
        <mxCell id="5dtcDU3LPRfZW-v1M7sW-25" value="~ currentNits" style="text;align=left;verticalAlign=top;spacingLeft=4;spacingRight=4;overflow=hidden;rotatable=0;points=[[0,0.5],[1,0.5]];portConstraint=eastwest;" vertex="1" parent="5dtcDU3LPRfZW-v1M7sW-20">
          <mxGeometry y="130" width="230" height="26" as="geometry" />
        </mxCell>
        <mxCell id="5dtcDU3LPRfZW-v1M7sW-26" value="~ colorTemperature" style="text;align=left;verticalAlign=top;spacingLeft=4;spacingRight=4;overflow=hidden;rotatable=0;points=[[0,0.5],[1,0.5]];portConstraint=eastwest;" vertex="1" parent="5dtcDU3LPRfZW-v1M7sW-20">
          <mxGeometry y="156" width="230" height="26" as="geometry" />
        </mxCell>
        <mxCell id="5dtcDU3LPRfZW-v1M7sW-27" value="~ resolution" style="text;align=left;verticalAlign=top;spacingLeft=4;spacingRight=4;overflow=hidden;rotatable=0;points=[[0,0.5],[1,0.5]];portConstraint=eastwest;" vertex="1" parent="5dtcDU3LPRfZW-v1M7sW-20">
          <mxGeometry y="182" width="230" height="26" as="geometry" />
        </mxCell>
        <mxCell id="5dtcDU3LPRfZW-v1M7sW-28" value="~ selectedInterface" style="text;align=left;verticalAlign=top;spacingLeft=4;spacingRight=4;overflow=hidden;rotatable=0;points=[[0,0.5],[1,0.5]];portConstraint=eastwest;" vertex="1" parent="5dtcDU3LPRfZW-v1M7sW-20">
          <mxGeometry y="208" width="230" height="26" as="geometry" />
        </mxCell>
        <mxCell id="5dtcDU3LPRfZW-v1M7sW-29" value="~ connectedInterfaces" style="text;align=left;verticalAlign=top;spacingLeft=4;spacingRight=4;overflow=hidden;rotatable=0;points=[[0,0.5],[1,0.5]];portConstraint=eastwest;" vertex="1" parent="5dtcDU3LPRfZW-v1M7sW-20">
          <mxGeometry y="234" width="230" height="26" as="geometry" />
        </mxCell>
        <mxCell id="5dtcDU3LPRfZW-v1M7sW-30" value="" style="line;html=1;strokeWidth=1;align=left;verticalAlign=middle;spacingTop=-1;spacingLeft=3;spacingRight=3;rotatable=0;labelPosition=right;points=[];portConstraint=eastwest;fontStyle=0" vertex="1" parent="5dtcDU3LPRfZW-v1M7sW-20">
          <mxGeometry y="260" width="230" height="8" as="geometry" />
        </mxCell>
        <mxCell id="5dtcDU3LPRfZW-v1M7sW-31" value="+ displayStream()" style="text;align=left;verticalAlign=top;spacingLeft=4;spacingRight=4;overflow=hidden;rotatable=0;points=[[0,0.5],[1,0.5]];portConstraint=eastwest;fontStyle=0" vertex="1" parent="5dtcDU3LPRfZW-v1M7sW-20">
          <mxGeometry y="268" width="230" height="26" as="geometry" />
        </mxCell>
        <mxCell id="5dtcDU3LPRfZW-v1M7sW-32" value="+ displayMenu()" style="text;align=left;verticalAlign=top;spacingLeft=4;spacingRight=4;overflow=hidden;rotatable=0;points=[[0,0.5],[1,0.5]];portConstraint=eastwest;fontStyle=0" vertex="1" parent="5dtcDU3LPRfZW-v1M7sW-20">
          <mxGeometry y="294" width="230" height="26" as="geometry" />
        </mxCell>
        <mxCell id="5dtcDU3LPRfZW-v1M7sW-33" value="+ displayError(message)" style="text;align=left;verticalAlign=top;spacingLeft=4;spacingRight=4;overflow=hidden;rotatable=0;points=[[0,0.5],[1,0.5]];portConstraint=eastwest;fontStyle=0" vertex="1" parent="5dtcDU3LPRfZW-v1M7sW-20">
          <mxGeometry y="320" width="230" height="26" as="geometry" />
        </mxCell>
        <mxCell id="5dtcDU3LPRfZW-v1M7sW-34" value="+ setBrightness(newBrightness)" style="text;align=left;verticalAlign=top;spacingLeft=4;spacingRight=4;overflow=hidden;rotatable=0;points=[[0,0.5],[1,0.5]];portConstraint=eastwest;fontStyle=0" vertex="1" parent="5dtcDU3LPRfZW-v1M7sW-20">
          <mxGeometry y="346" width="230" height="26" as="geometry" />
        </mxCell>
        <mxCell id="5dtcDU3LPRfZW-v1M7sW-35" value="+ getBrightness()" style="text;align=left;verticalAlign=top;spacingLeft=4;spacingRight=4;overflow=hidden;rotatable=0;points=[[0,0.5],[1,0.5]];portConstraint=eastwest;fontStyle=0" vertex="1" parent="5dtcDU3LPRfZW-v1M7sW-20">
          <mxGeometry y="372" width="230" height="26" as="geometry" />
        </mxCell>
        <mxCell id="5dtcDU3LPRfZW-v1M7sW-36" value="+ setColorTemperature(newTemperature)" style="text;align=left;verticalAlign=top;spacingLeft=4;spacingRight=4;overflow=hidden;rotatable=0;points=[[0,0.5],[1,0.5]];portConstraint=eastwest;fontStyle=0" vertex="1" parent="5dtcDU3LPRfZW-v1M7sW-20">
          <mxGeometry y="398" width="230" height="26" as="geometry" />
        </mxCell>
        <mxCell id="5dtcDU3LPRfZW-v1M7sW-37" value="+ setResolution(resolution)" style="text;align=left;verticalAlign=top;spacingLeft=4;spacingRight=4;overflow=hidden;rotatable=0;points=[[0,0.5],[1,0.5]];portConstraint=eastwest;fontStyle=0" vertex="1" parent="5dtcDU3LPRfZW-v1M7sW-20">
          <mxGeometry y="424" width="230" height="26" as="geometry" />
        </mxCell>
        <mxCell id="5dtcDU3LPRfZW-v1M7sW-38" value="+ getResolution()" style="text;align=left;verticalAlign=top;spacingLeft=4;spacingRight=4;overflow=hidden;rotatable=0;points=[[0,0.5],[1,0.5]];portConstraint=eastwest;fontStyle=0" vertex="1" parent="5dtcDU3LPRfZW-v1M7sW-20">
          <mxGeometry y="450" width="230" height="26" as="geometry" />
        </mxCell>
        <mxCell id="5dtcDU3LPRfZW-v1M7sW-39" value="+ connectInterface(videoInterface)" style="text;align=left;verticalAlign=top;spacingLeft=4;spacingRight=4;overflow=hidden;rotatable=0;points=[[0,0.5],[1,0.5]];portConstraint=eastwest;fontStyle=0" vertex="1" parent="5dtcDU3LPRfZW-v1M7sW-20">
          <mxGeometry y="476" width="230" height="26" as="geometry" />
        </mxCell>
        <mxCell id="5dtcDU3LPRfZW-v1M7sW-40" value="+ disconnectInterface(videoInterface)" style="text;align=left;verticalAlign=top;spacingLeft=4;spacingRight=4;overflow=hidden;rotatable=0;points=[[0,0.5],[1,0.5]];portConstraint=eastwest;fontStyle=0" vertex="1" parent="5dtcDU3LPRfZW-v1M7sW-20">
          <mxGeometry y="502" width="230" height="26" as="geometry" />
        </mxCell>
        <mxCell id="5dtcDU3LPRfZW-v1M7sW-41" value="+ getConnectedInterfaces()" style="text;align=left;verticalAlign=top;spacingLeft=4;spacingRight=4;overflow=hidden;rotatable=0;points=[[0,0.5],[1,0.5]];portConstraint=eastwest;fontStyle=0" vertex="1" parent="5dtcDU3LPRfZW-v1M7sW-20">
          <mxGeometry y="528" width="230" height="26" as="geometry" />
        </mxCell>
        <mxCell id="5dtcDU3LPRfZW-v1M7sW-42" value="+ selectInputInterface(videoInterface)" style="text;align=left;verticalAlign=top;spacingLeft=4;spacingRight=4;overflow=hidden;rotatable=0;points=[[0,0.5],[1,0.5]];portConstraint=eastwest;fontStyle=0" vertex="1" parent="5dtcDU3LPRfZW-v1M7sW-20">
          <mxGeometry y="554" width="230" height="26" as="geometry" />
        </mxCell>
        <mxCell id="5dtcDU3LPRfZW-v1M7sW-43" value="+ getSelectedInterface()" style="text;align=left;verticalAlign=top;spacingLeft=4;spacingRight=4;overflow=hidden;rotatable=0;points=[[0,0.5],[1,0.5]];portConstraint=eastwest;fontStyle=0" vertex="1" parent="5dtcDU3LPRfZW-v1M7sW-20">
          <mxGeometry y="580" width="230" height="26" as="geometry" />
        </mxCell>
        <mxCell id="5dtcDU3LPRfZW-v1M7sW-44" value="+ malfunctionTest(checker)" style="text;align=left;verticalAlign=top;spacingLeft=4;spacingRight=4;overflow=hidden;rotatable=0;points=[[0,0.5],[1,0.5]];portConstraint=eastwest;fontStyle=0" vertex="1" parent="5dtcDU3LPRfZW-v1M7sW-20">
          <mxGeometry y="606" width="230" height="26" as="geometry" />
        </mxCell>
        <mxCell id="5dtcDU3LPRfZW-v1M7sW-45" value="" style="endArrow=block;endSize=10;endFill=0;shadow=0;strokeWidth=1;rounded=1;edgeStyle=orthogonalEdgeStyle;elbow=vertical;" edge="1" parent="1" source="5dtcDU3LPRfZW-v1M7sW-20" target="5dtcDU3LPRfZW-v1M7sW-3">
          <mxGeometry width="160" relative="1" as="geometry">
            <mxPoint x="700" y="183" as="sourcePoint" />
            <mxPoint x="700" y="183" as="targetPoint" />
          </mxGeometry>
        </mxCell>
        <mxCell id="5dtcDU3LPRfZW-v1M7sW-46" value="DisplayWithSensorDecorator" style="swimlane;fontStyle=3;align=center;verticalAlign=top;childLayout=stackLayout;horizontal=1;startSize=26;horizontalStack=0;resizeParent=1;resizeLast=0;collapsible=1;marginBottom=0;rounded=0;shadow=0;strokeWidth=1;" vertex="1" parent="1">
          <mxGeometry x="820" y="570" width="230" height="511" as="geometry">
            <mxRectangle x="340" y="380" width="170" height="26" as="alternateBounds" />
          </mxGeometry>
        </mxCell>
        <mxCell id="5dtcDU3LPRfZW-v1M7sW-47" value="~ component" style="text;align=left;verticalAlign=top;spacingLeft=4;spacingRight=4;overflow=hidden;rotatable=0;points=[[0,0.5],[1,0.5]];portConstraint=eastwest;" vertex="1" parent="5dtcDU3LPRfZW-v1M7sW-46">
          <mxGeometry y="26" width="230" height="26" as="geometry" />
        </mxCell>
        <mxCell id="5dtcDU3LPRfZW-v1M7sW-48" value="- sensor" style="text;align=left;verticalAlign=top;spacingLeft=4;spacingRight=4;overflow=hidden;rotatable=0;points=[[0,0.5],[1,0.5]];portConstraint=eastwest;" vertex="1" parent="5dtcDU3LPRfZW-v1M7sW-46">
          <mxGeometry y="52" width="230" height="26" as="geometry" />
        </mxCell>
        <mxCell id="5dtcDU3LPRfZW-v1M7sW-49" value="" style="line;html=1;strokeWidth=1;align=left;verticalAlign=middle;spacingTop=-1;spacingLeft=3;spacingRight=3;rotatable=0;labelPosition=right;points=[];portConstraint=eastwest;" vertex="1" parent="5dtcDU3LPRfZW-v1M7sW-46">
          <mxGeometry y="78" width="230" height="8" as="geometry" />
        </mxCell>
        <mxCell id="5dtcDU3LPRfZW-v1M7sW-50" value="+ displayStream()" style="text;align=left;verticalAlign=top;spacingLeft=4;spacingRight=4;overflow=hidden;rotatable=0;points=[[0,0.5],[1,0.5]];portConstraint=eastwest;fontStyle=0" vertex="1" parent="5dtcDU3LPRfZW-v1M7sW-46">
          <mxGeometry y="86" width="230" height="26" as="geometry" />
        </mxCell>
        <mxCell id="5dtcDU3LPRfZW-v1M7sW-51" value="+ displayMenu()" style="text;align=left;verticalAlign=top;spacingLeft=4;spacingRight=4;overflow=hidden;rotatable=0;points=[[0,0.5],[1,0.5]];portConstraint=eastwest;fontStyle=0" vertex="1" parent="5dtcDU3LPRfZW-v1M7sW-46">
          <mxGeometry y="112" width="230" height="26" as="geometry" />
        </mxCell>
        <mxCell id="5dtcDU3LPRfZW-v1M7sW-52" value="+ displayError(message)" style="text;align=left;verticalAlign=top;spacingLeft=4;spacingRight=4;overflow=hidden;rotatable=0;points=[[0,0.5],[1,0.5]];portConstraint=eastwest;fontStyle=0" vertex="1" parent="5dtcDU3LPRfZW-v1M7sW-46">
          <mxGeometry y="138" width="230" height="26" as="geometry" />
        </mxCell>
        <mxCell id="5dtcDU3LPRfZW-v1M7sW-53" value="+ setBrightness(newBrightness)" style="text;align=left;verticalAlign=top;spacingLeft=4;spacingRight=4;overflow=hidden;rotatable=0;points=[[0,0.5],[1,0.5]];portConstraint=eastwest;fontStyle=0" vertex="1" parent="5dtcDU3LPRfZW-v1M7sW-46">
          <mxGeometry y="164" width="230" height="26" as="geometry" />
        </mxCell>
        <mxCell id="5dtcDU3LPRfZW-v1M7sW-54" value="+ getBrightness()" style="text;align=left;verticalAlign=top;spacingLeft=4;spacingRight=4;overflow=hidden;rotatable=0;points=[[0,0.5],[1,0.5]];portConstraint=eastwest;fontStyle=0" vertex="1" parent="5dtcDU3LPRfZW-v1M7sW-46">
          <mxGeometry y="190" width="230" height="26" as="geometry" />
        </mxCell>
        <mxCell id="5dtcDU3LPRfZW-v1M7sW-55" value="+ setColorTemperature(newTemperature)" style="text;align=left;verticalAlign=top;spacingLeft=4;spacingRight=4;overflow=hidden;rotatable=0;points=[[0,0.5],[1,0.5]];portConstraint=eastwest;fontStyle=0" vertex="1" parent="5dtcDU3LPRfZW-v1M7sW-46">
          <mxGeometry y="216" width="230" height="26" as="geometry" />
        </mxCell>
        <mxCell id="5dtcDU3LPRfZW-v1M7sW-56" value="+ setResolution(resolution)" style="text;align=left;verticalAlign=top;spacingLeft=4;spacingRight=4;overflow=hidden;rotatable=0;points=[[0,0.5],[1,0.5]];portConstraint=eastwest;fontStyle=0" vertex="1" parent="5dtcDU3LPRfZW-v1M7sW-46">
          <mxGeometry y="242" width="230" height="26" as="geometry" />
        </mxCell>
        <mxCell id="5dtcDU3LPRfZW-v1M7sW-57" value="+ getResolution()" style="text;align=left;verticalAlign=top;spacingLeft=4;spacingRight=4;overflow=hidden;rotatable=0;points=[[0,0.5],[1,0.5]];portConstraint=eastwest;fontStyle=0" vertex="1" parent="5dtcDU3LPRfZW-v1M7sW-46">
          <mxGeometry y="268" width="230" height="26" as="geometry" />
        </mxCell>
        <mxCell id="5dtcDU3LPRfZW-v1M7sW-58" value="+ connectInterface(videoInterface)" style="text;align=left;verticalAlign=top;spacingLeft=4;spacingRight=4;overflow=hidden;rotatable=0;points=[[0,0.5],[1,0.5]];portConstraint=eastwest;fontStyle=0" vertex="1" parent="5dtcDU3LPRfZW-v1M7sW-46">
          <mxGeometry y="294" width="230" height="26" as="geometry" />
        </mxCell>
        <mxCell id="5dtcDU3LPRfZW-v1M7sW-59" value="+ disconnectInterface(videoInterface)" style="text;align=left;verticalAlign=top;spacingLeft=4;spacingRight=4;overflow=hidden;rotatable=0;points=[[0,0.5],[1,0.5]];portConstraint=eastwest;fontStyle=0" vertex="1" parent="5dtcDU3LPRfZW-v1M7sW-46">
          <mxGeometry y="320" width="230" height="26" as="geometry" />
        </mxCell>
        <mxCell id="5dtcDU3LPRfZW-v1M7sW-60" value="+ getConnectedInterfaces()" style="text;align=left;verticalAlign=top;spacingLeft=4;spacingRight=4;overflow=hidden;rotatable=0;points=[[0,0.5],[1,0.5]];portConstraint=eastwest;fontStyle=0" vertex="1" parent="5dtcDU3LPRfZW-v1M7sW-46">
          <mxGeometry y="346" width="230" height="26" as="geometry" />
        </mxCell>
        <mxCell id="5dtcDU3LPRfZW-v1M7sW-61" value="+ selectInputInterface(videoInterface)" style="text;align=left;verticalAlign=top;spacingLeft=4;spacingRight=4;overflow=hidden;rotatable=0;points=[[0,0.5],[1,0.5]];portConstraint=eastwest;fontStyle=0" vertex="1" parent="5dtcDU3LPRfZW-v1M7sW-46">
          <mxGeometry y="372" width="230" height="26" as="geometry" />
        </mxCell>
        <mxCell id="5dtcDU3LPRfZW-v1M7sW-62" value="+ getSelectedInterface()" style="text;align=left;verticalAlign=top;spacingLeft=4;spacingRight=4;overflow=hidden;rotatable=0;points=[[0,0.5],[1,0.5]];portConstraint=eastwest;fontStyle=0" vertex="1" parent="5dtcDU3LPRfZW-v1M7sW-46">
          <mxGeometry y="398" width="230" height="26" as="geometry" />
        </mxCell>
        <mxCell id="5dtcDU3LPRfZW-v1M7sW-63" value="+ malfunctionTest(checker)" style="text;align=left;verticalAlign=top;spacingLeft=4;spacingRight=4;overflow=hidden;rotatable=0;points=[[0,0.5],[1,0.5]];portConstraint=eastwest;fontStyle=0" vertex="1" parent="5dtcDU3LPRfZW-v1M7sW-46">
          <mxGeometry y="424" width="230" height="29" as="geometry" />
        </mxCell>
        <mxCell id="5dtcDU3LPRfZW-v1M7sW-64" value="+ setBestConfiguration()" style="text;align=left;verticalAlign=top;spacingLeft=4;spacingRight=4;overflow=hidden;rotatable=0;points=[[0,0.5],[1,0.5]];portConstraint=eastwest;fontStyle=0" vertex="1" parent="5dtcDU3LPRfZW-v1M7sW-46">
          <mxGeometry y="453" width="230" height="29" as="geometry" />
        </mxCell>
        <mxCell id="5dtcDU3LPRfZW-v1M7sW-65" value="# setValue(measure)" style="text;align=left;verticalAlign=top;spacingLeft=4;spacingRight=4;overflow=hidden;rotatable=0;points=[[0,0.5],[1,0.5]];portConstraint=eastwest;fontStyle=0" vertex="1" parent="5dtcDU3LPRfZW-v1M7sW-46">
          <mxGeometry y="482" width="230" height="29" as="geometry" />
        </mxCell>
        <mxCell id="5dtcDU3LPRfZW-v1M7sW-66" value="" style="endArrow=block;endSize=10;endFill=0;shadow=0;strokeWidth=1;rounded=1;edgeStyle=orthogonalEdgeStyle;elbow=vertical;" edge="1" parent="1" source="5dtcDU3LPRfZW-v1M7sW-46" target="5dtcDU3LPRfZW-v1M7sW-3">
          <mxGeometry width="160" relative="1" as="geometry">
            <mxPoint x="710" y="353" as="sourcePoint" />
            <mxPoint x="810" y="251" as="targetPoint" />
          </mxGeometry>
        </mxCell>
        <mxCell id="5dtcDU3LPRfZW-v1M7sW-67" value="" style="endArrow=open;shadow=0;strokeWidth=1;rounded=1;endFill=1;edgeStyle=orthogonalEdgeStyle;elbow=vertical;" edge="1" parent="1" source="5dtcDU3LPRfZW-v1M7sW-19" target="5dtcDU3LPRfZW-v1M7sW-112">
          <mxGeometry x="0.5" y="41" relative="1" as="geometry">
            <mxPoint x="880" y="172" as="sourcePoint" />
            <mxPoint x="1008" y="207.79999999999995" as="targetPoint" />
            <mxPoint x="-40" y="32" as="offset" />
            <Array as="points">
              <mxPoint x="940" y="493" />
              <mxPoint x="940" y="300" />
            </Array>
          </mxGeometry>
        </mxCell>
        <mxCell id="5dtcDU3LPRfZW-v1M7sW-68" style="edgeStyle=orthogonalEdgeStyle;shape=connector;rounded=1;orthogonalLoop=1;jettySize=auto;elbow=vertical;html=1;shadow=0;strokeColor=default;strokeWidth=1;align=center;verticalAlign=middle;fontFamily=Helvetica;fontSize=11;fontColor=default;labelBackgroundColor=default;endArrow=block;endFill=0;endSize=10;" edge="1" parent="1" source="5dtcDU3LPRfZW-v1M7sW-69" target="5dtcDU3LPRfZW-v1M7sW-46">
          <mxGeometry relative="1" as="geometry" />
        </mxCell>
        <mxCell id="5dtcDU3LPRfZW-v1M7sW-69" value="DisplayWithBrightnessSensorDecorator" style="swimlane;fontStyle=1;align=center;verticalAlign=top;childLayout=stackLayout;horizontal=1;startSize=26;horizontalStack=0;resizeParent=1;resizeLast=0;collapsible=1;marginBottom=0;rounded=0;shadow=0;strokeWidth=1;" vertex="1" parent="1">
          <mxGeometry x="660" y="1220" width="260" height="147" as="geometry">
            <mxRectangle x="340" y="380" width="170" height="26" as="alternateBounds" />
          </mxGeometry>
        </mxCell>
        <mxCell id="5dtcDU3LPRfZW-v1M7sW-70" value="- DEFAULT_SATURATION_LUX = 10000.0 lx" style="text;align=left;verticalAlign=top;spacingLeft=4;spacingRight=4;overflow=hidden;rotatable=0;points=[[0,0.5],[1,0.5]];portConstraint=eastwest;fontStyle=4" vertex="1" parent="5dtcDU3LPRfZW-v1M7sW-69">
          <mxGeometry y="26" width="260" height="26" as="geometry" />
        </mxCell>
        <mxCell id="5dtcDU3LPRfZW-v1M7sW-71" value="- saturationLuxAmount" style="text;align=left;verticalAlign=top;spacingLeft=4;spacingRight=4;overflow=hidden;rotatable=0;points=[[0,0.5],[1,0.5]];portConstraint=eastwest;" vertex="1" parent="5dtcDU3LPRfZW-v1M7sW-69">
          <mxGeometry y="52" width="260" height="26" as="geometry" />
        </mxCell>
        <mxCell id="5dtcDU3LPRfZW-v1M7sW-72" value="" style="line;html=1;strokeWidth=1;align=left;verticalAlign=middle;spacingTop=-1;spacingLeft=3;spacingRight=3;rotatable=0;labelPosition=right;points=[];portConstraint=eastwest;" vertex="1" parent="5dtcDU3LPRfZW-v1M7sW-69">
          <mxGeometry y="78" width="260" height="8" as="geometry" />
        </mxCell>
        <mxCell id="5dtcDU3LPRfZW-v1M7sW-73" value="# setValue(measure)" style="text;align=left;verticalAlign=top;spacingLeft=4;spacingRight=4;overflow=hidden;rotatable=0;points=[[0,0.5],[1,0.5]];portConstraint=eastwest;fontStyle=0" vertex="1" parent="5dtcDU3LPRfZW-v1M7sW-69">
          <mxGeometry y="86" width="260" height="29" as="geometry" />
        </mxCell>
        <mxCell id="5dtcDU3LPRfZW-v1M7sW-74" value="- calculateBrightness(measure)" style="text;align=left;verticalAlign=top;spacingLeft=4;spacingRight=4;overflow=hidden;rotatable=0;points=[[0,0.5],[1,0.5]];portConstraint=eastwest;fontStyle=0" vertex="1" parent="5dtcDU3LPRfZW-v1M7sW-69">
          <mxGeometry y="115" width="260" height="29" as="geometry" />
        </mxCell>
        <mxCell id="5dtcDU3LPRfZW-v1M7sW-75" style="edgeStyle=orthogonalEdgeStyle;shape=connector;rounded=1;orthogonalLoop=1;jettySize=auto;elbow=vertical;html=1;shadow=0;strokeColor=default;strokeWidth=1;align=center;verticalAlign=middle;fontFamily=Helvetica;fontSize=11;fontColor=default;labelBackgroundColor=default;endArrow=block;endFill=0;endSize=10;" edge="1" parent="1" source="5dtcDU3LPRfZW-v1M7sW-76" target="5dtcDU3LPRfZW-v1M7sW-46">
          <mxGeometry relative="1" as="geometry" />
        </mxCell>
        <mxCell id="5dtcDU3LPRfZW-v1M7sW-76" value="DisplayWithClockDecorator" style="swimlane;fontStyle=1;align=center;verticalAlign=top;childLayout=stackLayout;horizontal=1;startSize=26;horizontalStack=0;resizeParent=1;resizeLast=0;collapsible=1;marginBottom=0;rounded=0;shadow=0;strokeWidth=1;" vertex="1" parent="1">
          <mxGeometry x="1000" y="1220" width="180" height="150" as="geometry">
            <mxRectangle x="340" y="380" width="170" height="26" as="alternateBounds" />
          </mxGeometry>
        </mxCell>
        <mxCell id="5dtcDU3LPRfZW-v1M7sW-77" value="- DAY_COLOR" style="text;align=left;verticalAlign=top;spacingLeft=4;spacingRight=4;overflow=hidden;rotatable=0;points=[[0,0.5],[1,0.5]];portConstraint=eastwest;fontStyle=4" vertex="1" parent="5dtcDU3LPRfZW-v1M7sW-76">
          <mxGeometry y="26" width="180" height="29" as="geometry" />
        </mxCell>
        <mxCell id="5dtcDU3LPRfZW-v1M7sW-78" value="- NIGHT_COLOR" style="text;align=left;verticalAlign=top;spacingLeft=4;spacingRight=4;overflow=hidden;rotatable=0;points=[[0,0.5],[1,0.5]];portConstraint=eastwest;fontStyle=4" vertex="1" parent="5dtcDU3LPRfZW-v1M7sW-76">
          <mxGeometry y="55" width="180" height="29" as="geometry" />
        </mxCell>
        <mxCell id="5dtcDU3LPRfZW-v1M7sW-79" value="" style="line;html=1;strokeWidth=1;align=left;verticalAlign=middle;spacingTop=-1;spacingLeft=3;spacingRight=3;rotatable=0;labelPosition=right;points=[];portConstraint=eastwest;" vertex="1" parent="5dtcDU3LPRfZW-v1M7sW-76">
          <mxGeometry y="84" width="180" height="8" as="geometry" />
        </mxCell>
        <mxCell id="5dtcDU3LPRfZW-v1M7sW-80" value="# setValue(measure)" style="text;align=left;verticalAlign=top;spacingLeft=4;spacingRight=4;overflow=hidden;rotatable=0;points=[[0,0.5],[1,0.5]];portConstraint=eastwest;fontStyle=0" vertex="1" parent="5dtcDU3LPRfZW-v1M7sW-76">
          <mxGeometry y="92" width="180" height="29" as="geometry" />
        </mxCell>
        <mxCell id="5dtcDU3LPRfZW-v1M7sW-81" value="- setNightColor()" style="text;align=left;verticalAlign=top;spacingLeft=4;spacingRight=4;overflow=hidden;rotatable=0;points=[[0,0.5],[1,0.5]];portConstraint=eastwest;fontStyle=0" vertex="1" parent="5dtcDU3LPRfZW-v1M7sW-76">
          <mxGeometry y="121" width="180" height="29" as="geometry" />
        </mxCell>
        <mxCell id="5dtcDU3LPRfZW-v1M7sW-87" value="&lt;span style=&quot;font-weight: normal;&quot;&gt;&amp;lt;&amp;lt;interface&amp;gt;&amp;gt;&lt;/span&gt;&lt;br&gt;Sensor" style="swimlane;fontStyle=3;align=center;verticalAlign=top;childLayout=stackLayout;horizontal=1;startSize=40;horizontalStack=0;resizeParent=1;resizeLast=0;collapsible=1;marginBottom=0;rounded=0;shadow=0;strokeWidth=1;html=1;" vertex="1" parent="1">
          <mxGeometry x="1070" y="670" width="180" height="70" as="geometry">
            <mxRectangle x="230" y="140" width="160" height="26" as="alternateBounds" />
          </mxGeometry>
        </mxCell>
        <mxCell id="5dtcDU3LPRfZW-v1M7sW-88" value="getMeasure()" style="text;align=left;verticalAlign=top;spacingLeft=4;spacingRight=4;overflow=hidden;rotatable=0;points=[[0,0.5],[1,0.5]];portConstraint=eastwest;fontStyle=2" vertex="1" parent="5dtcDU3LPRfZW-v1M7sW-87">
          <mxGeometry y="40" width="180" height="26" as="geometry" />
        </mxCell>
        <mxCell id="5dtcDU3LPRfZW-v1M7sW-89" style="edgeStyle=orthogonalEdgeStyle;shape=connector;rounded=1;orthogonalLoop=1;jettySize=auto;elbow=vertical;html=1;shadow=0;strokeColor=default;strokeWidth=1;align=center;verticalAlign=middle;fontFamily=Helvetica;fontSize=11;fontColor=default;labelBackgroundColor=default;startArrow=diamondThin;startFill=0;endArrow=open;endFill=0;endSize=6;curved=0;" edge="1" parent="1" source="5dtcDU3LPRfZW-v1M7sW-48" target="5dtcDU3LPRfZW-v1M7sW-87">
          <mxGeometry relative="1" as="geometry">
            <Array as="points" />
          </mxGeometry>
        </mxCell>
        <mxCell id="5dtcDU3LPRfZW-v1M7sW-90" value="1" style="edgeLabel;html=1;align=center;verticalAlign=middle;resizable=0;points=[];fontFamily=Helvetica;fontSize=11;fontColor=default;labelBackgroundColor=default;" vertex="1" connectable="0" parent="5dtcDU3LPRfZW-v1M7sW-89">
          <mxGeometry x="-0.9665" relative="1" as="geometry">
            <mxPoint x="3" y="-10" as="offset" />
          </mxGeometry>
        </mxCell>
        <mxCell id="5dtcDU3LPRfZW-v1M7sW-91" value="VideoInterface" style="swimlane;fontStyle=1;align=center;verticalAlign=top;childLayout=stackLayout;horizontal=1;startSize=26;horizontalStack=0;resizeParent=1;resizeLast=0;collapsible=1;marginBottom=0;rounded=0;shadow=0;strokeWidth=1;" vertex="1" parent="1">
          <mxGeometry x="290" y="930" width="180" height="270" as="geometry">
            <mxRectangle x="130" y="380" width="160" height="26" as="alternateBounds" />
          </mxGeometry>
        </mxCell>
        <mxCell id="5dtcDU3LPRfZW-v1M7sW-92" value="- name" style="text;align=left;verticalAlign=top;spacingLeft=4;spacingRight=4;overflow=hidden;rotatable=0;points=[[0,0.5],[1,0.5]];portConstraint=eastwest;" vertex="1" parent="5dtcDU3LPRfZW-v1M7sW-91">
          <mxGeometry y="26" width="180" height="26" as="geometry" />
        </mxCell>
        <mxCell id="5dtcDU3LPRfZW-v1M7sW-93" value="- version" style="text;align=left;verticalAlign=top;spacingLeft=4;spacingRight=4;overflow=hidden;rotatable=0;points=[[0,0.5],[1,0.5]];portConstraint=eastwest;" vertex="1" parent="5dtcDU3LPRfZW-v1M7sW-91">
          <mxGeometry y="52" width="180" height="26" as="geometry" />
        </mxCell>
        <mxCell id="5dtcDU3LPRfZW-v1M7sW-94" value="- channel" style="text;align=left;verticalAlign=top;spacingLeft=4;spacingRight=4;overflow=hidden;rotatable=0;points=[[0,0.5],[1,0.5]];portConstraint=eastwest;" vertex="1" parent="5dtcDU3LPRfZW-v1M7sW-91">
          <mxGeometry y="78" width="180" height="26" as="geometry" />
        </mxCell>
        <mxCell id="5dtcDU3LPRfZW-v1M7sW-95" value="" style="line;html=1;strokeWidth=1;align=left;verticalAlign=middle;spacingTop=-1;spacingLeft=3;spacingRight=3;rotatable=0;labelPosition=right;points=[];portConstraint=eastwest;fontStyle=0" vertex="1" parent="5dtcDU3LPRfZW-v1M7sW-91">
          <mxGeometry y="104" width="180" height="8" as="geometry" />
        </mxCell>
        <mxCell id="5dtcDU3LPRfZW-v1M7sW-96" value="+ getName()" style="text;align=left;verticalAlign=top;spacingLeft=4;spacingRight=4;overflow=hidden;rotatable=0;points=[[0,0.5],[1,0.5]];portConstraint=eastwest;fontStyle=0" vertex="1" parent="5dtcDU3LPRfZW-v1M7sW-91">
          <mxGeometry y="112" width="180" height="26" as="geometry" />
        </mxCell>
        <mxCell id="5dtcDU3LPRfZW-v1M7sW-97" value="+ getVersion()" style="text;align=left;verticalAlign=top;spacingLeft=4;spacingRight=4;overflow=hidden;rotatable=0;points=[[0,0.5],[1,0.5]];portConstraint=eastwest;fontStyle=0" vertex="1" parent="5dtcDU3LPRfZW-v1M7sW-91">
          <mxGeometry y="138" width="180" height="26" as="geometry" />
        </mxCell>
        <mxCell id="5dtcDU3LPRfZW-v1M7sW-98" value="+ equals(other)" style="text;align=left;verticalAlign=top;spacingLeft=4;spacingRight=4;overflow=hidden;rotatable=0;points=[[0,0.5],[1,0.5]];portConstraint=eastwest;fontStyle=0" vertex="1" parent="5dtcDU3LPRfZW-v1M7sW-91">
          <mxGeometry y="164" width="180" height="26" as="geometry" />
        </mxCell>
        <mxCell id="5dtcDU3LPRfZW-v1M7sW-99" value="+ hashCode()" style="text;align=left;verticalAlign=top;spacingLeft=4;spacingRight=4;overflow=hidden;rotatable=0;points=[[0,0.5],[1,0.5]];portConstraint=eastwest;fontStyle=0" vertex="1" parent="5dtcDU3LPRfZW-v1M7sW-91">
          <mxGeometry y="190" width="180" height="26" as="geometry" />
        </mxCell>
        <mxCell id="5dtcDU3LPRfZW-v1M7sW-100" value="+ toString()" style="text;align=left;verticalAlign=top;spacingLeft=4;spacingRight=4;overflow=hidden;rotatable=0;points=[[0,0.5],[1,0.5]];portConstraint=eastwest;fontStyle=0" vertex="1" parent="5dtcDU3LPRfZW-v1M7sW-91">
          <mxGeometry y="216" width="180" height="26" as="geometry" />
        </mxCell>
        <mxCell id="5dtcDU3LPRfZW-v1M7sW-101" value="+ getStream()" style="text;align=left;verticalAlign=top;spacingLeft=4;spacingRight=4;overflow=hidden;rotatable=0;points=[[0,0.5],[1,0.5]];portConstraint=eastwest;fontStyle=0" vertex="1" parent="5dtcDU3LPRfZW-v1M7sW-91">
          <mxGeometry y="242" width="180" height="26" as="geometry" />
        </mxCell>
        <mxCell id="5dtcDU3LPRfZW-v1M7sW-102" style="edgeStyle=orthogonalEdgeStyle;shape=connector;rounded=1;orthogonalLoop=1;jettySize=auto;elbow=vertical;html=1;shadow=0;strokeColor=default;strokeWidth=1;align=center;verticalAlign=middle;fontFamily=Helvetica;fontSize=11;fontColor=default;labelBackgroundColor=default;startArrow=diamondThin;startFill=0;endArrow=open;endFill=0;endSize=6;curved=0;" edge="1" parent="1" source="5dtcDU3LPRfZW-v1M7sW-24" target="5dtcDU3LPRfZW-v1M7sW-91">
          <mxGeometry relative="1" as="geometry">
            <Array as="points">
              <mxPoint x="460" y="690" />
              <mxPoint x="460" y="890" />
              <mxPoint x="350" y="890" />
            </Array>
          </mxGeometry>
        </mxCell>
        <mxCell id="5dtcDU3LPRfZW-v1M7sW-103" value="0..*" style="edgeLabel;html=1;align=center;verticalAlign=middle;resizable=0;points=[];fontFamily=Helvetica;fontSize=11;fontColor=default;labelBackgroundColor=default;" vertex="1" connectable="0" parent="5dtcDU3LPRfZW-v1M7sW-102">
          <mxGeometry x="-0.96" relative="1" as="geometry">
            <mxPoint x="-7" y="-11" as="offset" />
          </mxGeometry>
        </mxCell>
        <mxCell id="5dtcDU3LPRfZW-v1M7sW-104" style="edgeStyle=orthogonalEdgeStyle;shape=connector;rounded=1;orthogonalLoop=1;jettySize=auto;elbow=vertical;html=1;shadow=0;strokeColor=default;strokeWidth=1;align=center;verticalAlign=middle;fontFamily=Helvetica;fontSize=11;fontColor=default;labelBackgroundColor=default;startArrow=diamondThin;startFill=0;endArrow=open;endFill=0;endSize=6;curved=0;" edge="1" parent="1" source="5dtcDU3LPRfZW-v1M7sW-29" target="5dtcDU3LPRfZW-v1M7sW-91">
          <mxGeometry relative="1" as="geometry">
            <Array as="points">
              <mxPoint x="480" y="817" />
              <mxPoint x="480" y="910" />
              <mxPoint x="410" y="910" />
            </Array>
          </mxGeometry>
        </mxCell>
        <mxCell id="5dtcDU3LPRfZW-v1M7sW-105" value="0..*" style="edgeLabel;html=1;align=center;verticalAlign=middle;resizable=0;points=[];fontFamily=Helvetica;fontSize=11;fontColor=default;labelBackgroundColor=default;" vertex="1" connectable="0" parent="5dtcDU3LPRfZW-v1M7sW-104">
          <mxGeometry x="-0.9305" y="-1" relative="1" as="geometry">
            <mxPoint x="-3" y="-10" as="offset" />
          </mxGeometry>
        </mxCell>
        <mxCell id="5dtcDU3LPRfZW-v1M7sW-108" style="edgeStyle=orthogonalEdgeStyle;shape=connector;curved=0;rounded=1;orthogonalLoop=1;jettySize=auto;html=1;shadow=0;strokeColor=default;strokeWidth=1;align=center;verticalAlign=middle;fontFamily=Helvetica;fontSize=11;fontColor=default;labelBackgroundColor=default;elbow=vertical;startArrow=diamondThin;startFill=0;endArrow=open;endFill=0;endSize=6;jumpStyle=arc;jumpSize=12;" edge="1" parent="1" source="5dtcDU3LPRfZW-v1M7sW-47" target="5dtcDU3LPRfZW-v1M7sW-3">
          <mxGeometry relative="1" as="geometry">
            <Array as="points">
              <mxPoint x="1560" y="609" />
              <mxPoint x="1560" y="70" />
            </Array>
          </mxGeometry>
        </mxCell>
        <mxCell id="5dtcDU3LPRfZW-v1M7sW-109" value="1" style="edgeLabel;html=1;align=center;verticalAlign=middle;resizable=0;points=[];fontFamily=Helvetica;fontSize=11;fontColor=default;labelBackgroundColor=default;" vertex="1" connectable="0" parent="5dtcDU3LPRfZW-v1M7sW-108">
          <mxGeometry x="-0.985" y="1" relative="1" as="geometry">
            <mxPoint y="-10" as="offset" />
          </mxGeometry>
        </mxCell>
        <mxCell id="5dtcDU3LPRfZW-v1M7sW-110" style="edgeStyle=orthogonalEdgeStyle;shape=connector;curved=0;rounded=1;orthogonalLoop=1;jettySize=auto;html=1;shadow=0;strokeColor=default;strokeWidth=1;align=center;verticalAlign=middle;fontFamily=Helvetica;fontSize=11;fontColor=default;labelBackgroundColor=default;elbow=vertical;startArrow=diamondThin;startFill=0;endArrow=open;endFill=0;endSize=6;" edge="1" parent="1" source="5dtcDU3LPRfZW-v1M7sW-28" target="5dtcDU3LPRfZW-v1M7sW-91">
          <mxGeometry relative="1" as="geometry">
            <Array as="points">
              <mxPoint x="470" y="791" />
              <mxPoint x="470" y="900" />
              <mxPoint x="380" y="900" />
            </Array>
          </mxGeometry>
        </mxCell>
        <mxCell id="5dtcDU3LPRfZW-v1M7sW-111" value="0..1" style="edgeLabel;html=1;align=center;verticalAlign=middle;resizable=0;points=[];fontFamily=Helvetica;fontSize=11;fontColor=default;labelBackgroundColor=default;" vertex="1" connectable="0" parent="5dtcDU3LPRfZW-v1M7sW-110">
          <mxGeometry x="-0.9556" relative="1" as="geometry">
            <mxPoint x="-7" y="-10" as="offset" />
          </mxGeometry>
        </mxCell>
        <mxCell id="5dtcDU3LPRfZW-v1M7sW-112" value="MalfunctionChecker" style="swimlane;fontStyle=3;align=center;verticalAlign=top;childLayout=stackLayout;horizontal=1;startSize=30;horizontalStack=0;resizeParent=1;resizeLast=0;collapsible=1;marginBottom=0;rounded=0;shadow=0;strokeWidth=1;html=1;" vertex="1" parent="1">
          <mxGeometry x="1150" y="282" width="180" height="90" as="geometry">
            <mxRectangle x="230" y="140" width="160" height="26" as="alternateBounds" />
          </mxGeometry>
        </mxCell>
        <mxCell id="5dtcDU3LPRfZW-v1M7sW-113" value="- nextChecker" style="text;align=left;verticalAlign=top;spacingLeft=4;spacingRight=4;overflow=hidden;rotatable=0;points=[[0,0.5],[1,0.5]];portConstraint=eastwest;fontStyle=0" vertex="1" parent="5dtcDU3LPRfZW-v1M7sW-112">
          <mxGeometry y="30" width="180" height="26" as="geometry" />
        </mxCell>
        <mxCell id="5dtcDU3LPRfZW-v1M7sW-114" value="" style="line;html=1;strokeWidth=1;align=left;verticalAlign=middle;spacingTop=-1;spacingLeft=3;spacingRight=3;rotatable=0;labelPosition=right;points=[];portConstraint=eastwest;" vertex="1" parent="5dtcDU3LPRfZW-v1M7sW-112">
          <mxGeometry y="56" width="180" height="8" as="geometry" />
        </mxCell>
        <mxCell id="5dtcDU3LPRfZW-v1M7sW-115" value="+ checkMulfunction(display)" style="text;align=left;verticalAlign=top;spacingLeft=4;spacingRight=4;overflow=hidden;rotatable=0;points=[[0,0.5],[1,0.5]];portConstraint=eastwest;fontStyle=2" vertex="1" parent="5dtcDU3LPRfZW-v1M7sW-112">
          <mxGeometry y="64" width="180" height="26" as="geometry" />
        </mxCell>
        <mxCell id="5dtcDU3LPRfZW-v1M7sW-116" style="edgeStyle=elbowEdgeStyle;shape=connector;curved=0;rounded=1;orthogonalLoop=1;jettySize=auto;elbow=vertical;html=1;shadow=0;strokeColor=default;strokeWidth=1;align=center;verticalAlign=middle;fontFamily=Helvetica;fontSize=11;fontColor=default;labelBackgroundColor=default;endArrow=block;endFill=0;endSize=10;" edge="1" parent="1" source="5dtcDU3LPRfZW-v1M7sW-117" target="5dtcDU3LPRfZW-v1M7sW-112">
          <mxGeometry relative="1" as="geometry" />
        </mxCell>
        <mxCell id="5dtcDU3LPRfZW-v1M7sW-117" value="&lt;span style=&quot;padding: 0px 0px 0px 2px;&quot;&gt;&lt;span style=&quot;white-space-collapse: preserve; background-color: rgb(255, 255, 255); font-style: normal;&quot;&gt;&lt;font style=&quot;font-size: 12px;&quot; face=&quot;Helvetica&quot;&gt;UnexpectedlyChangedResolutionChecker&lt;/font&gt;&lt;/span&gt;&lt;/span&gt;" style="swimlane;fontStyle=3;align=center;verticalAlign=top;childLayout=stackLayout;horizontal=1;startSize=30;horizontalStack=0;resizeParent=1;resizeLast=0;collapsible=1;marginBottom=0;rounded=0;shadow=0;strokeWidth=1;html=1;" vertex="1" parent="1">
          <mxGeometry x="970" y="442" width="260" height="64" as="geometry">
            <mxRectangle x="230" y="140" width="160" height="26" as="alternateBounds" />
          </mxGeometry>
        </mxCell>
        <mxCell id="5dtcDU3LPRfZW-v1M7sW-118" value="" style="line;html=1;strokeWidth=1;align=left;verticalAlign=middle;spacingTop=-1;spacingLeft=3;spacingRight=3;rotatable=0;labelPosition=right;points=[];portConstraint=eastwest;" vertex="1" parent="5dtcDU3LPRfZW-v1M7sW-117">
          <mxGeometry y="30" width="260" height="8" as="geometry" />
        </mxCell>
        <mxCell id="5dtcDU3LPRfZW-v1M7sW-119" value="+ checkMulfunction(display)" style="text;align=left;verticalAlign=top;spacingLeft=4;spacingRight=4;overflow=hidden;rotatable=0;points=[[0,0.5],[1,0.5]];portConstraint=eastwest;fontStyle=0" vertex="1" parent="5dtcDU3LPRfZW-v1M7sW-117">
          <mxGeometry y="38" width="260" height="26" as="geometry" />
        </mxCell>
        <mxCell id="5dtcDU3LPRfZW-v1M7sW-120" style="edgeStyle=elbowEdgeStyle;shape=connector;curved=0;rounded=1;orthogonalLoop=1;jettySize=auto;elbow=vertical;html=1;shadow=0;strokeColor=default;strokeWidth=1;align=center;verticalAlign=middle;fontFamily=Helvetica;fontSize=11;fontColor=default;labelBackgroundColor=default;endArrow=block;endFill=0;endSize=10;" edge="1" parent="1" source="5dtcDU3LPRfZW-v1M7sW-121" target="5dtcDU3LPRfZW-v1M7sW-112">
          <mxGeometry relative="1" as="geometry" />
        </mxCell>
        <mxCell id="5dtcDU3LPRfZW-v1M7sW-121" value="&lt;span style=&quot;padding: 0px 0px 0px 2px;&quot;&gt;&lt;span style=&quot;white-space-collapse: preserve; background-color: rgb(255, 255, 255); font-style: normal;&quot;&gt;&lt;font style=&quot;font-size: 12px;&quot;&gt;UnexpectedlyDisconnectedInterfaceChecker&lt;/font&gt;&lt;/span&gt;&lt;/span&gt;" style="swimlane;fontStyle=3;align=center;verticalAlign=top;childLayout=stackLayout;horizontal=1;startSize=30;horizontalStack=0;resizeParent=1;resizeLast=0;collapsible=1;marginBottom=0;rounded=0;shadow=0;strokeWidth=1;html=1;" vertex="1" parent="1">
          <mxGeometry x="1260" y="442" width="270" height="64" as="geometry">
            <mxRectangle x="230" y="140" width="160" height="26" as="alternateBounds" />
          </mxGeometry>
        </mxCell>
        <mxCell id="5dtcDU3LPRfZW-v1M7sW-122" value="" style="line;html=1;strokeWidth=1;align=left;verticalAlign=middle;spacingTop=-1;spacingLeft=3;spacingRight=3;rotatable=0;labelPosition=right;points=[];portConstraint=eastwest;" vertex="1" parent="5dtcDU3LPRfZW-v1M7sW-121">
          <mxGeometry y="30" width="270" height="8" as="geometry" />
        </mxCell>
        <mxCell id="5dtcDU3LPRfZW-v1M7sW-123" value="+ checkMulfunction(display)" style="text;align=left;verticalAlign=top;spacingLeft=4;spacingRight=4;overflow=hidden;rotatable=0;points=[[0,0.5],[1,0.5]];portConstraint=eastwest;fontStyle=0" vertex="1" parent="5dtcDU3LPRfZW-v1M7sW-121">
          <mxGeometry y="38" width="270" height="26" as="geometry" />
        </mxCell>
        <mxCell id="5dtcDU3LPRfZW-v1M7sW-124" value="VideoStream" style="swimlane;fontStyle=1;align=center;verticalAlign=top;childLayout=stackLayout;horizontal=1;startSize=26;horizontalStack=0;resizeParent=1;resizeLast=0;collapsible=1;marginBottom=0;rounded=0;shadow=0;strokeWidth=1;" vertex="1" parent="1">
          <mxGeometry x="110" y="50" width="180" height="90" as="geometry">
            <mxRectangle x="130" y="380" width="160" height="26" as="alternateBounds" />
          </mxGeometry>
        </mxCell>
        <mxCell id="5dtcDU3LPRfZW-v1M7sW-125" value="- frames: Iterator&lt;VideoFrame&gt;" style="text;align=left;verticalAlign=top;spacingLeft=4;spacingRight=4;overflow=hidden;rotatable=0;points=[[0,0.5],[1,0.5]];portConstraint=eastwest;" vertex="1" parent="5dtcDU3LPRfZW-v1M7sW-124">
          <mxGeometry y="26" width="180" height="26" as="geometry" />
        </mxCell>
        <mxCell id="5dtcDU3LPRfZW-v1M7sW-126" value="" style="line;html=1;strokeWidth=1;align=left;verticalAlign=middle;spacingTop=-1;spacingLeft=3;spacingRight=3;rotatable=0;labelPosition=right;points=[];portConstraint=eastwest;fontStyle=0" vertex="1" parent="5dtcDU3LPRfZW-v1M7sW-124">
          <mxGeometry y="52" width="180" height="8" as="geometry" />
        </mxCell>
        <mxCell id="5dtcDU3LPRfZW-v1M7sW-127" value="+ nextFrame(): VideoFrame" style="text;align=left;verticalAlign=top;spacingLeft=4;spacingRight=4;overflow=hidden;rotatable=0;points=[[0,0.5],[1,0.5]];portConstraint=eastwest;fontStyle=0" vertex="1" parent="5dtcDU3LPRfZW-v1M7sW-124">
          <mxGeometry y="60" width="180" height="26" as="geometry" />
        </mxCell>
        <mxCell id="5dtcDU3LPRfZW-v1M7sW-128" value="VideoFrame" style="swimlane;fontStyle=3;align=center;verticalAlign=top;childLayout=stackLayout;horizontal=1;startSize=30;horizontalStack=0;resizeParent=1;resizeLast=0;collapsible=1;marginBottom=0;rounded=0;shadow=0;strokeWidth=1;html=1;" vertex="1" parent="1">
          <mxGeometry x="80" y="233" width="240" height="220" as="geometry">
            <mxRectangle x="230" y="140" width="160" height="26" as="alternateBounds" />
          </mxGeometry>
        </mxCell>
        <mxCell id="5dtcDU3LPRfZW-v1M7sW-129" value="- bottomLeft: Position" style="text;align=left;verticalAlign=top;spacingLeft=4;spacingRight=4;overflow=hidden;rotatable=0;points=[[0,0.5],[1,0.5]];portConstraint=eastwest;fontStyle=0" vertex="1" parent="5dtcDU3LPRfZW-v1M7sW-128">
          <mxGeometry y="30" width="240" height="26" as="geometry" />
        </mxCell>
        <mxCell id="5dtcDU3LPRfZW-v1M7sW-130" value="- topRight: Position" style="text;align=left;verticalAlign=top;spacingLeft=4;spacingRight=4;overflow=hidden;rotatable=0;points=[[0,0.5],[1,0.5]];portConstraint=eastwest;fontStyle=0" vertex="1" parent="5dtcDU3LPRfZW-v1M7sW-128">
          <mxGeometry y="56" width="240" height="26" as="geometry" />
        </mxCell>
        <mxCell id="5dtcDU3LPRfZW-v1M7sW-131" value="" style="line;html=1;strokeWidth=1;align=left;verticalAlign=middle;spacingTop=-1;spacingLeft=3;spacingRight=3;rotatable=0;labelPosition=right;points=[];portConstraint=eastwest;" vertex="1" parent="5dtcDU3LPRfZW-v1M7sW-128">
          <mxGeometry y="82" width="240" height="8" as="geometry" />
        </mxCell>
        <mxCell id="5dtcDU3LPRfZW-v1M7sW-132" value="+ getBottomLeftPosition(): Position" style="text;align=left;verticalAlign=top;spacingLeft=4;spacingRight=4;overflow=hidden;rotatable=0;points=[[0,0.5],[1,0.5]];portConstraint=eastwest;fontStyle=0" vertex="1" parent="5dtcDU3LPRfZW-v1M7sW-128">
          <mxGeometry y="90" width="240" height="26" as="geometry" />
        </mxCell>
        <mxCell id="5dtcDU3LPRfZW-v1M7sW-133" value="+ getTopRightPosition(): Position" style="text;align=left;verticalAlign=top;spacingLeft=4;spacingRight=4;overflow=hidden;rotatable=0;points=[[0,0.5],[1,0.5]];portConstraint=eastwest;fontStyle=0" vertex="1" parent="5dtcDU3LPRfZW-v1M7sW-128">
          <mxGeometry y="116" width="240" height="26" as="geometry" />
        </mxCell>
        <mxCell id="5dtcDU3LPRfZW-v1M7sW-134" value="+ setBottomLeftPosition(position): void" style="text;align=left;verticalAlign=top;spacingLeft=4;spacingRight=4;overflow=hidden;rotatable=0;points=[[0,0.5],[1,0.5]];portConstraint=eastwest;fontStyle=0" vertex="1" parent="5dtcDU3LPRfZW-v1M7sW-128">
          <mxGeometry y="142" width="240" height="26" as="geometry" />
        </mxCell>
        <mxCell id="5dtcDU3LPRfZW-v1M7sW-135" value="+ setTopRightPosition(position): void" style="text;align=left;verticalAlign=top;spacingLeft=4;spacingRight=4;overflow=hidden;rotatable=0;points=[[0,0.5],[1,0.5]];portConstraint=eastwest;fontStyle=0" vertex="1" parent="5dtcDU3LPRfZW-v1M7sW-128">
          <mxGeometry y="168" width="240" height="26" as="geometry" />
        </mxCell>
        <mxCell id="5dtcDU3LPRfZW-v1M7sW-136" value="+ getData(): byte[]" style="text;align=left;verticalAlign=top;spacingLeft=4;spacingRight=4;overflow=hidden;rotatable=0;points=[[0,0.5],[1,0.5]];portConstraint=eastwest;fontStyle=2" vertex="1" parent="5dtcDU3LPRfZW-v1M7sW-128">
          <mxGeometry y="194" width="240" height="26" as="geometry" />
        </mxCell>
        <mxCell id="5dtcDU3LPRfZW-v1M7sW-137" style="edgeStyle=orthogonalEdgeStyle;shape=connector;curved=0;rounded=1;orthogonalLoop=1;jettySize=auto;html=1;shadow=0;strokeColor=default;strokeWidth=1;align=center;verticalAlign=middle;fontFamily=Helvetica;fontSize=11;fontColor=default;labelBackgroundColor=default;elbow=vertical;startArrow=none;startFill=0;endArrow=open;endFill=0;endSize=6;" edge="1" parent="1" source="5dtcDU3LPRfZW-v1M7sW-127" target="5dtcDU3LPRfZW-v1M7sW-128">
          <mxGeometry relative="1" as="geometry">
            <Array as="points">
              <mxPoint x="70" y="123" />
              <mxPoint x="70" y="250" />
            </Array>
          </mxGeometry>
        </mxCell>
        <mxCell id="5dtcDU3LPRfZW-v1M7sW-138" style="edgeStyle=orthogonalEdgeStyle;shape=connector;rounded=1;orthogonalLoop=1;jettySize=auto;html=1;shadow=0;strokeColor=default;strokeWidth=1;align=center;verticalAlign=middle;fontFamily=Helvetica;fontSize=11;fontColor=default;labelBackgroundColor=default;elbow=vertical;endArrow=block;endFill=0;endSize=10;" edge="1" parent="1" source="5dtcDU3LPRfZW-v1M7sW-139" target="5dtcDU3LPRfZW-v1M7sW-128">
          <mxGeometry relative="1" as="geometry" />
        </mxCell>
        <mxCell id="5dtcDU3LPRfZW-v1M7sW-139" value="&lt;span style=&quot;font-style: normal;&quot;&gt;SimpleFrame&lt;/span&gt;" style="swimlane;fontStyle=3;align=center;verticalAlign=top;childLayout=stackLayout;horizontal=1;startSize=30;horizontalStack=0;resizeParent=1;resizeLast=0;collapsible=1;marginBottom=0;rounded=0;shadow=0;strokeWidth=1;html=1;" vertex="1" parent="1">
          <mxGeometry x="-30" y="520" width="190" height="92" as="geometry">
            <mxRectangle x="230" y="140" width="160" height="26" as="alternateBounds" />
          </mxGeometry>
        </mxCell>
        <mxCell id="5dtcDU3LPRfZW-v1M7sW-140" value="- data: byte[]" style="text;align=left;verticalAlign=top;spacingLeft=4;spacingRight=4;overflow=hidden;rotatable=0;points=[[0,0.5],[1,0.5]];portConstraint=eastwest;fontStyle=0" vertex="1" parent="5dtcDU3LPRfZW-v1M7sW-139">
          <mxGeometry y="30" width="190" height="26" as="geometry" />
        </mxCell>
        <mxCell id="5dtcDU3LPRfZW-v1M7sW-141" value="" style="line;html=1;strokeWidth=1;align=left;verticalAlign=middle;spacingTop=-1;spacingLeft=3;spacingRight=3;rotatable=0;labelPosition=right;points=[];portConstraint=eastwest;" vertex="1" parent="5dtcDU3LPRfZW-v1M7sW-139">
          <mxGeometry y="56" width="190" height="8" as="geometry" />
        </mxCell>
        <mxCell id="5dtcDU3LPRfZW-v1M7sW-142" value="+ getData(): byte[]" style="text;align=left;verticalAlign=top;spacingLeft=4;spacingRight=4;overflow=hidden;rotatable=0;points=[[0,0.5],[1,0.5]];portConstraint=eastwest;fontStyle=0" vertex="1" parent="5dtcDU3LPRfZW-v1M7sW-139">
          <mxGeometry y="64" width="190" height="26" as="geometry" />
        </mxCell>
        <mxCell id="5dtcDU3LPRfZW-v1M7sW-143" style="edgeStyle=orthogonalEdgeStyle;shape=connector;rounded=1;orthogonalLoop=1;jettySize=auto;html=1;shadow=0;strokeColor=default;strokeWidth=1;align=center;verticalAlign=middle;fontFamily=Helvetica;fontSize=11;fontColor=default;labelBackgroundColor=default;elbow=vertical;endArrow=block;endFill=0;endSize=10;" edge="1" parent="1" source="5dtcDU3LPRfZW-v1M7sW-144" target="5dtcDU3LPRfZW-v1M7sW-128">
          <mxGeometry relative="1" as="geometry" />
        </mxCell>
        <mxCell id="5dtcDU3LPRfZW-v1M7sW-144" value="&lt;span style=&quot;font-style: normal;&quot;&gt;ComposedFrame&lt;/span&gt;" style="swimlane;fontStyle=3;align=center;verticalAlign=top;childLayout=stackLayout;horizontal=1;startSize=30;horizontalStack=0;resizeParent=1;resizeLast=0;collapsible=1;marginBottom=0;rounded=0;shadow=0;strokeWidth=1;html=1;" vertex="1" parent="1">
          <mxGeometry x="230" y="520" width="210" height="246" as="geometry">
            <mxRectangle x="230" y="140" width="160" height="26" as="alternateBounds" />
          </mxGeometry>
        </mxCell>
        <mxCell id="5dtcDU3LPRfZW-v1M7sW-145" value="~ children: Collection&lt;VideoFrame&gt;" style="text;align=left;verticalAlign=top;spacingLeft=4;spacingRight=4;overflow=hidden;rotatable=0;points=[[0,0.5],[1,0.5]];portConstraint=eastwest;fontStyle=0" vertex="1" parent="5dtcDU3LPRfZW-v1M7sW-144">
          <mxGeometry y="30" width="210" height="26" as="geometry" />
        </mxCell>
        <mxCell id="5dtcDU3LPRfZW-v1M7sW-146" value="- compositor: FrameCompositor" style="text;align=left;verticalAlign=top;spacingLeft=4;spacingRight=4;overflow=hidden;rotatable=0;points=[[0,0.5],[1,0.5]];portConstraint=eastwest;fontStyle=0" vertex="1" parent="5dtcDU3LPRfZW-v1M7sW-144">
          <mxGeometry y="56" width="210" height="26" as="geometry" />
        </mxCell>
        <mxCell id="5dtcDU3LPRfZW-v1M7sW-147" value="- MAX_POSITION: Position" style="text;align=left;verticalAlign=top;spacingLeft=4;spacingRight=4;overflow=hidden;rotatable=0;points=[[0,0.5],[1,0.5]];portConstraint=eastwest;fontStyle=4" vertex="1" parent="5dtcDU3LPRfZW-v1M7sW-144">
          <mxGeometry y="82" width="210" height="26" as="geometry" />
        </mxCell>
        <mxCell id="5dtcDU3LPRfZW-v1M7sW-148" value="- MIN_POSITION: Position" style="text;align=left;verticalAlign=top;spacingLeft=4;spacingRight=4;overflow=hidden;rotatable=0;points=[[0,0.5],[1,0.5]];portConstraint=eastwest;fontStyle=4" vertex="1" parent="5dtcDU3LPRfZW-v1M7sW-144">
          <mxGeometry y="108" width="210" height="26" as="geometry" />
        </mxCell>
        <mxCell id="5dtcDU3LPRfZW-v1M7sW-149" value="" style="line;html=1;strokeWidth=1;align=left;verticalAlign=middle;spacingTop=-1;spacingLeft=3;spacingRight=3;rotatable=0;labelPosition=right;points=[];portConstraint=eastwest;" vertex="1" parent="5dtcDU3LPRfZW-v1M7sW-144">
          <mxGeometry y="134" width="210" height="8" as="geometry" />
        </mxCell>
        <mxCell id="5dtcDU3LPRfZW-v1M7sW-150" value="+ getData(): byte[]" style="text;align=left;verticalAlign=top;spacingLeft=4;spacingRight=4;overflow=hidden;rotatable=0;points=[[0,0.5],[1,0.5]];portConstraint=eastwest;fontStyle=0" vertex="1" parent="5dtcDU3LPRfZW-v1M7sW-144">
          <mxGeometry y="142" width="210" height="26" as="geometry" />
        </mxCell>
        <mxCell id="5dtcDU3LPRfZW-v1M7sW-151" value="+ add(child): boolean" style="text;align=left;verticalAlign=top;spacingLeft=4;spacingRight=4;overflow=hidden;rotatable=0;points=[[0,0.5],[1,0.5]];portConstraint=eastwest;fontStyle=0" vertex="1" parent="5dtcDU3LPRfZW-v1M7sW-144">
          <mxGeometry y="168" width="210" height="26" as="geometry" />
        </mxCell>
        <mxCell id="5dtcDU3LPRfZW-v1M7sW-152" value="+ remove(child): boolean" style="text;align=left;verticalAlign=top;spacingLeft=4;spacingRight=4;overflow=hidden;rotatable=0;points=[[0,0.5],[1,0.5]];portConstraint=eastwest;fontStyle=0" vertex="1" parent="5dtcDU3LPRfZW-v1M7sW-144">
          <mxGeometry y="194" width="210" height="26" as="geometry" />
        </mxCell>
        <mxCell id="5dtcDU3LPRfZW-v1M7sW-153" value="~ calculationRelevantPositions(): void" style="text;align=left;verticalAlign=top;spacingLeft=4;spacingRight=4;overflow=hidden;rotatable=0;points=[[0,0.5],[1,0.5]];portConstraint=eastwest;fontStyle=0" vertex="1" parent="5dtcDU3LPRfZW-v1M7sW-144">
          <mxGeometry y="220" width="210" height="26" as="geometry" />
        </mxCell>
        <mxCell id="5dtcDU3LPRfZW-v1M7sW-154" style="edgeStyle=orthogonalEdgeStyle;shape=connector;curved=0;rounded=1;orthogonalLoop=1;jettySize=auto;html=1;shadow=0;strokeColor=default;strokeWidth=1;align=center;verticalAlign=middle;fontFamily=Helvetica;fontSize=11;fontColor=default;labelBackgroundColor=default;elbow=vertical;startArrow=diamondThin;startFill=0;endArrow=open;endFill=0;endSize=6;" edge="1" parent="1" source="5dtcDU3LPRfZW-v1M7sW-145" target="5dtcDU3LPRfZW-v1M7sW-128">
          <mxGeometry relative="1" as="geometry">
            <Array as="points">
              <mxPoint x="460" y="563" />
              <mxPoint x="460" y="250" />
            </Array>
          </mxGeometry>
        </mxCell>
        <mxCell id="5dtcDU3LPRfZW-v1M7sW-155" value="0..*" style="edgeLabel;html=1;align=center;verticalAlign=middle;resizable=0;points=[];fontFamily=Helvetica;fontSize=11;fontColor=default;labelBackgroundColor=default;" vertex="1" connectable="0" parent="5dtcDU3LPRfZW-v1M7sW-154">
          <mxGeometry x="-0.9781" y="1" relative="1" as="geometry">
            <mxPoint x="6" y="14" as="offset" />
          </mxGeometry>
        </mxCell>
        <mxCell id="5dtcDU3LPRfZW-v1M7sW-156" value="&lt;span style=&quot;font-weight: normal;&quot;&gt;&amp;lt;&amp;lt;interface&amp;gt;&amp;gt;&lt;/span&gt;&lt;br&gt;FrameCompositor" style="swimlane;fontStyle=3;align=center;verticalAlign=top;childLayout=stackLayout;horizontal=1;startSize=40;horizontalStack=0;resizeParent=1;resizeLast=0;collapsible=1;marginBottom=0;rounded=0;shadow=0;strokeWidth=1;html=1;" vertex="1" parent="1">
          <mxGeometry x="-25" y="650" width="180" height="70" as="geometry">
            <mxRectangle x="230" y="140" width="160" height="26" as="alternateBounds" />
          </mxGeometry>
        </mxCell>
        <mxCell id="5dtcDU3LPRfZW-v1M7sW-157" value="composeData(frames): byte[]" style="text;align=left;verticalAlign=top;spacingLeft=4;spacingRight=4;overflow=hidden;rotatable=0;points=[[0,0.5],[1,0.5]];portConstraint=eastwest;fontStyle=2" vertex="1" parent="5dtcDU3LPRfZW-v1M7sW-156">
          <mxGeometry y="40" width="180" height="26" as="geometry" />
        </mxCell>
        <mxCell id="5dtcDU3LPRfZW-v1M7sW-158" style="edgeStyle=orthogonalEdgeStyle;shape=connector;curved=0;rounded=1;orthogonalLoop=1;jettySize=auto;html=1;shadow=0;strokeColor=default;strokeWidth=1;align=center;verticalAlign=middle;fontFamily=Helvetica;fontSize=11;fontColor=default;labelBackgroundColor=default;elbow=vertical;startArrow=diamondThin;startFill=0;endArrow=open;endFill=0;endSize=6;" edge="1" parent="1" source="5dtcDU3LPRfZW-v1M7sW-146" target="5dtcDU3LPRfZW-v1M7sW-156">
          <mxGeometry relative="1" as="geometry">
            <Array as="points">
              <mxPoint x="170" y="589" />
              <mxPoint x="170" y="690" />
            </Array>
          </mxGeometry>
        </mxCell>
        <mxCell id="5dtcDU3LPRfZW-v1M7sW-159" value="1" style="edgeLabel;html=1;align=center;verticalAlign=middle;resizable=0;points=[];fontFamily=Helvetica;fontSize=11;fontColor=default;labelBackgroundColor=default;" vertex="1" connectable="0" parent="5dtcDU3LPRfZW-v1M7sW-158">
          <mxGeometry x="-0.9191" y="1" relative="1" as="geometry">
            <mxPoint x="-1" y="-11" as="offset" />
          </mxGeometry>
        </mxCell>
        <mxCell id="5dtcDU3LPRfZW-v1M7sW-160" value="&lt;span style=&quot;font-style: normal;&quot;&gt;Position&lt;/span&gt;" style="swimlane;fontStyle=3;align=center;verticalAlign=top;childLayout=stackLayout;horizontal=1;startSize=30;horizontalStack=0;resizeParent=1;resizeLast=0;collapsible=1;marginBottom=0;rounded=0;shadow=0;strokeWidth=1;html=1;" vertex="1" parent="1">
          <mxGeometry x="-30" y="810" width="230" height="454" as="geometry">
            <mxRectangle x="230" y="140" width="160" height="26" as="alternateBounds" />
          </mxGeometry>
        </mxCell>
        <mxCell id="5dtcDU3LPRfZW-v1M7sW-161" value="- x: int" style="text;align=left;verticalAlign=top;spacingLeft=4;spacingRight=4;overflow=hidden;rotatable=0;points=[[0,0.5],[1,0.5]];portConstraint=eastwest;fontStyle=0" vertex="1" parent="5dtcDU3LPRfZW-v1M7sW-160">
          <mxGeometry y="30" width="230" height="26" as="geometry" />
        </mxCell>
        <mxCell id="5dtcDU3LPRfZW-v1M7sW-162" value="- y: int" style="text;align=left;verticalAlign=top;spacingLeft=4;spacingRight=4;overflow=hidden;rotatable=0;points=[[0,0.5],[1,0.5]];portConstraint=eastwest;fontStyle=0" vertex="1" parent="5dtcDU3LPRfZW-v1M7sW-160">
          <mxGeometry y="56" width="230" height="26" as="geometry" />
        </mxCell>
        <mxCell id="5dtcDU3LPRfZW-v1M7sW-163" value="" style="line;html=1;strokeWidth=1;align=left;verticalAlign=middle;spacingTop=-1;spacingLeft=3;spacingRight=3;rotatable=0;labelPosition=right;points=[];portConstraint=eastwest;" vertex="1" parent="5dtcDU3LPRfZW-v1M7sW-160">
          <mxGeometry y="82" width="230" height="8" as="geometry" />
        </mxCell>
        <mxCell id="5dtcDU3LPRfZW-v1M7sW-164" value="+ isCongruentWith(other): boolean" style="text;align=left;verticalAlign=top;spacingLeft=4;spacingRight=4;overflow=hidden;rotatable=0;points=[[0,0.5],[1,0.5]];portConstraint=eastwest;fontStyle=0" vertex="1" parent="5dtcDU3LPRfZW-v1M7sW-160">
          <mxGeometry y="90" width="230" height="26" as="geometry" />
        </mxCell>
        <mxCell id="5dtcDU3LPRfZW-v1M7sW-165" value="+ isBelow(other): boolean" style="text;align=left;verticalAlign=top;spacingLeft=4;spacingRight=4;overflow=hidden;rotatable=0;points=[[0,0.5],[1,0.5]];portConstraint=eastwest;fontStyle=0" vertex="1" parent="5dtcDU3LPRfZW-v1M7sW-160">
          <mxGeometry y="116" width="230" height="26" as="geometry" />
        </mxCell>
        <mxCell id="5dtcDU3LPRfZW-v1M7sW-166" value="+ isAbove(other): boolean" style="text;align=left;verticalAlign=top;spacingLeft=4;spacingRight=4;overflow=hidden;rotatable=0;points=[[0,0.5],[1,0.5]];portConstraint=eastwest;fontStyle=0" vertex="1" parent="5dtcDU3LPRfZW-v1M7sW-160">
          <mxGeometry y="142" width="230" height="26" as="geometry" />
        </mxCell>
        <mxCell id="5dtcDU3LPRfZW-v1M7sW-167" value="+ isToTheRightOf(other): boolean" style="text;align=left;verticalAlign=top;spacingLeft=4;spacingRight=4;overflow=hidden;rotatable=0;points=[[0,0.5],[1,0.5]];portConstraint=eastwest;fontStyle=0" vertex="1" parent="5dtcDU3LPRfZW-v1M7sW-160">
          <mxGeometry y="168" width="230" height="26" as="geometry" />
        </mxCell>
        <mxCell id="5dtcDU3LPRfZW-v1M7sW-168" value="+ isToTheLeftOf(other): boolean" style="text;align=left;verticalAlign=top;spacingLeft=4;spacingRight=4;overflow=hidden;rotatable=0;points=[[0,0.5],[1,0.5]];portConstraint=eastwest;fontStyle=0" vertex="1" parent="5dtcDU3LPRfZW-v1M7sW-160">
          <mxGeometry y="194" width="230" height="26" as="geometry" />
        </mxCell>
        <mxCell id="5dtcDU3LPRfZW-v1M7sW-169" value="+ isAtTopRightOf(other): boolean" style="text;align=left;verticalAlign=top;spacingLeft=4;spacingRight=4;overflow=hidden;rotatable=0;points=[[0,0.5],[1,0.5]];portConstraint=eastwest;fontStyle=0" vertex="1" parent="5dtcDU3LPRfZW-v1M7sW-160">
          <mxGeometry y="220" width="230" height="26" as="geometry" />
        </mxCell>
        <mxCell id="5dtcDU3LPRfZW-v1M7sW-170" value="+ isAtTopLeftOf(other): boolean" style="text;align=left;verticalAlign=top;spacingLeft=4;spacingRight=4;overflow=hidden;rotatable=0;points=[[0,0.5],[1,0.5]];portConstraint=eastwest;fontStyle=0" vertex="1" parent="5dtcDU3LPRfZW-v1M7sW-160">
          <mxGeometry y="246" width="230" height="26" as="geometry" />
        </mxCell>
        <mxCell id="5dtcDU3LPRfZW-v1M7sW-171" value="+ isAtBottomLeftOf(other): boolean" style="text;align=left;verticalAlign=top;spacingLeft=4;spacingRight=4;overflow=hidden;rotatable=0;points=[[0,0.5],[1,0.5]];portConstraint=eastwest;fontStyle=0" vertex="1" parent="5dtcDU3LPRfZW-v1M7sW-160">
          <mxGeometry y="272" width="230" height="26" as="geometry" />
        </mxCell>
        <mxCell id="5dtcDU3LPRfZW-v1M7sW-172" value="+ isAtBottomRightOf(other): boolean" style="text;align=left;verticalAlign=top;spacingLeft=4;spacingRight=4;overflow=hidden;rotatable=0;points=[[0,0.5],[1,0.5]];portConstraint=eastwest;fontStyle=0" vertex="1" parent="5dtcDU3LPRfZW-v1M7sW-160">
          <mxGeometry y="298" width="230" height="26" as="geometry" />
        </mxCell>
        <mxCell id="5dtcDU3LPRfZW-v1M7sW-173" value="+ isNotNull(other): boolean" style="text;align=left;verticalAlign=top;spacingLeft=4;spacingRight=4;overflow=hidden;rotatable=0;points=[[0,0.5],[1,0.5]];portConstraint=eastwest;fontStyle=0" vertex="1" parent="5dtcDU3LPRfZW-v1M7sW-160">
          <mxGeometry y="324" width="230" height="26" as="geometry" />
        </mxCell>
        <mxCell id="5dtcDU3LPRfZW-v1M7sW-174" value="+ bottomLeftIntersection(other): Position" style="text;align=left;verticalAlign=top;spacingLeft=4;spacingRight=4;overflow=hidden;rotatable=0;points=[[0,0.5],[1,0.5]];portConstraint=eastwest;fontStyle=0" vertex="1" parent="5dtcDU3LPRfZW-v1M7sW-160">
          <mxGeometry y="350" width="230" height="26" as="geometry" />
        </mxCell>
        <mxCell id="5dtcDU3LPRfZW-v1M7sW-175" value="+ topRightIntersection(other): Position" style="text;align=left;verticalAlign=top;spacingLeft=4;spacingRight=4;overflow=hidden;rotatable=0;points=[[0,0.5],[1,0.5]];portConstraint=eastwest;fontStyle=0" vertex="1" parent="5dtcDU3LPRfZW-v1M7sW-160">
          <mxGeometry y="376" width="230" height="26" as="geometry" />
        </mxCell>
        <mxCell id="5dtcDU3LPRfZW-v1M7sW-176" value="+ getX(): int" style="text;align=left;verticalAlign=top;spacingLeft=4;spacingRight=4;overflow=hidden;rotatable=0;points=[[0,0.5],[1,0.5]];portConstraint=eastwest;fontStyle=0" vertex="1" parent="5dtcDU3LPRfZW-v1M7sW-160">
          <mxGeometry y="402" width="230" height="26" as="geometry" />
        </mxCell>
        <mxCell id="5dtcDU3LPRfZW-v1M7sW-177" value="+ getY(): int" style="text;align=left;verticalAlign=top;spacingLeft=4;spacingRight=4;overflow=hidden;rotatable=0;points=[[0,0.5],[1,0.5]];portConstraint=eastwest;fontStyle=0" vertex="1" parent="5dtcDU3LPRfZW-v1M7sW-160">
          <mxGeometry y="428" width="230" height="26" as="geometry" />
        </mxCell>
        <mxCell id="5dtcDU3LPRfZW-v1M7sW-178" style="edgeStyle=orthogonalEdgeStyle;shape=connector;curved=0;rounded=1;orthogonalLoop=1;jettySize=auto;html=1;shadow=0;strokeColor=default;strokeWidth=1;align=center;verticalAlign=middle;fontFamily=Helvetica;fontSize=11;fontColor=default;labelBackgroundColor=default;elbow=vertical;startArrow=diamondThin;startFill=0;endArrow=open;endFill=0;endSize=6;" edge="1" parent="1" source="5dtcDU3LPRfZW-v1M7sW-147" target="5dtcDU3LPRfZW-v1M7sW-160">
          <mxGeometry relative="1" as="geometry">
            <Array as="points">
              <mxPoint x="190" y="615" />
              <mxPoint x="190" y="760" />
              <mxPoint x="70" y="760" />
            </Array>
          </mxGeometry>
        </mxCell>
        <mxCell id="5dtcDU3LPRfZW-v1M7sW-179" value="1" style="edgeLabel;html=1;align=center;verticalAlign=middle;resizable=0;points=[];fontFamily=Helvetica;fontSize=11;fontColor=default;labelBackgroundColor=default;" vertex="1" connectable="0" parent="5dtcDU3LPRfZW-v1M7sW-178">
          <mxGeometry x="-0.9745" relative="1" as="geometry">
            <mxPoint x="-3" y="-10" as="offset" />
          </mxGeometry>
        </mxCell>
        <mxCell id="5dtcDU3LPRfZW-v1M7sW-180" style="edgeStyle=orthogonalEdgeStyle;shape=connector;curved=0;rounded=1;orthogonalLoop=1;jettySize=auto;html=1;shadow=0;strokeColor=default;strokeWidth=1;align=center;verticalAlign=middle;fontFamily=Helvetica;fontSize=11;fontColor=default;labelBackgroundColor=default;elbow=vertical;startArrow=diamondThin;startFill=0;endArrow=open;endFill=0;endSize=6;" edge="1" parent="1" source="5dtcDU3LPRfZW-v1M7sW-148" target="5dtcDU3LPRfZW-v1M7sW-160">
          <mxGeometry relative="1" as="geometry">
            <Array as="points">
              <mxPoint x="210" y="641" />
              <mxPoint x="210" y="790" />
              <mxPoint x="110" y="790" />
            </Array>
          </mxGeometry>
        </mxCell>
        <mxCell id="5dtcDU3LPRfZW-v1M7sW-181" value="1" style="edgeLabel;html=1;align=center;verticalAlign=middle;resizable=0;points=[];fontFamily=Helvetica;fontSize=11;fontColor=default;labelBackgroundColor=default;" vertex="1" connectable="0" parent="5dtcDU3LPRfZW-v1M7sW-180">
          <mxGeometry x="-0.9618" y="1" relative="1" as="geometry">
            <mxPoint x="-3" y="-10" as="offset" />
          </mxGeometry>
        </mxCell>
        <mxCell id="5dtcDU3LPRfZW-v1M7sW-193" style="edgeStyle=orthogonalEdgeStyle;rounded=1;orthogonalLoop=1;jettySize=auto;html=1;shadow=0;strokeColor=default;strokeWidth=1;align=center;verticalAlign=middle;fontFamily=Helvetica;fontSize=11;fontColor=default;labelBackgroundColor=default;elbow=vertical;startArrow=none;startFill=0;endArrow=open;endFill=0;endSize=6;curved=0;" edge="1" parent="1" source="5dtcDU3LPRfZW-v1M7sW-187" target="5dtcDU3LPRfZW-v1M7sW-124">
          <mxGeometry relative="1" as="geometry" />
        </mxCell>
        <mxCell id="5dtcDU3LPRfZW-v1M7sW-187" value="&lt;span style=&quot;font-weight: normal;&quot;&gt;&amp;lt;&amp;lt;interface&amp;gt;&amp;gt;&lt;/span&gt;&lt;br&gt;StreamSender" style="swimlane;fontStyle=3;align=center;verticalAlign=top;childLayout=stackLayout;horizontal=1;startSize=40;horizontalStack=0;resizeParent=1;resizeLast=0;collapsible=1;marginBottom=0;rounded=0;shadow=0;strokeWidth=1;html=1;" vertex="1" parent="1">
          <mxGeometry x="430" y="45" width="180" height="100" as="geometry">
            <mxRectangle x="230" y="140" width="160" height="26" as="alternateBounds" />
          </mxGeometry>
        </mxCell>
        <mxCell id="5dtcDU3LPRfZW-v1M7sW-188" value="sendRequest(message)" style="text;align=left;verticalAlign=top;spacingLeft=4;spacingRight=4;overflow=hidden;rotatable=0;points=[[0,0.5],[1,0.5]];portConstraint=eastwest;fontStyle=2" vertex="1" parent="5dtcDU3LPRfZW-v1M7sW-187">
          <mxGeometry y="40" width="180" height="26" as="geometry" />
        </mxCell>
        <mxCell id="5dtcDU3LPRfZW-v1M7sW-189" value="sendStream(stream)" style="text;align=left;verticalAlign=top;spacingLeft=4;spacingRight=4;overflow=hidden;rotatable=0;points=[[0,0.5],[1,0.5]];portConstraint=eastwest;fontStyle=2" vertex="1" parent="5dtcDU3LPRfZW-v1M7sW-187">
          <mxGeometry y="66" width="180" height="26" as="geometry" />
        </mxCell>
        <mxCell id="5dtcDU3LPRfZW-v1M7sW-191" value="&lt;span style=&quot;font-weight: normal;&quot;&gt;&amp;lt;&amp;lt;interface&amp;gt;&amp;gt;&lt;/span&gt;&lt;br&gt;StreamReciver&lt;span style=&quot;color: rgba(0, 0, 0, 0); font-family: monospace; font-size: 0px; font-style: normal; font-weight: 400; text-align: start;&quot;&gt;%3CmxGraphModel%3E%3Croot%3E%3CmxCell%20id%3D%220%22%2F%3E%3CmxCell%20id%3D%221%22%20parent%3D%220%22%2F%3E%3CmxCell%20id%3D%222%22%20value%3D%22%26lt%3Bspan%20style%3D%26quot%3Bfont-weight%3A%20normal%3B%26quot%3B%26gt%3B%26amp%3Blt%3B%26amp%3Blt%3Binterface%26amp%3Bgt%3B%26amp%3Bgt%3B%26lt%3B%2Fspan%26gt%3B%26lt%3Bbr%26gt%3BStreamChannel%22%20style%3D%22swimlane%3BfontStyle%3D3%3Balign%3Dcenter%3BverticalAlign%3Dtop%3BchildLayout%3DstackLayout%3Bhorizontal%3D1%3BstartSize%3D40%3BhorizontalStack%3D0%3BresizeParent%3D1%3BresizeLast%3D0%3Bcollapsible%3D1%3BmarginBottom%3D0%3Brounded%3D0%3Bshadow%3D0%3BstrokeWidth%3D1%3Bhtml%3D1%3B%22%20vertex%3D%221%22%20parent%3D%221%22%3E%3CmxGeometry%20x%3D%22410%22%20y%3D%2250%22%20width%3D%22180%22%20height%3D%22120%22%20as%3D%22geometry%22%3E%3CmxRectangle%20x%3D%22230%22%20y%3D%22140%22%20width%3D%22160%22%20height%3D%2226%22%20as%3D%22alternateBounds%22%2F%3E%3C%2FmxGeometry%3E%3C%2FmxCell%3E%3CmxCell%20id%3D%223%22%20value%3D%22sendRequest(message)%22%20style%3D%22text%3Balign%3Dleft%3BverticalAlign%3Dtop%3BspacingLeft%3D4%3BspacingRight%3D4%3Boverflow%3Dhidden%3Brotatable%3D0%3Bpoints%3D%5B%5B0%2C0.5%5D%2C%5B1%2C0.5%5D%5D%3BportConstraint%3Deastwest%3BfontStyle%3D2%22%20vertex%3D%221%22%20parent%3D%222%22%3E%3CmxGeometry%20y%3D%2240%22%20width%3D%22180%22%20height%3D%2226%22%20as%3D%22geometry%22%2F%3E%3C%2FmxCell%3E%3CmxCell%20id%3D%224%22%20value%3D%22sendStream(stream)%22%20style%3D%22text%3Balign%3Dleft%3BverticalAlign%3Dtop%3BspacingLeft%3D4%3BspacingRight%3D4%3Boverflow%3Dhidden%3Brotatable%3D0%3Bpoints%3D%5B%5B0%2C0.5%5D%2C%5B1%2C0.5%5D%5D%3BportConstraint%3Deastwest%3BfontStyle%3D2%22%20vertex%3D%221%22%20parent%3D%222%22%3E%3CmxGeometry%20y%3D%2266%22%20width%3D%22180%22%20height%3D%2226%22%20as%3D%22geometry%22%2F%3E%3C%2FmxCell%3E%3CmxCell%20id%3D%225%22%20value%3D%22streamRecive()%22%20style%3D%22text%3Balign%3Dleft%3BverticalAlign%3Dtop%3BspacingLeft%3D4%3BspacingRight%3D4%3Boverflow%3Dhidden%3Brotatable%3D0%3Bpoints%3D%5B%5B0%2C0.5%5D%2C%5B1%2C0.5%5D%5D%3BportConstraint%3Deastwest%3BfontStyle%3D2%22%20vertex%3D%221%22%20parent%3D%222%22%3E%3CmxGeometry%20y%3D%2292%22%20width%3D%22180%22%20height%3D%2226%22%20as%3D%22geometry%22%2F%3E%3C%2FmxCell%3E%3C%2Froot%3E%3C%2FmxGraphModel%3ERe&lt;/span&gt;" style="swimlane;fontStyle=3;align=center;verticalAlign=top;childLayout=stackLayout;horizontal=1;startSize=40;horizontalStack=0;resizeParent=1;resizeLast=0;collapsible=1;marginBottom=0;rounded=0;shadow=0;strokeWidth=1;html=1;" vertex="1" parent="1">
          <mxGeometry x="290" y="1230" width="180" height="70" as="geometry">
            <mxRectangle x="230" y="140" width="160" height="26" as="alternateBounds" />
          </mxGeometry>
        </mxCell>
        <mxCell id="5dtcDU3LPRfZW-v1M7sW-192" value="streamRecive()" style="text;align=left;verticalAlign=top;spacingLeft=4;spacingRight=4;overflow=hidden;rotatable=0;points=[[0,0.5],[1,0.5]];portConstraint=eastwest;fontStyle=2" vertex="1" parent="5dtcDU3LPRfZW-v1M7sW-191">
          <mxGeometry y="40" width="180" height="26" as="geometry" />
        </mxCell>
        <mxCell id="5dtcDU3LPRfZW-v1M7sW-194" style="edgeStyle=orthogonalEdgeStyle;rounded=1;orthogonalLoop=1;jettySize=auto;html=1;shadow=0;strokeColor=default;strokeWidth=1;align=center;verticalAlign=middle;fontFamily=Helvetica;fontSize=11;fontColor=default;labelBackgroundColor=default;elbow=vertical;startArrow=diamondThin;startFill=0;endArrow=open;endFill=0;endSize=6;curved=0;" edge="1" parent="1" source="5dtcDU3LPRfZW-v1M7sW-94" target="5dtcDU3LPRfZW-v1M7sW-191">
          <mxGeometry relative="1" as="geometry">
            <Array as="points">
              <mxPoint x="270" y="1021" />
              <mxPoint x="270" y="1265" />
            </Array>
          </mxGeometry>
        </mxCell>
      </root>
    </mxGraphModel>
  </diagram>
</mxfile>
